<mxfile host="app.diagrams.net" modified="2024-07-15T05:14:24.019Z" agent="Mozilla/5.0 (Windows NT 10.0; Win64; x64) AppleWebKit/537.36 (KHTML, like Gecko) Chrome/126.0.0.0 Safari/537.36" etag="le4tnJ_QWpKBP70cB64O" version="24.6.5" type="device">
  <diagram name="페이지-1" id="bTUowUvPikPcBAH4AJEX">
    <mxGraphModel dx="1673" dy="3097" grid="1" gridSize="10" guides="1" tooltips="1" connect="1" arrows="1" fold="1" page="1" pageScale="1" pageWidth="827" pageHeight="1169" math="0" shadow="0">
      <root>
        <mxCell id="0" />
        <mxCell id="1" parent="0" />
        <mxCell id="QDwMkbps9LbB6PQ0rVGC-4" value="" style="rounded=1;whiteSpace=wrap;html=1;strokeColor=#66B2FF;" parent="1" vertex="1">
          <mxGeometry x="430" y="-1150" width="360" height="1115" as="geometry" />
        </mxCell>
        <mxCell id="QDwMkbps9LbB6PQ0rVGC-1" value="" style="shape=image;verticalLabelPosition=bottom;labelBackgroundColor=default;verticalAlign=top;aspect=fixed;imageAspect=0;image=data:image/png,iVBORw0KGgoAAAANSUhEUgAAASwAAAEsCAYAAAB5fY51AAAgAElEQVR4Xu1dB3RU1dP/7ab33gsgKqL8ESsqKojYUJooFgRp0qQjRZCiUqRIk96RIr0oqCiCYEexi6IoIb33tkk2+c48DF8MSfbeV3b3be6cw4nHnZk7d+7b2fvunfmNAYKEB4QHhAd04gGDTuwUZgoPCA8ID0AELPEQCA8ID+jGAyJg6WaphKHCA8IDImCJZ0B4QHhANx4QAUs3SyUMFR4QHhABSzwDwgPCA7rxgAhYulkqYajwgPCAxYAVFhbm5eHhcZtwlfCA8IDwgJYeKCkp+TYtLa2ooTEsBqxmzZq1NhgMP2lpqNAtPCA8IDwAoPU///zziwhY4lkQHhAe0IMHRMDSwyoJG4UHhAckD4iAJR4E4QHhAd14QAQs3SyVMFR4QHhABCzxDAgPCA/oxgMiYOlmqYShwgPCAyJgiWdAeEB4QDceEAFLN0slDBUeEB4QAUs8A8IDwgO68YAIWLpZKmGo8IDwgAhY4hkQHhAe0I0HRMDSzVIJQ4UHhAdEwBLPgPCA8IBuPCAClm6WShgqPCA8IAKWeAaEB4QHdOMBEbB0s1TCUOEB4QERsMQzIDwgPKAbD4iApZulEoYKDwgPiIAlngHhAeEB3XhABCzdLJUwVHhAeEAELPEMCA8ID+jGAyJg6WaphKHCA8IDImDZ6zNg9gtEpW8AzN5+MJSVwjknA07ZGfZqbqO2yxwYAnNACCpd3eFUmAdjfg6c8rIbtU80mrwIWBo5lktt8R2dUHLDbShvei3Ko5qhPDymXnmnnEw45WTAJSUe7r+fgdvvP8D99++5xhPM8jxQev0tMF13E0pb3ozyiFgpSJkDgutV5pKaAJekC3CJOwePX07D8/RxeQMLqWoPiIBlq2fB1PIm5HXpi6K2nVDl4anYDClwnT0Dr9OfwP2X04r1CQVAaes7UHR7R5TecCtMLW5U7BJDSTG8vvoIfoc2w+2vBvuBKh7LQRWIgGXthTU1vx7Z/Sag5JZ7NRvaOSsNXqeOwPvUYbidE025eRxNu6ei9o+hsN0jMAeF8ohy8XqePoGArYvg9vdZLrlGziwClrUegEovH2QNfBkFDz9lrSGlcZwzUuB9bB/83t8Bp6w0q46tl8EqgsOR3/V5FNzXXdMgVZc/fD7chaANc2EsKtCLu2xppwhY1vB+yc33IH3CItBBui3J+9h++O9dA9f487Y0w27Gpt1u3hNDUNj+MZvaRAf0ofPHwOOHL2xqhw4GFwFL60XK7fkCsvtPBIxGrYdi1u9x5jP4H1gPj+8/Z5ZxGEaDAcW3d0Ruj4Eobd3WfqZlNiNo/RzpfEtQvR4QAUvLhyNz2Ezkd+mj5RCKdLv+fRZBm+Y1msBVdE9nZD83BuUxzRX5TUth/33rELjhDS2H0LNuEbC0Wr287v2RNfgVrdSrqtfzu5MIWvO6dAXviGS6qiUyh78K0/W36GJ6IYsmwufYPl3YamUjRcDSwuHFt3VA6qsbtFCtqU7f93cgYMubcCrI1XQcayk3B4Uh+/nxKOjU01pDqjZOxJQ+8PjxS9X0OYgiEbDUXsiK8BgkLj+MSk9vtVVbRZ+xpBj+u1bCf/cqq4ynxSBVbu7IeWo4cp9+UQv1VtHplJ+DqBcfBaWoCLrsARGw1HwYqlzdkLTsXZTFXq2mWpvocr34F0IWjtNdnlBpq9uQPm4B6IdD7+T++w+IHP+E3qehpv0iYKnpzZw+Y5HzzAjFKj2/OQ6PX0/DKSNZyqNyzk6Hc1oi6BWnIiQCFSGR0t+y2GtgatEGZU2uUTxmfQr896xB4Kb5mulXSzFVC2T1m6jpJQcFcbdzP8I1/q9L6/Lv+lB+W0VYNCoCQ1ERGglzcARKbrwTxbe2Vzy9oPVz4bd/vWI9DqJABCy1FrI8+iokrP1Ytjq6sfM9ugveJ9+DsSCPSw99WUuvvRG0uyi8rzvKI5twyVtidok/j9BFE+D258+WWG3yOQWHjDHzUBEWper4VK9Jh99uv30H9z9/gqG0hEt/pa8/Cjp0Q8HDT6Os6bVcstXMNGbM4E5wzkyVJe9gQiJgqbWgqTPWobhtR251lOEcvHyaFKjUopKb70b+Q0+BrvHVJP+9axG4cZ6aKhXpknZVg6Yi/5GnFempLex94hB8PtoDj5++Uk0vrUXGqDmgigde8jm2HyGLJvCKOSK/CFhqrCrl9SSs+YhbFe2qImYM0Aw2hmBP8h95BnmPD0Klhxe3fXUJkM3hs4fDOTVBFX1ylZQ1vx6pU1eqdlZFPxyUA+Xz4U445WbJNatBOXNgKFJmbUZZ0xbc+ps8dyecstO55RxMQAQsNRY0Y+RsFHD+yhMkTPgr/WAsKVLDhAZ10KtJzpPDkNdzkCpjGYsLEbpgHDy/+UQVfbxKKAhnjpzFK1Ynv6HMBN/3tiJg53Kr1PNVevsi5dWNILQOHvLfuQKBby/iEXFEXhGwlK5qpY8f4nbx4VG5JP6DqLGPW+ULUnN+FUFhyOk9WrUCbL996xBkxaxsSlfIGDELhff3ULpskrzv4W1SoLI2MCI9M0lLDzWIe1Z7gk75uWjytD4SX1VZnLqViICl1LlUekMlOKxEmEjRL3YGgbvZiugVlmwuaXOXYhPcf/sOYXNHaP6lL49qirSpK2W9TtWeJEG7BK9+1aavtXKOEcLmjIDX5x8oXjMdKxABS+niJax8H+UcZxJBK6bD78h2pcOqIl9076PIfGGqlC6hhIx5WQibPUJKxdCCitrej/RJS1DlrgzokFJDgte8Ds+vj2lhJrfO3CeHXCqMZySP0ycQMVOd13rGIe2NTQQsJStCCaKJq48yq7DHREA6jM95dpQq51tB62bD78BGZn+wMGYPmITcJwazsDbIE7DjLSl7n86s7ImoKqLsqpbMJjV56haHKZ1invT/M4qAJcNpl0V4fyGjRnWD2/lflQypmSwF34zxb8J0TStFY/h8sBMhb01VpIOEq9w9kDZxCQjvXgm5//otQhZPlDDw7ZEohyxl7jZm0+iyg9IuGimJgKVk4ZMX7JLwvlnI67P3ETZ3JAurTXnoFYUCsRJy//kbhM8exp0AWz0mZfGnzlyPsmbXKTEDAVsXI+Cd5Yp0WEM4Zc5W5vNE75OHETpvtDXMsscxRMCSuyp0PR23+wdm8YipfXWDKFlyUzukT1gMs38Q8/xqMzqnJSFien+4JPzNpaP0upukYEWpGHKJxg6bP1rqKKQHIsTT9ElLmUylfLGmT7Zh4nVAJhGw5C5q8S33IvX1TUziVGsW2+cuGJi47YPJ7BuA9ImLQfDOcslQXICwWcPhyQiTUtChKzLGzgNcXOUOKTXfCFkyGcbSYtk6rC1Y6eKKizu/QxVjcm/0kAfhyvlDYO05aTSeCFhyHUv5TDm9RzGJ++3fIMHf6pHyer6ArIGTFZke/NYr8P3gnQZ1UCeh3F5DFY0TsvRl+BzdrUiHrYTTX3oThR27Mw3fiAH+RMBiekLqYEp5fRNzq66ISc9IjTT1SiWtbkfqzLWo8uSvg6ueMyE+EPJDbaoCkDnmDRQ8+KRs9xhzsxA+YyDcddzrr/DeR5E+eRmTD3yObEfIiulMvA7GJAKW3AW9uP2bBrv+VuulMpamTyhvwinXTrXkKNEx5bVNihAR/Patl1pa1ST6ktKXVS5J9ZgzB+m+hRkVRcft+ZHJDVTWFTlefoBnGsQ+mUTAkrMule6eiNvP1rmXYG4J7tYRyOztKx2IK8FGJxSE4CWTAWdXpE5fhZJbO8h2jedXH0vtsYymUtk67EmQ4IkIpsgSGfNy0PQZtttpS7p09rkIWHIWrLTFjUhevJ9J1G/3agRtXsDEqwemKqMTMkbPQeED8pEwvU4eBtU1mlrdJnvKjlgMTJcchR26Mvmkac8bYSwpZOJ1ICYRsOQsZmGnxyUYXhai3CvKwXI0kn0YT1eldHClgEIXjof38YMKNNinKMEAZQ16mcm4qHE94fYH2yskk0J9MImAJWedqLlBdt9xTKLRLz4K1wt/MPHqjanwvm5SR2suomAlM7+DCscpIdVRG8BSVn/q9CsvJuryr6P+EFp4lkTA4vqy/cuc8eJrKHi0N5Nos64tYagoY+LVI1PxTXcjbdoqxYXJluZuLMhFxMvPwe2f3y2x6vZzwuZPXPUhk/3UR7IRdokWAYvp6ajFRL+CLDVuTlnpaNLnTjlD6ErGdG1r6Qaxwex0BTsranUVMbm3wzZ6rV5s6rp04eBZprXXS3MQpsmwM4mAxe6r/+dMWnoQpmv+Z1HU7fxviBrFdohqUZmdM9DtFtXEVQSHq2opvU5HTOunOd6WqkYrUBa39yemnpaNFOddBCw5z1bC2mMoj25mUZRawIdPH2CRz1EYCLM8ee42UM7WZVKws7ImjLS9rEHC+uNMXY+8vjiKsNnD7cVsa9khApYcT1/c+hXMQaEWRb0/OYDQN1+yyOdIDGa/QCQv2M0U0BuaNxUuU8G4nmoC1VjHpEX7YLrOcnGzx5nPpJ1nIyMRsOQs+IW9P6PK03IXGp/3dyBk+TQ5Q+hapjwwFInrPgG14ZJD1B0mZtD9jS5Yka+S39iB0tZtLbrN7ez3iHqp0WW7i4Bl8cmog+Gf99kgU/wObkLQWnW6u8ix01YymSNny+8V+O8rZCO9BQNrjSqVJEWP7GKrJbbVuCJg8Xqevk8XWAOWg2W5s/iKB8WiQX1VVQibNQxeX8nvps1ir73xpM5Yi+K291s0yzXuHKKHq9so1+KgtmcQAYt3DaoMBlw4cp5JzH/3agQ6UFmOpUkX3NcNGbyJpA0pLS+TzrE8fv3W0tAO8zlryowIWHUvucWc5GbNmrU2GAw/OcwTwzAR5ldCK/ftYzBdMxYC+qOuxmoTNZqNHPs4XOPZfiTUHt/a+ggUksAhLZEIWCJgWXpGLn/OHLAayRkWYa8nLdwj+5DdkuOdM1MRNaZHo2jVnjL7bRBEtSWi/DQq+2pkJF4J5Sw4a8CizsLBK2fIGUI3MhVh0UhcekgRBjvLZF3/+R1RE3qB6gkdmVgbm7j9+bMUxBsZiYAlZ8FZ0xoIUYCQBRyVzF4+SFp2CBURTawyRY8fvkD4tH4wVFZaZTxbDJKw4n2UN2thcWjqTBQ5+VmLfA7GIAKWnAWN23EalQwdZTy/+QThrypvAirHRq1lqpxdQLsBUwsZaKqVZsDoJMtE72P7ELqIvVuyrEFsKHRxy+cwh0RYtKCRdoEWAcvik1EHQ/zGT1ERHmNR1JF/BdOmrEDR3Q9b9EFdDKHzxqA8qilynhsjSz5g2xJQJ2dHpLh9P4O6cVsivfS5tDQPzs9FwOJ0mMSeuPJ9lDW1vG131Juc7OfHI/cpeXVsdKZHZ3tEmS++hnxGmJ7a60TNRKmpqKMR6/koQU1TO7NGRiJgyVnw5De2o7T1HRZFHRF7u7B9F6RPWmJx7nUx+B3YiKB1sy9/RDltadMpUbIjv75yE6LG94Lb+V/5Ze1Uojw0EgmbP2OyztGgt5kmDYiAxeio/7ClTVmOorsfYRJt1qUFDOYKJl57Z6KuzMnz3wGcXbhN9fzmOMJeGwxD1X/xkStd3SR8fDlt6Y152Yge0QXOWanc9tijgOTfRXuZTAtcNxv+BzYy8ToQkwhYchaT51Umtt89cE5PljOMXcmUh0Yh6a33UOnjx20X5QxR8qexzFSnbEVAMJLeOgxzYAi3bpf484ga3R1GUwm3rL0JFN71ENJfWclkVsjC8fBxQFx7C5MXAYvp6ajFRIfFOc+OZBKNGv8ECCpFz0Q985KWHJQOynmJUFejR3ezmPRZdlXLS8mn7h68Q8BRcMfyuvVD1hA2dI+Iaf3hceYUt690LiAClpwFzH/4aWSO+v+zmIZ0hCwYB58Th+QMYxcyVUYjUuZuQ+n/LEOe1DbYYCqVdlZuceeY5lJ0+31Im7EOMFisCLtCn++hzQhe8zrTOPbKlDlsJvK7sPWwjB72CFwv/mmvU9HKLhGw5Hi2+Nb2SH2N7fwgYPtSBGxna0EuxxatZdLHzpPXg5DQFl59AV6nT3CZmPvEYGQPmMQlU80csmgifI7tkyVrD0Ks0DJka9Pu19f7im0Pc9HIBhGw5DiWp7uJnlFH8zs/i8wR8nYtgevmwP/ABjnuRdrExShibCj6nwHMFYic+AwIWlmPFL/+OCoiLVcNGAvz0bTXTXqcolKbRcCS40FC0rywj61VPZ1f0TmW3sjU/HrpkF0OqRGkk9/cg9KWN3MPTx12ooZ3hlNBLresrQVYc7CorjJ6xGO2NtcW44uAJdfrcbt/QKW3r0VxKtZt1tNyhx2LiqzIUOnuKSXHsmTz1zZLLSRMc1AYEpcfBmHE8xLVHBKOlp6orPn1SGT8gfD8+hjCXxuip+mpZasIWHI9mbR4P3MdXcyADnBJTZA7lNXlWFEvaxtGzU7pl985I0UVm0tbtEHywt2AE3/dod7Kdwru74GM8QuZ/Oa3dy2CNs5j4nUwJhGw5C5o+rgFKOz0OJN42GtD4PX1MSZeWzPl9hiI7Bem8JtRWYmIyc+qjg6a16UvsobJgOghe6b0gcfPX/PPxQYSWQNfRl7PQUwjBy+eBN+P2RJMmRTqh0kELLlrldtrGLL7sbXwCnx7Efx3rpA7lNXk6MyIzo7kUODGefDfu1aOqEWZ9AmLUHhfN4t8tRmcKBP+xUct5oBxK9ZAIGXWFpTcfDeTZkfI7WOa6JVMImDJdByK2j2EtKlsWcmeXxxFuJ03vTT7+CNxxRGYZXRu1np+Vc6uSFx2EOUMBee119Pt7BlETnjqipIgueuuldyFPT+iysuHSX3THq0cIrOfabL/ZRIBS4bTJBFqzZ6wlq2ji3NqAmIHdJA7lFXkeH7haxpEpTHRY3tojgQqIZuuOMLUxr22w/x3rULgFrbzIas4u9YgFaGRiGcsenbKSkOTPnfZwkx7GFMELCWrcOHgWVS5ujGpaPrEjTAWFzLxWpsp95kRyO4zlntYymSPfrEzXJIvcsvKEaBXJgqscih8Wn942mkpS9GdDyBt2mqmadEcaC6NlETAUrLwSUsPwnQNW8pC5OTecLfDA2DT1a0kmGM5REB83ifl5WrJGY9ksvtNQG6vodzi0nnWkAfhlJ/DLau1AE9tamNrHVfL9yJgKXkYM8bOQ8EDbEmhAZsXImD3KiXDqS5LMMf0mlUe05xbt3N6ElwT/kali5tUsFzlRv/cUenqfukv43lMfQMbiwpAOzhjWan012AqgaG0BIZyE0zX3igLNcJeIauT52xFaRu21zxb/EhwPxzaCYiApcS3PNX1Ht+dRMT0AUqGUyxr9g0AnZdUhEahIiQSBR17oOyaVor16kmBx/efSfWNzqnxoKx454xkGPNtlxVfZXRC3P5fmI8Wooc+1Gh6NNbxXImApeTLVvq/25E87x0mFdQQtGnP1ky8cpkqgsNBh9PVAYn+m1AsKTjR//sPdAsBIvwXS499WCWy7KM0zCnXBpqz8b9zN5YUg3aM0r+MZDinJV7677QkuGQkgw66tSJTy5uQ9CZbThXtMJs93rh+YMQroYpPHqFlxu3/FTDSN8AyRY3qCrfzv1lmbICDAPQIT74s9hrpVa6sybUopyDF0BRD0cD2KEzBhx+JRtZM6GKBbnsJp9818W+4XPxL+m/6IVJCdB5H53Is5P7bd1KKRiMmscNSuvgJqz5EeZNrmNQErZ0Fv4ObmHipc4oUmCggxV4NArijIGVmaC/GNIBgUsUD9FrpEvfnpUAW/5eEUUX/6NyNhVJe24iSW9uzsMJv/wYErZ/DxOugTCJgKV1YHrwozy8/QvisYVcMScHJdF0bmFq0AeF6U3Ci1ztB+vUA1Y4SqgJB3bj98QNod1SbqAlH3N6fUMXQ1otkQ98YBe9TR/TrFOWWi4Cl1IfUpoow3lmIDnebPn2L9CpHZTBU3GtqeTPKml7LIq6ch16fqGmynNcouWdGyq3WVoMV5+X2169w+/0M3P/4UQpktFumInpWiu3fXjpfa8QkApbSxefNYzIWFaLSy1vpsNaVt+KXWvbE5J5nyZWTbej/C9Jhf6WHJ5MmyiNr8sxtTLwOzCQClhqLS2B+BOrnkGTDL7RD+lPmpLw+/wBhc0bIlHYYMRGw1FjKlNc3o+SWe9RQJXQID9TpgaBVr8Lvvbcbu3dEwJL7BNChePHtHUENKYpv7QA4O8tVJeQaowc4d66GogJ4fXcShDbq+d2noEqARkgiYPEsuqnFjSi6vSNKbu8IwjyXTZwPq+xxrCxoLMiTYE8owVH6SzlKlXTKz0FGo3RrVkmlPu4e0l85zVs5RrQNq8JnwP3nb+B1+jg8v/7YasXntnHUf0YVAcvSIlCQKrivO4o6dAGVtuiOZHwxDKXFUht0Oui9VMNXDCPV8ZUUXarto/+m/0f/XVKsOHmS1aeU/kFnhVIwo3/031TLSAGO6hndL31G0D/5jz3Hqlb3fATx433qMHw+2S9l5zswiYBV1+JWhESgsGMPEM42PfxMJCMwMOlVwiTTJmrgQI0c9ExyIXOkciU5aR88ztLw1tX97Bn4HN0NOqRXmoXPMyUr8YqAVdPRhR27o6BTT5QwVs4rWiQVHlqpBi41Hi4p8XBJjoMz/U2Nh1N2BqhGLWMUf1a077tvI3j1q4qmZi/CVKNHfuClyEnPwliYB3NACMqjmqI8NFr6WxHRBOXhMRIahSLiDYoynxXvT9+Fz8d7df/jU8PXImBRVnn+o8+hsP1jstAsFT24HMKUMOj2z+9w/ecs3P4+C9cLv9e7/afWWISGWunjzzEC4JSZiphBHR2mo3BZVDMkrv4QcOK7EHH9+zdEjexa70arPLIJypq1hOnqGy79bX49qC0ZM/EGLGbFdTPSs0MdsX0/3KVpIbdCM1nEG2/AIvTK3J6DUXJTOxZHWYXHUGaSgpFL0gVpxyTtmpIvwjXhPHNtGhma8toGlNDNJSeFT+0LT52/CtaecvZzY5D77EhOTwCB62ZL53isROdrVFNaTruwyKaXdmZRV8FkZ/A93scPwn/3Kr1C1DS+gFXYvgtynxomFRbbmlzP/wb3s9/B7fyv/+6a/lBsUlHb+5E2g797jddn7yNsLv8XW7HBGiugBhYJaz/iRrOg4uWYFzrBOVN5j0XTta1han4DqCqi+Lb7YA7m2I1p5B/P0yfgv3cN3H/9VqMRNFHbOAJWlbMzCjo9gbxeQ6UzCHsh3l9xS3ZXOTkjfuMJmEMiLbH+53PK8Yl54X4452ZxyemFueR/bZEybwe3ufUVq3MrqiGQtHA3TNffokSFqrIUsAJ2rgABG+qAHD9g5Xd9HrlPDkEFzxmDlVaOWlBFvdRLtdFyeg1DDmOvxJqDBi+bCt8Pd6pmhz0q4oGzrml/+LQB8DxzUpUpVQQEI37b14BB62tIfnPd/voFAduXwfP0cX5h60k4bsDK79IHOb2GwxwUajV3GgvzAXMFKv0C2casqkLsc3fCOSeDjb8BroqAECRsOPFfVFEGrW5//IiocT0ZOPXNYvbykfxTyZlL55SRjNiB98NQUabYAbxdrF0SzqMiLIYZPlmxgQDsPHA5XsAqeORpZD87iu/WRsFKu/3+g/QL7PnD56D/zn18ELIHvcysMWjlTPgd3srMXx9j2oTFKLqvK58ecwVihjzYaDKlC+7rhowJi/h8BMD/neUI3LqYW662AMFpE6w2K8X2vkP6MSu5+R4U33Q3im+/T1bDENbxavLRD1nQpnlw/+W0HHGtZBwnYBXf0QlZAyajPLqZVs6S9FLuk+c3x+D5zXF4/vDZFQ0MyqKvQiJjg1XSR62/qAWYEiq95n9IXnqQW4X/9mUI3L6UW07PAslvbEdp6zv4plBRjpjBD4BA+eSS2dsPF3edYX4ddLlwDjEvdr5iOMLpp8BVfEt76a/W5PndSQnllLLp7YD0H7CodCZr8DSUykgQ5FkAahHl88kBKYPYEtGrR3lErCW2y583efZ2OCk48E586z2UcdY2uiT8Le2uGhsR9n3C6qPcr1keP36JiCl9ZLuLjigyh81klvffuQKBbze8G6Qay8J2j6DwgSc0f/59Ptojdc92yslknoMGjPoNWJRtnN1/IvK6Pq+BXy6p9Pz2U3h9eVT6R4W9rJRFdj05hJUdPFjvtZXmd34WmSNeZx6rmjFicm942GFjV+6JyBDIeXIocvqzNX6oqV4JRDFv1j1vwxIKxIX3dEbRXQ+BfsS1IPoOBK2bBZ9j7CipKtuhz4BV2rot0sctlHrsqU2Un+J9/ADor7G0WJZ63lc0tz9/RtSYHtxjSQfJm06h0tuXS9ZRc65YnUC9ACkDnrlO9F/FVPJE6R+8NXqUSpOw8VNW80AH/U2el4+vZg4MQVG7R0CH/FockdAPeciyKbbImtdXwKJOxdkDJ1/aVal4NWwwm0FfYv+dy1XLAL647SuYA9lvKGMGdoRLykXmh5oY6RWDXjV4SEqIHNAezrbd2vOYrAkvNftIXsTWD7CmAdT1iHbEPJTz7EhQO3pW8tuzBkGb5rOyN8hHmG3USqxU5dwvyt0LfXMCvL7+WBU7GZXoJ2BRq6u0SUtR1uw6xrlZZiMQNJ8Pd0pIjs7pyZYFODiyXpiKvB7snZ4Dti+V8mBYiUpAqF4QTk6sIhJf4OYF8N+9mkvGUZkzRsxCQedn+KZnNiN66INwTYpjlovfcAIVHGeakaO7w/2vX5j1szBS0xP6cSvswHmTbEE51SgGr5whQQ5ZgfQRsOSe09TnQNe4P+F3YAO8T74Hqt/TgugBSX5zD7NqatIZO4C9/i91xloUt72fWT8xEpoD3XYZzBVcco7KLDc3i44LwmcOYnJL6XVtkLxoHxMvMSl9HbQ0EO366ftEeGFq4bsRWkjYa0Okfowak30HLKoDSx83D0Uq/Sq4JMUhYNsSCewMVXL7tLMtCWmP3/IZV5lMxGiQG2YAACAASURBVKRn4fHLNxYHKGl1O1Lmv2ORrzZDYz5or89ZVFuaPmmJZr4kiJ+Ch9m7NfvtXo2gzQu47eEVqHT3lN4A8nq+oApKCR01hCyZLG0CNCT7DVgE10FdcdV4BSR4Df9dq6xefkItyOn8gJW8PzmA0DdfssieQAfGsWzdpquVeX3+IcLmvGhRt9oMlV4+UoPY8tAomEMipAaxFYFh0sG1c1YqnDNT4ZSZAvoxoSJwW5Cc3Czq9hwz/JEGzSX004vvnJaQUFkpevADcE38h5VdMV+lr7+EWkIH9ARJrZT83t2CoNVsfTpljGWfAas8LBqUFWxWeAvoGn9egtIgIDNubHEZ3qwtQq3lJTwmRqLX0yZP3SLhoddHhIKaMX4ho8ZLbFY9aDcaL6ES3HKv1IK99Nobmc/ZnPJzpCJcSlb0+OFzq+X80PNGiA5wcePya8ibL0m5efVR/gNPIHPsPGadrn+fRfTILsz8ajLSTXNe9wHShRbvrXNtO+gCi1JADOq/xdhfwCqLuRrJ83ag0j9I9noYyssRsHUR/Pevt0mgqmk4b1JnQ4XIVa5uiN94EnRtzUNWOWg3GFB0T2dkPzdWnav0ykp4nziEwG1LrNLtmHbCtCPmIaesNMQOvK/ec9Dkhbu5bucoo9xv/wYeE1TnNfv4I2PcfO7z0dqGeH71sdRHUeXzUvsKWITkSK27eZEyazrLJe4cwuaNscYBINPDwltb6HLxT8QMq/tVI+ep4ch5fjzTuNVM0peqfwdVinfrG5jgW7IGT0VZ8xu4bGNhph8f3w92SPV81BRDKyJonoT1n4BKX3goYNMCBOy58taVfngT1xxlV1VVhSbP3A6nfO3myG4MJKjwrGEzQMCEconK18JeHwIDb+ek+ge0n4BVERyBpCX7uXKXas6Lcqn8dq9CwDtvwVBhP7dgdBZ3ceuXXGseNfZxuJ376T8yZv8gxG86xY0nHjp/7KVXYg2oymhE5vBXUdD5WQ20/1elMT8H4a8Ohvvv32s2FsFkp0/iq62k6/zY/vdeEUwzX3wN+Y+y14h6nPkMEdP6aTY3OYrpO5n+0kL+2ssag3l9+h5C549Rq6+HfQQsul5NXryfq/6u5gLQuz8dVrvGnZOzLprL8HaG9v54H0IXT/yPXRkvvoYCji8ACRM2efRIdfNuqo2iV4f0ycusCzFdXoaQxZPgo1EAprklLjuEsqtbcT0Tvu9tRfCq/68TrHRzx8V3vuM6xNbyh4VrMnUw0y0n5RXK3W3JSbatx2bbByzaiifPfwemljfL8qvfoc0I3DDXrnZVtSfCfXVebkLTp2+HsaRQUiU3STRybE+4n/tRll8bEiJEitTXN3G/PqllCN34Bm5bDJjNaqm8rIc3f04SNJsRM/A+uKRf6gmY99hzyBrO3nmIejw27XWLpq/tSh1Ft7xp09eAmrbIIZVAIm0fsDLGLUBBp8e5fUBb8bA3Rko1f/ZOlS6uErQIz/V24Pq5ly4NAKTOWIfith25pun5xVGEzx7OJcPCXNzmLqS9shJVnj4s7JrxUN/EsFnDLwd1NQdKfWUViu/iQ7Ko6e/4DcellmCs5PP+DoQsn8bKblO+zJGzkP8IZ3XAvxZHTnpGKb6WbQNW/kO9kDl6LvcCELInJUG6/XOWW9ZWArwLTdnD9KtNgG+U4sFL0i9+SjyvWIP89OqeuPw9mIMjVNUrVxmVMlFJk9pE0EAEEcRLkeOfBFxcQXldPESIrwSYpxfK6T0KOb1Hc5trzMtCzJCHlVws2C5gURukxLcOc73nk4coVydy4tP2AijGvGhyim3Dpw+QHgxeuBDfQ5sRvIYfcqahySh9dWd2FCdj6NxR8P7sCKeUZfbMoTOQ37WvZcYaHO4/fQWnwnwUtXuIWc4l8QJiBndi5rcXxrxu/ZA1hH9XSEgP4TMGyp2G7QJW0tJD3D3bjMWFiHypl90erltahYQ1H3FB3NJNIW+wogzymH73wqkg15I5XJ9njHjdKreBXEb9mxRLOxu1d9t0qZCw+ZTsg2bWeQStnwu/f1/9WWXshY8XhaLabirhIUBAGWSbgCXn+pgmV9d1v4xJ20yE+1eJMoU5YXRqnn2pNVHKWqdDdnslyr2LHvGYmvk+0lTlJJNy+chccSn3qpAdHJJLvxWY5exECVcsdkB7OcAD1g9YlLtD5wO8CXpabf2tsKaXh6j09EbcO6e5S0BYbXROS5JazauZXUzrlbj8CMqbXstqhk34QhZNlNqxq0l0WULPqjk4XE21l3VRJn/ognGa6LaW0iqDASlv7OBqrkG2BW6aD/89a3jNtH7AopwOqmDnIb8DGxG0bjaPiN3yUtkDZRFrQaHzRsP75GFVVZOtZLO9E8HzRA95EMZy5e24as61sGN3pL/0puXpU6tBTgAQepXVMhHWstHqcBC2fOLKD7h6fzrl5yL2+XZSnSsHWTdgUTQmqFie3ZVzykXEDHkIhopyjnnZL6vpujZI4sBHYp2JFoWztMOgDkA868VqrxZ8WtVM0pexTOUdJmGyRVtAe9DCR1rpLLnxTqTM3calnlAdCN2Bg6wbsIrufABp0/jQLvV25cvi/ISV76O8aQsWVmae8Gn94XnmFDM/C6O9n13VnoPrP79LZ1lqU9EdnaSkSTUpaOUM+B3m+4KrOb4WumgnSjtSViKU39h+XNj11g1YaVOWo+juhjGEak7WHuurWBejIb78h59CZn2vxfRawdnJ3O237xA1gR0kjnUO9nozWK/91Em7z11wzk5nnSIzHxXl897Y1qfcUFyIJr3bwsj3OsRsq60Yy6KaXerJyXFRxPlabN2AdWHfL6jyYAczowaj1GjU0YiQVC9u/0oRKkVNn0SN6qY6+J2EmMrZSMMe1il4+TT4vr9DdVNKWt2GlPk7VdHrSGeytR2SOm01iu98gNlPUpnVFmZ8N+sFrJKb2iFl9tvME3FJvijdeDkqZT//EnKfGqZ4ep5fH0P4a+w9EFkHNF3VEknL1T3AZx1bCZ/HmVOImNZfiYp6ZVNmbUHJzXcr1k3Y/XRJ4IhUfFsHpL7KjunF+RpvvYCV++QQqfEpKwVunAf/vWtZ2XXHV0FwMdu+BoxGRbZHjewKt79/U6SjLmG93A7Wtp06ITV9so3q/iCFJTfcipQFuxTp1qrGU5FRKgtf3PkdV4OLqzo3Z7XAegGLWnQVtWc/EI0c0wPuf/7MOhFd8hE8S+G9j16yXca1uJa7CSoJopoxPVLTbi1VT2+o9gN1QiJEB7mkQgGw3KGtJpc2ZQWK7n6YebyokV3g9jdTXbD1AhbvoSVH1GV2jL0x0iEu+UUuUU2l+6/fyhVvUE53B+41ZkOlSdVQL2o7p+SWe5EiM+ufvpT05XR0yn1iMLIHTGKeJmHZUQMWBrLPgGXMy0HTZ25lsF//LEkLdsF0A/9c3c6eQdRLvTRzAO/hqWaGyFDM2i5NhmpJJGHlByhvci33bW7ovDFat8GSOyVV5YpvvgepszYz6/TftRKBWxiScwErBqyFe2C6nm0rbSgvQ7Nu8oDCmL1kJ4zUDJWaovISHSzTK6FWlLj8sGywNq1sYtWrRcZ/zbEL7+uO9AlMX7DLYlqerbH6xVp8FQEhiN/Ofrvv9cVRhLFht1kvYKXM2YqSNncx+0zLcwhmI6zASH3h4t75jit3hUpAmvS5E04a5BtVTzmZ6sNat7WCB9QfIuz1ofD66mP1Ff+rMeeZEcjpM5ZLPwFONn32Nmu1dOeyTW1mqpCIO/Q7s1qPH79ExJQ+LPzWC1ipU1eimAMnKLZ3WzjnZLJMQtc8Ob2GIaef5eap/5lkFeB7aBOC187SbO68lySaGSJDceS4nnDXCBCPCtgvbvuKCz22egrBK6bD9wgfuJ+M6dtcpCIwVMrhYyWOJr/WC1gZY95AwYNPss4BWiRDMg9uRcaL277m6zNYIxO+yXPa7bIyB7+C/O7a5DNp7V4tD91l3Z7+ewPs6LmF1evKWy/r88FOhLw1leWxsF7AynlyKHL6szeqDFo5E36Ht7JMQrc8zEgANWdYI/2BGnAEqYwsWj2U5lhQWq2auQLNul0PQ6X6DSoIleDili+4UXJrpqwQ2iahbjoy5fYYiOwXpjBPkQPDzXoBizcDluMgjtkx9sbI2xX6CvvLyxDb714452SoPjW9FT5XO8Al8R/EDGYvDeFxXPZzY5D77EgekSt4HbU+tuZEKdOdvu+sROdXdI7FQNYLWNQI9OKO0ww2XWIxlJmk1AZDSTGzjJ4YS2+4FckKs6Zpvr7vvo3g1ewtpVh9RPWOBDZY5WXb7jis9lbz+e1ejaDNC3jFLPJTA474zZ/x767q0Bwz9CHd9SSw6KB/GWgXGreLr9lt06duhrGACXXVegGL5pP01nswNb+ede5Sc1TGhDJmnfbCyJsNXK/dtMsa2BHOmSmqT02PuVhaHbhTI9G8HgNU8bGe2nrxTpi6XVPXa1ZyP3tG6tPASNYNWNm9RyOXo9zDmVpdvXC/6ljdjM7RjK0iKBzxWz5TXEdYbaD3sf0IXcR+Psg6sfzOzyJzhLrdd1jHlsNn+LeOkBOdx+JQ0npt+hRwdrHIy8JAKQ5Net+hSU9FlvG14qHOSuQnnjZwnDXD1g1Y5bFXI2H1US5/Bb/1Cnw/4O/LxzWIlZmpbIHKF7jIQq1h9NCH4Bp/nkulJWbq9kudY/RCXicPI2wef788S/PLGD0XBQ8x7wIuqbOAa6bnbjn1+YsX4ID0xPZvD+e0REtLUP25dQMWjUrnNnR+w0oGals1+AE4Z6Wxitg938WdZ2D29VfVTq8vP0LYLOVwNbWNSh87H4UPaINBr6oDAEQPexiuF/9SVW15VDMkrDvGr9PCD0x1o1x+xfYpUR4ei4Q1R6VGsqzkcfoEImYOYmUnPusHLDktvjy+/xwRrzzPMzG75S3s0BXpExdrYl/UmB5wUxnhojwsGolrPkKVq5smNqulVKvdlayzRkbUWI7bMbXcpJmepKUHYbrmf1z6qVGw53cneWSsH7CktlGEaR57DY+h4CiQ5NJrbWa5xc4sdrr/choEX6I22XsSKd0oRw9+QHWEBtPVrZC07JDa7rysz+vzDxA2Z4Rm+q2lOH3cfBRydoKiH1b6geUk6wcsMlBOhw2SC3tjFLxOqd+WnNNpstnLYq5GIm2bNaTwqX3h+cMXqo5AYIMJ6z6x2xQH34PalClp+eMiLVBFOaRqhfwcVdfLmsq4mwP/a5zMShbbBCyyOW3qShRx1BZWL4LWKAVaLnbmsJnI78JU5CmZYSzI5cZ954ScZZ5uYfsuSJ+0hJnfWowuiRcQNbq76jduxTe1QyoHpHd1ADIWFqDSP5B5+gFb3kTArpXM/PbEKKtSg3IHP9iJYLZSnNrTtV3AMgeFIX7tMa6mFNXW67E5hZSIuft7rsTDwLWzkdN3LHehbeis4fD+Uv2dXFa/CcjrNdRuvjOG4gIpWLkmxaluk5xWbH4HN8FYmIec58Yw2yN16+5/L2+jJGb9WjFS9yvqgsVLTlnpiBn6IAhuRwbZLmCRsfmPPIPMkTIQB8pNCH9tGDzPcB3YyfCPeiIFnR5Hxjj2DGzK/CUIGUp/4PkCkMUuCX8jZsiD6hn/ryZqhJs6Yx1Kbr9Pdd3cCisrIR3afv8Zt6glgaJ2DyNt6gpLbP/53FhSjBjqsWcwgDDNeUhvh+8F99OzPJ8PEulfhyispbRtwKI58NYd1XwQQhZNgM8x+RDDPA+VUt6khbthuv4WZjV++9YjaMNcVLp5SEmmlb4BzLLEGLR2FugXX20ieBWCdS6PYW4coLYJkj6tujxL3ck3nEBFeAyX3QHblyFg+1JJhm6B6TaYlehcls5n9UC5z4xANicWWPW8fI7uRsjSl5VM0/YBq9LdU7qJKY++StZE/HevvtTXrIruku2TyiOaIGHDcS7jYgZ2hEvKRUkmr3t/ZA1+hUuemnXGvNBJk8LoSjd3pE9cwtV/jsv4BpjpNTB04Uvw+lpGbhSDEbw7YVJJZ42xfe+G0VQijVDS+g6kvMGBe6WDw/cqZxekT1iEons6M3jxSha3379H5MRnYDBXyJL/V8j2AYsMKQ+PQfKSg7KTKT2/+QQhiybCqSBXiTM0k6VgQ0GHlWqnJ9DDEr/hOMwhkawqJD6vE+8ibAEfMibzAAYDcp8afunXlqPTL7P+OhgpIzp8Wn+4Jv6jRE29spRyE7/5FFdpCSmrazcbv+kUKsKimO0MXDcb/gc2MvNbk5F2m2kTl4BwruSQS2oCokZ3Yy1wbmgI+whYZGFZ7DVImbsN5oBgOT6BMS8LIUtehtc3n8iS11IobucZEBQyK4UuGAfvE//N/yl44AlkjJ3HquIyX8Tk3vDQsHs2tbzKHDYDZVe34raNVcBgNsP33S0I2LYExpIiVjFuPt7CXRrAOTMVsX3bXTEWb5kKlVVReZVdkcGAvK7PI7vveFmXY5J/UhOk4mZndeC87Sdg0eTKo5qCsMTpBlEuEdxq8JrX4GQnpTxFt3dE2sx1zNOhV56mT98OQ0XZf2TobCVx9VHusyM6gI8e3lnpVrxh+41G5D/YCzn9JsjeJdc3gPsv34DqSbXaVVWPSzjkCZs/4/7BpJ29z7F9V5hPcDQSnBJHo9yo4Z3hFneO+VnRkrEs9mpkjpqDUo5z19r2uMb9iYiXe8MpL1stU+0rYNGsKkIikDzvHe5Dz5oeoRubgB3L4HdwI2BWH3mSx/v03l94XzdmkYZQRItvbY/U1/hfGwI3zYf/njXMNshlNPv4I+f58dKBMx3OKyHXuHPw37kC3lZKFObdEdHcqG6R6hfro7Rpq1F0JzuYoD1Uc9CZck7fccjv0hdVTk6yl9D1r1+kxhJO8tIX6hvX/gIWWWr2C0TSwj2oiGoq22EkSLuLoPVzbAZJS7/aF/f8yFWHFz3sEbhe/LP+L4GMhFuCM4kZeJ8mB/B1GVrl7AzTdTeBUEtLbu0A01UtLZ5zGYsL4fHTV/D47iQ8vz0hvWpZiyoCgpGw8SSq3Ny5hgyb+QK8Ttd/mcK7u3ZKT0YTSo2wBVXvkvuM5d5l1jaXmvvSWWP1JYSK07HPgCUFLR9/pM5cD1PLmxTPl+BXKUXAla0dtuLxqhUU3tMZ6S+/xazP9c9fED2me4P80pdr/XFUeXgx6yVGW9etEepBRXA4zCERqAgMk86inDJTpMDknJUKp2z1YZ5ZHZT28lvct18sjWzpNf7ijm9Q6RfEagoiR3eH+1+/MPOrwUhwxlmDpnAfN9Q1tufXxxD+2hA1zKpLh/0GLLKWtqRZg6dxlbM05CkKXH771/NWiMt2Pm9rs+Dl0+D7/g6L4+V16YusYTMs8tVmiHj5OWkXI+j/PcCdgvCvaNTIrnD7+zeLruStDvDbv0F6K9CaaBdc2KEb8h4fiLKmLZQPZzYjcOsiUJqRhmTfAevyTqVjd2SMnM29Za/PcXQj4//OW/A+eVgz31Z6eCFu389c+ps+cSPo1YiFkpYcgOna1iysl3m0bNDAZYgdMSes+Yh7Z8HRRw/lEbFSIior1XfryCpviY9eewlJNrfnYL72cg0odsrNQtjcEaB0HI1JHwGLnEAAYWkvL0MZJ+ZOQw6kL3DAO8vhffI9oLJSVV/z4l7x5kyVNbkGicuPAJwHo5yQtKr6xN6UUdkTob9ykdmM6KEPctUvJr25l+toI3Ls43A/9xOXWZaYqzw8QTvzvB4DpTNitYjOHCkNx0o5kPoJWORgekXM6TPuErwwx3WxpcVxTk+Gz0e74fvhTtXOUnhfB8NnDoLnafZfYpqTHJwqax/AW/K9rT6Xe9BO+WDBq9mbLND8eF/h/fatQ9CGN1RxDb3uUX6ZdHOrYgckg6lUOhf2PbxNFTsZlegrYFVPinJDMsYvlLbbahP1Q/Q+fgBeX30sW3Wlqxvi9v7E3LRAKnSmlmacuzx67Yzf+CkqOX8xtULnlO0wGwimTV6Gonsf5RrZmJeN2AEduJNXCU8sfutXzLthyugnrHO5RM8FBaiCh5/iRgFlGZM63YQsHA/KYLcy6TNgSbstVzepLIS2uGrutqoXgN7LqcWYz8d7uJs7FN77KNInL2NeS9/3tiJ41Uxm/pqMBZ16Xqqc56TI8U/C/Xe+/nGcQ9gtu9yD9pDFk+Dz8V5Z80p5fRNKbrmXWTZqVFe4nbd8qH9ZocGAkjZ3gSoiiu58ULXz3poGU49Qqtv1e+9tW9Xu6jdgVTuS6pvSx8wDdeTRiihBkOoVKT/I/TfL0CG81+RR45+A2+8/yDY/+c29KOVM/9AKgkb2JKwomLD2Y+5ie7dzPyFq7OOyrSy8vwfSxy9klmdJIq1y90DxTXejuO39KL6jEyi7Xisi7PXgFdN5OtxoYYr+A1a1V+h6NrvPOE1+WWp6nl7fvL76CN6nDoOaY9QmKlSOo2RRxiREykVq0vduRYtratoCSSuOWEzOrD1ITUgURQboSJh25QSRwkVVVVJ5U0MJvZb0SbfGhJPF2FXG5cI5xLx4JTICZaIX3f0wito9guK2HS0Nq/hzAtwLXj0TdFRiB+Q4AYucSTWIWQMnc2ERKVkEqpEiLCPvLz6A+8/fSKroFy919hZmtRI8jgqt1anbLh2ucpG5AtEvPgbXeHVbY3HZYEVmCVN/Jd2sOnON6ntku7S7UEq8sOCxfdpJSbUUpEpu64DCex+TBSsux25q7OFHBec7loEuauyEHCtgVTuVsLWy+44DIUdaC/pEKi358UuYvXxReuMdzOurVsGr2csHCZtOodLbl3lsYnT9+zdQEqTa3ZK5jLACM0HHJC09hLLm13ONZizMlyCM1aiJ46188Dx9HJVevlKZk5K6Pp4JU6CixsX0SkrnuHZGjhmwqp1MV7o5vUdb7VeJd3GdU+IRO1A9uOH8h59G5qjZvGbAnrGYuCdTj4CsnCsAwcumwPfDXaqYQbfHF3d9z3xcoMqgHEp8330bAbtXwUkdKBiOkZlZHTtg1Qxcub2GobBDF2bPyGK00O23ts6ArYulxFU1SU5DS8qpiRn2sIRd5IhEAJEEzcPbDFZm77wGXcgLn6z1ekg7qsPb4L9/nWo5iBra3DgC1uVXxahmyHt8EAo6dreLXzm3v36Rzr7c/jkLt/O/SugSSom671LQ4iUC+SOwP0ek5AW7UHrDrdxTk9k77z/jUJA0XXW9VKFhuqaVBJ9cEcqORCq9q2uA/k3nr1S3Sj0drZSlzu3/OgQaV8CqdgAdYtI1M2Uga5kOwbtClOdCgYuKal0piP19Fq4X/uBVA1kH8PT6s/Rl+B7dzT2ePQvIQRGl+dDrUfDqV7mmRjeBZde0kgKUqfkN0nmZ4sJixrb3rIZ6nDklVXTYya0fq9nVfI0zYNX0EsHXFHR64lLpgocnrwPl83M8iPRq4pJ04dK/lHipOYVzUly9v4wUkCnXyBwczmWfoagAMS/cD2f7O2zlmkc1c0VQmOQHXigep8xUxAx+AMbS4jrHJYzz8sgmoOYi9N9l0VehPPYaTSovZE28lhAVVFPCK5WfUR9EHZMIWNWLR3lT1BGEoH5LW92mizWlm0kq4KazJymQpf4bzFLiJYz81Nf523x5fvspqHecI1DK7LdRctOVeOuW5kbzd05PQkVYNMojm0qF9xX/BiiC8bY6yXwtJDQSClIeP3xhdZM1GlAErLocS91OqFlkwYO9UBHK2KmGY8ek0WJeodZYXIBKTx/u4erDKedWZEMBuTemlHNEGeR6JSq3ogYm9E9md2V7nroIWJZWhw5rCzv2QGH7xxrGKecJWDy8lgzU4HNDeRn8DmyAc1Ya6FzNWFYKQ2mxhNVlzM+Rmgqo2FhA1gzoR8XsGyghENDZUZW7pxRoqPEsvQrnde0HAqnjIntdFwt20e7a+5P98Plkv95f+SwtlwhYljxU83Oq16JsY83TI3iMsiFvdeAiFAOtG9lWubhKgHMUpAjbqbET+d77+EF4f3YEbn/82FjcIQKWnJWW6rnu6SwVnJa0aSeVTjh8qrgcRwkZVT1Areuo47XXl0cd6VyKx0ciYPF4qy5eeu1Ie2UVim/XvhBVqa1CXr8e8N/xFgK3LdHvBNSxXAQsNfxIWdTUeJKJbHVOIvOmiWlO9sIk17e28g2HvXSITlDEjZxEwFL6AEgdfgk2hJGMZSZQTZlNiOMLYhP7lAwqN+jY0CfGonypuJmFtG5OwWKDHfCIgKV0EegcK3U6W1dlqttq1v16KQO69LqbUNryZqkSn5IQBSnwgJJgZdSm9KWu2dDhOKUduJ/7UQKCpB+7RMIxY6TYPndJN7eNmETAUrr4PH3nqCwiYlr/K4as9PX//wDWog1KW7QRN2FKF8bG8pRR7kaB6dyPEpqs+x91I8rG7TqDSh9/JmtDZ78I7y8+ZOJ1UCYRsJQubMq8HSj5X1smNdQJhTqiWCSDAWUxzWFq0QYEAV167Y0ob9rCaphIFu0TDP/xAGFmUfmU258/Se25qCs0a0ExYf9TDwAWUrObDst4dsgjApaSRaFW5HEHfmOGLYkc1xPuCnJm6NWRKv2lWjb6GxZ9qZatybUNJ7UqmaSQlTxAnWxcqQwqPUn6b/rnQn/TkxTBsvC0AHP77TtETXiqMa+ICFhKVt/U/HokvfUek4rq8ysmZhlM5sBQ6aaSinClv1SQSwEtLLpubXLPfUibElkZc6tThGyg3rdyoFLrsZ8y+alHJRWXu8Sfh2vC+ct/CTNMCzJd3QpJyw4xqdb6GWIywrZMImAp8X/+Q72QOXoukwr3X79F5MSnmXjVZqoIiUBFSOSl3VloJMwBlDEeIB360w6tMZFLwj9w/+1bOOVlwTk749KOKSNZ+kuvdtYmaZe+/1dmfDapGUbcOWubaS/jiYClZCUyh85Afte+TCr8dq9GkArNJpgGY2SqMjohcfl70vkY54rExAAAFMlJREFULzkT1E1akvQ6THV8lKpR5eYhffHor1KoHupOZCgrhdFUKv2lomSpptFUirKoZhJ6Ai9J+PWjusFQpQEiHq8xNfiT39iB0tZs56Ah88fC59N3FYyma1ERsJQsX/L8ncxQNOGvDpZ6G9oblcc0R8Kaj2SZFTG1r9VLRIrufABp01Zz20sBL2b4I3YJA53dbwJyew1lmpP/3rUI3DiPidcBmUTAUrKo1H+Q0AJYqEnvtnDKyWRhtTpPfpc+yBzG33ma5hP9YmerdVeh19nEFe8z+7ymI+0ZMoe6O6VNXcG07p5nTiG8jtQYJmH9M4mAJXcNCd4kftMpJnFK9qOkP3umtCnLUXT3I9wmuv9yGpGTnuGW4xWgV8+kRftQdlVLXlF4H9uP0EUTuOWsJUAXI/GbTjINRwXQTez8WWKaiDwmEbDk+Q0ovrU9Ul/byCTu+dXHCH+dbcvPpFADJsKUSnzrXVRE8iNqUiOD4LWzNLDq/1WmTVyMog5duceg277oEV1gqCjjlrWmQNzuH5h7SjbteSOMJYXWNM9exhIBS+5K5HXrh6wh05jEA7cuhr/K7byYBuZkooYJiSvf55S6xB46bzQIklcLkttIgg7oo0c8JmHh2zulzNqCkpvvZjJTjW4+TAPZH5MIWHLXhKczTdjrQ+H11cdyh7KqXP6DTyJzzBvcY9KhdtTYx+F68U9u2YYEqEwpecFOwNmFW6+eSlmyXpiKvB4DmOYYOn8svBvnTaEIWExPSB1MKXO2oqQN27kUdaJxSYqTO5TV5dImL0MRY7lITeOc0pOlmzhKwFSDzH6BSFj1ISr9g7jV+b63FcGr+C8SuAdSSYAnpy9g+1IEbF+m0si6UiMCltzlit/yOSghk4Wu6tychc1ueCiXKmnpIXaMrxqWq3mLlbxwN0qvv4XbL65/n0X0SI27fHNb1bAAoXckL9rLpJWgkUMXjmfidTAmEbDkLug/77N1aXY7T8mK/IfFcu1SS648qhkSl70rCzUiYMdbCFCIjklpFpRuwUuUrU7Bimr99ESVnt6I2/sTk8kETRPZOGsKRcBiekJqMfFcQ3ufOoLQN0bJGcbmMoQiQGgCcihs1jB4fSkvIbXggSeQMVZeciT1FKTeinqki+98C3oNtkQEXRPb/15LbI74uQhYclaV4GQIVoaF/HetROCWN1lY7ZInc/AryO9+JYaXJWPphi5y7ONw46x7K2l1O1LmbgOcnCwNccXnesc9pzwzghOySFVVaPbo1bLqvi3qtm8GEbDkrE/B/T2QMX4hk2jI4klSm3C9EhXnUgflUsYLhprzdMrOQNTo7nDOSmWaPsHnJC47hCoZzV89vz6GsNeG6PpLnD5xMQoZc81in78bzhkpTH51ICYRsOQsZu5Tw5H9PNuhJyE0EFKDnonKj+gQXg6Us+uFPxD10pNSQ9aGiFBXk5YcRLkM9AhpjHE9pcJoPVPOc2OQ8+xIpilEjX9CQjJtZCQClpwFzxw6Hfldn2cSjel3D1zSk5l47ZmJEBIIt6nKw4vbTI/vP0f4tH71oiRUOTkjef47MLW8mVs3oTpEv/gonDP1v9vIf/gpZI6aw+QD2k1Sj8JGRiJgyVnwtIlLUNSB4dqczhq6tICh0ixnGLuTKb6FypE2AAZ+1Dy/AxsRtG52nXOSW3YDs1nCGKPGDo5Axbd1QOqrG5imErxkMnw/2sPE60BMImDJWUzWpFE6w2ny3B1yhrBbGYJBITgUOVQXYkLOMyOQ02esHHUIXvoyfI/uliVrj0KmZtchibGLTuDmBfDfzQ+zY4/z5rBJBCwOZ11mTVx+mAk1wO2vXxE1upucIexaJn3SUhS2f0yWjeHTB8Dzu0vIBIX3dUP6hEWy9Pge3obglTNkydqrEKU0UGoDCzXShhQiYLE8HLV5Lm7+DObQSIuiHj9+iYgp/MmPFhXbmKHK2RVJi/eirPkN3JYQLnnExKelBqIS2oWM9AXqSkOvgoZKAnV3HKIb2QtHzjNNyOfDXQhZNoWJ14GYRMCSs5hxO8+AbrUskdfnHyJszouW2HT5eYV/kHSrxxK4a0/QUFyIKhdXgP5xkkviBUSO7QGnogJOSX2wXzh4lqkLk9eJdxG2QN6rtD48UaeVImDJWbx/Dv4OuFr+svkc3Y2QpS/LGUIXMuXhsUhash+VvgFWsdcpIxlRY3vCOTvdKuPZYpCL27+BOSDY4tB6wFizOAl+BhGw+H0GsNYR+u3fgKD1bNfUcuywBxlqdZa8YDeq3D0sm6OgNZcxPxdR43vqCvXCskOu5EhYf5wp383jzGeImNZPzhB6lhEBi3f1qjw8cWHfL0xidItDtzmOTqWt70DyG9s1m6ZU5jPxabj9xeZ3zQyxgmJqCEKNQSyRtaCpLdlh5c9FwOJ1eKW7J+L2s31xAt5ZjoCti3mH0CU/4cETLny9RJ21+NO3JHW26M5jq0UgxFdCfrVE7j9/g8jJz1pic7TPRcDiXVGegKUXaGReH9THn//IM8gcWQe2u4JgFfbGKHidOqKWiXavhzqJ02u2JRIBq24PWfxNbNasWWuDwcAG5GNpFXTwOU/A8t++DIHbl+pgVuqZmNN7NHJ6qwOnE7JoAnyO7VfPOB1oSljxPsqbseywvkbk5N46mJGqJoodFq87uc6wdq1C4BY2VAdeO+yZXwLf69oHoDQpiz95dc+EXqXplbqxUcK6T1AeZblzkccPX0ivyo2MRMCSs+DMt4QN1M/JGVcvMhW+AUjYcAJVjE1ma8/LmJ2O2AEdYCwz6WXKqtl5ccvnMDNAb1MXceom3shIBCw5C063hLTTskS+7+9A8HK2VmCWdOnlc8ohSp67HeWxVysy2f3sGYS/0g/G0oZhaRQNYofCrEnJ3icOIXTBODucgaYmiYAlx72sULZen3+AsDkj5AyhSxlzUNilYBXdTBX73f74ERGvPK9aFx5VjNJYCevu3feDnQh+a6rG1tidehGw5CxJ/MZPUcEANOfxyzeImNQ4rp7JHxSsKsKi5LgUqOcmkcD5Il5+Dk75OfL06kjKHBiCi9u+ZrJYFD/X7SaLR6aN7ZaQ3JS0eD9MLW60+GC5Upv0oQ9Z5NM7Q1ns1UiZ9w5TAwU5c3VJ+BuRU/rAKStNjrhuZMquaglCAmGhwI3z4L93LQurI/GIHZac1UydthrFdz5gWbTchKu6Wc6psazIfjlMTVsgZf5OVHr7amokNWmNmtDLoXHMi9o9hLSpK5n8GLJgHHxOHGLidSAmEbDkLCZPm/omfe5y2J0BNTlNfX0TKmXAJkt+50wodcpKR+SU50A7Lkek3CcGI3vAJKapUQ6W+89sr49MCvXBJAKWnHXiaUIRMbk3PBzwwSq5+W6kTl/LBIUix8f1yVARdOTUPqDuzo5G1IuRejKyUMygjnBJvsjC6kg8ImDJWc3Cezoj/eW3mEQDN82H/541TLx6Ycrr+jyyB01BlbOzLJM9vzgqnXeZWt0mS95QWiw1p/U6fUKWvL0KJaw+ypYOYjajWbfrHA7AkGFdRMBicNIVLKarWiKJ8XCUvpzhs4fLGcbuZAhpNH3iIlChs1zy+WgPqIECnF2ROn0VSm7tIE9VVRX8d68C1WvCAZBH6bU6bt/PTL6gV+KYIQ8y8ToYkwhYcha0ys0dFw78xiRK1/FNnr6VideemSpCI5E2bQ1TYW598/A7uAlBa/9bHK0EH57GIVyosHmjYCzMt2f3WbSNp2OO11cfI+z1oRZ1OiCDCFhyFzVh46fMTT+pbx7lE+mV6LwqbdIyVPr4yZ5CQ7WBGSNno+CRp2Xrdk5LRPisYbo+18oaOh30qs1CjQm2qJY/RMBieUDq4kmfvAyF9z7KJB604Q1Qop8eiToRU0diJUTdbajLTUNErcOohZgSClkyGfTKqUdKWPsxyqOvYjI9fOYL8Dx9nInXwZhEwJK7oLnd+yN78CtM4q5//YLo0d2ZeO2FqSIgRALkM90g/3XWUFIkvbp4/vgl07QKOnRFxvgFgJO8w3wahLCzKHDpqQaxLOZqJK45yuQjYqIjhsaQ+V+HQ0TAYn5KajGaWt6EpDf3MotHje6uG4jf4js6IX3sfEWvgPSaFjF9AHfOVOl1NyFt5nqYGboS1ed8Gjts7ki4/cl2iM28iBoxZoyei4KHejFpp1QGSmlopCQClpKFj9vzIyoZIVS8PzmA0DdfUjKc5rJVrm7IHDJd0XkSGUl44+Gzh4FypuQQ1SOmzliPsqbXyhG/LKMHTC2zfxDiN50CXeSwkO97WxG8aiYLqyPyiIClZFXTJi9DEeM5Fo1DGE/OqQlKhtRM1nR1K6RPXKIYaYHOkOiVTCkRsmv6lOUovrW9IlUEJRy6cBycM1MV6dFKOGvgy8jrOYhZfc3O2cxCjsMoApaStSy8vwfSx7MjihLcL8H+2hupceBNcwpaNxt+BzaqOr3sgZOR2/MFRToNpSUS8qvfoc2K9KgtXBEUdgno0NWNSbWhpBjNev6PiddBmUTAUrKwZi8fxG//hvmBo7GoTbvHr98qGVY12dIWbZA+cTEqImIV6TTmZSFs9gh4/HpakZ76hAvbPSwdxle5WwZNbMgAtz9+QOj8sXCxk11u8pytKG1zF7PPvD99V7K/EZMIWEoXn16jCjt0YVbjkhKPqBcftektFqGlZg2YjPxHlTcxcP/tO4TNHQGn7AxmH8hhJAibtOlrmZqMWtIfuHmhlCVvSyrs9DjSx/H1rCRcMI+fvrKl2bYeWwQspStQfFM7pM5+m0uNx5lToLMIQxXBFViPqpycUPDIM8h5egQILE4p+e1bj6DN8wGzWakqJvlKNw9pp6WkNKh6IMIqC9iyEJQ1bm2i88KkN3cDLmyvgmSfc1oSYvrfK7enh7WnqNV4ImCp4dnE1UdBOwAe8v70PYQsnQzqamwNKryvm5QAWq7w9Y9sNZYUSwfZnjb4stP4+Y89h8zhr6riNrfff0DQlgWgw3lrUGmr25D2yiqYfQO4hgta/Rr83t3CJeOAzCJgqbGoFAzSJyziVuUadw5hs4fDJSmOW5ZVgHKqsvuOV5wicHln8vdZqZjb1redpmtbS2B3FQwdZlh85Xn6BAJ2LgfhyGtF+V2fR+bQ6dzqnXKzEEu7Kyv9uHEbaD0BEbDU8nXC+uOyzlfo5idkxTR4Hz+olikwXdcGhR26ovDuzqq8+lUb5m9nfRYJ5TRr8Cso6NRTNd+5JF6A98l3pfWg80a1KPeZEcjuI+/AXM+lXWr57189ImCp5dCiezojjREjq64xqWFFwNuLQIfYcqj0hltRfPM9KOrQVZXXvpo20HlPyMLxcDv/qxzTNJehXK2M0W/AHBSq6lhu536C92dH4PH956DdsByidaFu2CUct4E1x6H8sdi+7eQM7YgyImCpuapUqkMlO0rI7e+zoOtrgr91zkyBU07mZXWVnt5SZn2lp4/0lw5vS25qh5LWdzL1SZRjl16QAcgfWUOmqbrbqukvp7xsULdlKjp2SUuAoagARvpXXAhjSdFlVrrMqAiOQEnrO1DUvosiOB5SSmkM9DwIkjwgApaaDwKdqyQtOaCmSpvpIjic0EUTdAfZUnLLvUgfM0/13ZYtFsL99+8ROf5JWwxtr2OKgKX2yuQ9PghZg15WW63V9NFuIWD7MvjtX2+1MdUeiHaidGakNENebbt49BkL8hAz/BGHbWDC44savCJgyXRcg2JpU1ag6O6HtVCtqU7CrKKCYacCeUXLmhonQ3l5eIyEPV90l/7ghCMnP2u1VAsZrrWViAhYWni+ytkFKbPfRun/btdCveo6Pb8+JtUBqnkrprqRChSWtrgRmSNmoay5DnpEms0Im/0ivL62fkKrAhdbS1QELK08XeXucSlotbxZqyEU63X761cEbZjTaH7JCSGWCr0rwmMU+04rBaHzxsD75Htaqde7XhGwtFxB2mlRrzlKLLUbqqqC57efwn//+sbYiBMwGlHU7mHkPj4IphY32s2yUBONsFdfgIfMtBa7mYi2hoiApa1/L2nPIzjlvuNBuy5bku8HO+G3b21jbMBZp9vplT2vaz9Qi3hbEjWFDZ81VKoXFNSgB0TAstYDQsiShJBAVfrWJPoS+Hy8B75HtoNyiQRd6YHyyCagspnCDt0UQTPL8S3hh9H5oSAmD4iAxeQmFZlMza9HzvMvKUbSbMgkwjT3PnUEXqcOgxJRBTF6wGhEyf/aovDex1Dc7mFNg5fndycltAixPoxrc4lNBCwud6nITBnxeV36oqhtJ8VZ6oYyk9Tgwv3sGel2iRAIBCn3ADU3Lb7tPuniRI0bRqob9frqI/gd2SbWSN7yiIAlz2/qShW3vR8lrW5HedNrURbVrMFbLALKc87JgEvSBSlAEYqmXrrDqOs162qj80dCaDW1aCMFsIqwaJgDgmH2C6zXEEoTcUmOg0vcOVCtKCFCCFLkARGwFLlPQ2H6IlT6BsDs7QdjWSmccjI0R/XUcDoOrdocGIqKgGBUubpLSbfGglxxXqjNiouApY1fhVbhAeEBDTwgApYGThUqhQeEB7TxgAhY2vhVaBUeEB7QwAMiYGngVKFSeEB4QBsPiICljV+FVuEB4QENPCAClgZOFSqFB4QHtPGACFja+FVoFR4QHtDAAyJgaeBUoVJ4QHhAGw+IgKWNX4VW4QHhAQ08IAKWBk4VKoUHhAe08YAIWNr4VWgVHhAe0MADImBp4FShUnhAeEAbD4iApY1fhVbhAeEBDTwgApYGThUqhQeEB7TxgAhY2vhVaBUeEB7QwAMiYGngVKFSeEB4QBsPiICljV+FVuEB4QENPCAClgZOFSqFB4QHtPGACFja+FVoFR4QHtDAAyJgaeBUoVJ4QHhAGw+IgKWNX4VW4QHhAQ08IAKWBk4VKoUHhAe08YAIWNr4VWgVHhAe0MADygNWWFiYl4eHx20aGCdUCg8IDwgPXPZASUnJt2lpaUUNucQg/CU8IDwgPKAXD4iApZeVEnYKDwgPQAQs8RAIDwgP6MYDImDpZqmEocIDwgMiYIlnQHhAeEA3HhABSzdLJQwVHhAeEAFLPAPCA8IDuvGACFi6WSphqPCA8MD/AZXcTCvEII9CAAAAAElFTkSuQmCC;" parent="1" vertex="1">
          <mxGeometry x="503.23" y="-1050" width="210" height="210" as="geometry" />
        </mxCell>
        <mxCell id="QDwMkbps9LbB6PQ0rVGC-2" value="&lt;font style=&quot;font-size: 72px;&quot;&gt;&lt;b&gt;Frontend&lt;/b&gt;&lt;/font&gt;&lt;div&gt;&lt;br&gt;&lt;/div&gt;" style="text;html=1;align=center;verticalAlign=middle;whiteSpace=wrap;rounded=0;" parent="1" vertex="1">
          <mxGeometry x="110" y="-1110" width="210" height="30" as="geometry" />
        </mxCell>
        <mxCell id="QDwMkbps9LbB6PQ0rVGC-5" value="" style="shape=image;verticalLabelPosition=bottom;labelBackgroundColor=default;verticalAlign=top;aspect=fixed;imageAspect=0;image=data:image/png,iVBORw0KGgoAAAANSUhEUgAAAGAAAABgCAYAAADimHc4AAAACXBIWXMAAAsTAAALEwEAmpwYAAAIA0lEQVR4nO2deWxVRRSHf6WAVihaoWjBBUUkiAgYNWoQMaYqomETBXHBheCCBmNQI2gAQWMEIxJQAY37gqAom5EQIjEKCKKiFpAdRUQtFEoB6es1E89LXirvnjNzZ946X3KS/tE7y5l7ZznLPMDj8Xg8Ho/H4/F4Mo8iAAMATAawAsCvAGoAHAKwG8DXAF4C0A9A03Q3Npc4DcDLAPYCCISyH8BUAGemu/HZ/sY/R294YCiHAUwEcFy6O5NtnA/g5wiKry/rqEyPgN4ADlhUflwOAhjoRyCcOwDUOlB+XGIAbvGDcHT6OFZ+XGppp+RJ4EKaIoIUSTWArn4E/uN4AJs0lPcjgAcBdATQBMAJADoDeARAhUY5mwE084MAvCNUWCWAIQAKQpTWAMD9AKqEZb6R7wNwlVBRvwA4W6NcdQDbKCy7J/KUY0ixgWAPX2pQfmth+esBNEIeMlygnL8BtIlQxznC6WgY8oxjyZjGKeZ6C3UNENSzg77IvGGoQCnvWqxvrqC+25BHfMsoowZAmcX6TqUyw+pchTzhIsHbONVBvZMF9XZBHvCiwFTQ1kG9ZYLTtjJ/5zTqELWNUcJbaTz0qbblNBcIpoEeDusvF9R/HnKYx5jO/wWgocP6laliIbksk7VBtTFnWcgMwOspakchgE4A7gIws96ZZAFylELBqbRvGtcmNT2OA7CUvpScoz2j/DpvHnZLP2YANjmuP+95ghmAuXmvIce8xgzAWGE5ykA3B8BOivv5DcBsANc5bn/W8xkzADcwz5cIylhALkrPUfieUd5lTJTcSsEhKqCYIuW+3EL+48UA3gQwCkB/Tc9aTrGTUVznkGefFSpfKn8C+BTACADtkCdUMkppk+S5YoEpOaqspzUop78OToklIQFbQQrlKwCDATRGjhFjOt4wyXMPp3gA4rKT7EI5k2vAhZkXZ9gAJK4Xj9JGIKvh7ECtM2QKSiZbqC1Zyy6mgx2SPFfsKFzdVJRF9yxkIT8xHbs45NlnNJU0jszNPSnk/UkAHwP43dIgHKDIjqxiCdOpPiHPFlFinkQ5X5DpOxmnAxhE7sl9EQdidsjuLePg/LGjmOeViWE+U8YszcWyiE7HsyLkom3LBDdmOUUlhzGW6ch7wrp6AfiQvFgqymEDgA8AdI/Yh1YUFWHyVahnrkGauB3APwJ34s1MJ9YiM1BTymiKS9UZhCPpiDEdRp4s1YDlzP92ZTpwOMP22s0BvCI4QNYXFXScEoYmKF/JHub/Gwm2k9ci81C+4h80BkDp5O50JdRx8ZzL0hCSaCuae3K9Fy5MYrTTchbbmexNVjuKMCYwDd+KzKaXRvpTjYvk8BYAtodUOoV5vpug4V2R2XSkBD/JIGw1zO5JGjuzIOJOpqHALzAT7mkJYDyANZSyWk0h808JFdaSnpUMwudMYqGYe4QLUGlE5/xBm29NkoyZsL1+lWAqje+SvhMOQuRF+RThdTEqtudEpqwrBOWMhjvlSxbSOuEgtBDYuAL66stc5/LuCbFoJtJAOIdWa04LkmlD55RbJay3rfDQZpxy1UVwGIlRzq+UERqKCDSmhTDGa9apE6t0peCeixhlbWrzkaChL2iW2UzzBqxAY1pIhnS+ThT1BUqRRG6omUSLNoKRXWdoQuBCFYMI08LRMDWy6RzWKmynXz0taKRpSGBTgZcsiDAt1EfXuBZQIocOVwvKVM4hMRsEIRxR+MbxtJDIcoO61F5fly+ZMtWuScS5ggaqo3kUqh1PC4mMTNHX1lNQrtJt5LscdlvI59pnuA6Y0Faznj20ddWlUDC1ikzWb6fAcik9zgcJstpQKYs16qiNuOOaYiMVl4tGtnED4TiDARhjUM9EjfL3WrhT7iamDqVblj+YQiSnXo5SDfNuQMpRx38dhmgG6No4dXdg6lK6ZeHS+m3FTPYX2mdiBpFpQ4Q3MW63nNjRVOArYKk1jOU0HYQq5s3va+Aylfhz6yiqwybFAgc+C2e3V2EcNimlNWE1HYD20d9jNaedArpBUeo+VDYi27Ri6lS6ZVnHFKKuGM40mgltV3FZ5CgpuzdTr9ItC9eRacgsOtFCKlX+Grqz1AXTmLqVblkeZwo54NhzpWMEG6MZWqgcRyfDDaWC8BvRhSBcIJWS6Ugv5QJ7VX3ZSD8K4YpXbQUeFAjv8L8Tqaez5lwfl4qQRJBUXUZYoeOkf0BQYCyF4XjdKc5fusNJlKUCf3UURgq3vUqnYoqYOKBEmePo0z6JGm3i0YrLDIdZjypb5hNhO3aYOK9u1OjoIfrBHXUdfdSj/ENkQIvymwLVDu8DvZRimHQWf+NwRS6WJ1lUmHruXgpFaZew7SugMHBlIr4EwK10IJpPWYmBBVmhaa9qREptTwe/kgTpQEEH95GVmLt40PptYE00I4TTKTWUVlqo2b9FDtu01obtrDQLBmEegDM0+1UicCNGkQqbtwCXaiTLpVKWAbjcMOJPEtlmKisNvWqhNCYHh8lW0LYsoaAoE7oJb3A3kTrSkdP7JnrQhdepVvp+OoEr248JcWvpEUftW+X48tn/dWagxmVKpnKIMtQH04JpSnNaJ1wpfpCtUHQT1Bs5ydJPENZROTPIWVNsMbtnEsUW6SbfJVtgn8+EPOH6lNGXoSKb3yfHymZyRBymxleSb3QtbQGnU9BuOb2primmdWA4mY/n0S5vF4WkBHQIrKR9/xpK6J5AKbe2HVIej8fj8Xg8Ho8H+cW/dcOrMDrCnOAAAAAASUVORK5CYII=;" parent="1" vertex="1">
          <mxGeometry x="75" y="-685" width="200" height="200" as="geometry" />
        </mxCell>
        <mxCell id="QDwMkbps9LbB6PQ0rVGC-6" value="" style="shape=image;verticalLabelPosition=bottom;labelBackgroundColor=default;verticalAlign=top;aspect=fixed;imageAspect=0;image=data:image/png,iVBORw0KGgoAAAANSUhEUgAABLAAAASwCAYAAADrIbPPAAAABGdBTUEAALGPC/xhBQAAACBjSFJNAAB6JgAAgIQAAPoAAACA6AAAdTAAAOpgAAA6mAAAF3CculE8AAAABmJLR0QA/wD/AP+gvaeTAABqTUlEQVR42uzdd5iddZ3/4c+ZXjOZTHonCSkQSAgCAgooqKCIiqgrroi6ihXZFdTddd1dF931ZwWxoKtiw1UUVIogdgQFBAIBEtJ7LzOZ3s75/RFEiQmkTPnOOfd9XVyEIST6nsnMnNf1PN8nEwm59uaNVW3F3S9t6ex+bkt79timtu7pO1t6RnX29JZ29uSK2zp7Szq6ejPdvbkAAAAA4OCVFmeioqw4V1Ve3FNekumtKC3urq8u2VpXVbqyprLokZrSknuqcmW3X/Ly8W2p/G/ODOZv/oMfPFa2rqrmtTtbO8/f2tR1wuKNrRNaO3ozPpQAAAAABk9FaVHMGFO1c1x92aIRNeW31ReVXzOYQWtQYtFnbl31ivU7uz60cPXuE3e1dhf5sAAAAABIV21lSe6YSTVLjhhZdc3l50394kD//gMWsL5wx4ZJ63e1fvnRdS1nrt/RUe5dDwAAADD0TGyo6Dx6Ys0vpoyuvOSdZ07aMBC/Z78HrGtuXT9zbWPLV/64fPdpze09bg8EAAAAyAOVZcW5E6fXPTJzdPVF7zpn0iP9+Xv1W1D67O2rx63d2n7TvcubTmrvynqvAgAAAOShytLi3Mmzht87aWzpKy87a9qW/vg9+iVgffymlf/1m8U7P7Rtd1eJdyMAAABA/muoLe193qz6r/3HBTMu6etfu08D1ufuWHvaAyuafvTo2uaR3m0AAAAAheeYybXbjz9i2Kved86U3/fVr9lnAetjN634+B2P7PiQc64AAAAACltVWXHunHkjr/rwq6f/Y1/8eocdm66+bdmwldt6f/e7JTvn5XLeQQAAAADsccrM4YuPOmLkie9+weiWw/l1DitgXX3bmqN+v3TXfcs2t1V7lwAAAACwtyPHVbecNqPh+Pe8bOLSQ/01DjlgXXXH6lN+8fDOX6/f2VHmXQEAAADA/oytL+8+++iGl7zv3Km/PpT//pAC1mduXfWK2x/e/qNtu7uLvQsAAAAAeDYNNWXZc+aP+Lv3nzvthoP9bw86YH32ltXn3/TA1h86rB0AAACAgzGsqiT38ueMOv/ylx7x44P574oO5idfc8e6k372yLYfiFcAAAAAHKzdbT2Z2x/a/sOrfrbmeQfz3x1wiLrm1vUz73hs6yJnXgEAAABwOMbVl3e/ZP6oBe97yeRHD+TnH9AVWFfftmzY75Ztf1C8AgAAAOBwbdrVWXr34l33fOHXW2sO5OcfUMBavrXnrmWb26rNCwAAAEBfWLa5tXbZuh2/PZCf+6wB6+M3rfyv3z+x61izAgAAANCXfrd414KP3bjif57t5z3jGVifu2PtaT/6w+bftHQ4tB0AAACAvldbWZJ79XNHP+99L5l6z/5+zjNegbVwRdMPxSsAAAAA+ktze0/mTyuaf/JMP2e/AevKH6347MNrm0eZEQAAAID+9Oja5pHPdCvhPq+u+uztq8fd9sC2ddubu4tNCAAAAEB/GzWstPelJzZMuOysaVv2/nf7vAJr7db2m8QrAAAAAAbKtt3dxes3d/1oX//ubwLWl3++7sh7l+0+0WwAAAAADKR7ljaees2t62fu/fa/CVjLt7Ze197d6+B2AAAAAAZUe1c21ja2fGXvtz8tYH3pl+sm3Lt898nmAgAAAGAw3LOs6bQv3LFh0l+/7WkBa+229q+0dPS4+goAAACAQdHa0ZtZv6v1i3/9tqcFrEfXtpxlJgAAAAAG02PrWl701//8VMD65M2r3rx+Z0eZiQAAAAAYTOt2dJR/5tbVF/75n4v+6l9cZh4AAAAAUrBme/vlf/5xUUTED37wWNmitS1zTQMAAABACh5d2zLvP36dK4l4MmCtqax6Q2Nbd5FpAAAAAEjBztbuomFta14b8WTA2tnc/TqzAAAAAJCSbc1dr494MmBt2NX5HJMAAAAAkJJNOztPiogo+sKvt9Ys39LaYBIAAAAAUrJ0U9vIa2/eWFXU1dr24vaurEUAAAAASEp7d2+mtbj7zKKW7p5TzAEAAABAito7ek4tam3PzjMFAAAAAClq6eidX9TY1j3NFAAAAACkqKm9e3pRY2v3SFMAAAAAkKKdrT2jitq7smWmAAAAACBFnV295UUd3dkSUwAAAACQoo7ubElRR0+22BQAAAAApKitO1tU1N7ZmzEFAAAAACnq6MoWFXX35iwBAAAAQJK6erJRZAYAAAAAUiZgAQAAAJA0AQsAAACApAlYAAAAACRNwAIAAAAgaQIWAAAAAEkTsAAAAABImoAFAAAAQNIELAAAAACSJmABAAAAkDQBCwAAAICkCVgAAAAAJE3AAgAAACBpAhYAAAAASROwAAAAAEiagAUAAABA0gQsAAAAAJImYAEAAACQNAELAAAAgKQJWAAAAAAkTcACAAAAIGkCFgAAAABJE7AAAAAASJqABQAAAEDSBCwAAAAAkiZgAQAAAJA0AQsAAACApAlYAAAAACRNwAIAAAAgaQIWAAAAAEkTsAAAAABImoAFAAAAQNIELAAAAACSJmABAAAAkDQBCwAAAICkCVgAAAAAJE3AAgAAACBpAhYAAAAASROwAAAAAEiagAUAAABA0gQsAAAAAJImYAEAAACQNAELAAAAgKQJWAAAAAAkTcACAAAAIGkCFgAAAABJE7AAAAAASJqABQAAAEDSBCwAAAAAkiZgAQAAAJA0AQsAAACApAlYAAAAACRNwAIAAAAgaQIWAAAAAEkTsAAAAABImoAFAAAAQNIELAAAAACSJmABAAAAkDQBCwAAAICkCVgAAAAAJE3AAgAAACBpAhYAAAAASROwAAAAAEiagAUAAABA0gQsAAAAAJImYAEAAACQNAELAAAAgKQJWAAAAAAkTcACAAAAIGkCFgAAAABJE7AAAAAASJqABQAAAEDSBCwAAAAAkiZgAQAAAJA0AQsAAACApAlYAAAAACRNwAIAAAAgaQIWAAAAAEkTsAAAAABImoAFAAAAQNIELAAAAACSJmABAAAAkDQBCwAAAICkCVgAAAAAJE3AAgAAACBpAhYAAAAASROwAAAAAEiagAUAAABA0gQsAAAAAJImYAEAAACQNAELAAAAgKQJWAAAAAAkTcACAAAAIGkCFgAAAABJE7AAAAAASJqABQAAAEDSBCwAAAAAkiZgAQAAAJA0AQsAAACApAlYAAAAACRNwAIAAAAgaQIWAAAAAEkTsAAAAABImoAFAAAAQNIELAAAAACSJmABAAAAkDQBCwAAAICkCVgAAAAAJE3AAgAAACBpAhYAAAAASROwAAAAAEiagAUAAABA0gQsAAAAAJImYAEAAACQNAELAAAAgKQJWAAAAAAkTcACAAAAIGkCFgAAAABJE7AAAAAASJqABQAAAEDSBCwAAAAAkiZgAQAAAJA0AQsAAACApAlYAAAAACRNwAIAAAAgaQIWAAAAAEkTsAAAAABImoAFAAAAQNIELAAAAACSJmABAAAAkDQBCwAAAICkCVgAAAAAJE3AAgAAACBpAhYAAAAASROwAAAAAEiagAUAAABA0gQsAAAAAJImYAEAAACQNAELAAAAgKQJWAAAAAAkTcACAAAAIGkCFgAAAABJE7AAAAAASJqABQAAAEDSBCwAAAAAkiZgAQAAAJA0AQsAAACApAlYAAAAACRNwAIAAAAgaQIWAAAAAEkTsAAAAABImoAFAAAAQNIELAAAAACSJmABAAAAkDQBCwAAAICkCVgAAAAAJE3AAgAAACBpAhYAAAAASROwAAAAAEiagAUAAABA0gQsAAAAAJImYAEAAACQNAELAAAAgKQJWAAAAAAkTcACAAAAIGkCFgAAAABJE7AAAAAASJqABQAAAEDSBCwAAAAAkiZgAQAAAJA0AQsAAACApAlYAAAAACRNwAIAAAAgaQIWAAAAAEkTsAAAAABImoAFAAAAQNIELAAAAACSJmABAAAAkDQBCwAAAICkCVgAAAAAJE3AAgAAACBpAhYAAAAASROwAAAAAEiagAUAAABA0gQsAAAAAJImYAEAAACQNAELAAAAgKQJWAAAAAAkTcACAAAAIGkCFgAAAABJE7AAAAAASJqABQAAAEDSBCwAAAAAkiZgAQAAAJA0AQsAAACApAlYAAAAACRNwAIAAAAgaQIWAAAAAEkTsAAAAABImoAFAAAAQNIELAAAAACSJmABAAAAkDQBCwAAAICkCVgAAAAAJE3AAgAAACBpAhYAAAAASROwAAAAAEiagAUAAABA0gQsAAAAAJImYAEAAACQNAELAAAAgKQJWAAAAAAkTcACAAAAIGkCFgAAAABJE7AAAAAASJqABQAAAEDSBCwAAAAAkiZgAQAAAJA0AQsAAACApAlYAAAAACRNwAIAAAAgaQIWAAAAAEkTsAAAAABImoAFAAAAQNIELAAAAACSJmABAAAAkDQBCwAAAICkCVgAAAAAJE3AAgAAACBpAhYAAAAASROwAAAAAEiagAUAAABA0gQsAAAAAJImYAEAAACQNAELAAAAgKQJWAAAAAAkTcACAAAAIGkCFgAAAABJE7AAAAAASJqABQAAAEDSBCwAAAAAkiZgAQAAAJA0AQsAAACApAlYAAAAACRNwAIAAAAgaQIWAAAAAEkTsAAAAABImoAFAAAAQNIELAAAAACSJmABAAAAkDQBCwAAAICkCVgAAAAAJE3AAgAAACBpAhYAAAAASROwAAAAAEiagAUAAABA0gQsAAAAAJImYAEAAACQNAELAAAAgKQJWAAAAAAkTcACAAAAIGkCFgAAAABJE7AAAAAASJqABQAAAEDSBCwAAAAAkiZgAQAAAJA0AQsAAACApAlYAAAAACRNwAIAAAAgaQIWAAAAAEkTsAAAAABImoAFAAAAQNIELAAAAACSJmABAAAAkDQBCwAAAICkCVgAAAAAJE3AAgAAACBpAhYAAAAASROwAAAAAEiagAUAAABA0gQsAAAAAJImYAEAAACQNAELAAAAgKQJWAAAAAAkTcACAAAAIGkCFgAAAABJE7AAAAAASJqABQAAAEDSBCwAAAAAkiZgAQAAAJA0AQsAAACApAlYAAAAACRNwAIAAAAgaQIWAAAAAEkTsAAAAABImoAFAAAAQNIELAAAAACSJmABAAAAkDQBCwAAAICkCVgAAAAAJE3AAgAAACBpAhYAAAAASROwAAAAAEiagAUAAABA0gQsAAAAAJImYAEAAACQNAELAAAAgKQJWAAAAAAkTcACAAAAIGkCFgAAAABJE7AAAAAASJqABQAAAEDSBCwAAAAAkiZgAQAAAJA0AQsAAACApAlYAAAAACRNwAIAAAAgaQIWAAAAAEkTsAAAAABImoAFAAAAQNIELAAAAACSJmABAAAAkDQBCwAAAICkCVgAAAAAJE3AAgAAACBpAhYAAAAASROwAAAAAEiagAUAAABA0gQsAAAAAJImYAEAAACQNAELAAAAgKQJWAAAAAAkTcACAAAAIGkCFgAAAABJE7AAAAAASJqABQAAAEDSBCwAAAAAkiZgAQAAAJA0AQsAAACApAlYAAAAACRNwAIAAAAgaQIWAAAAAEkTsAAAAABImoAFAAAAQNIELAAAAACSJmABAAAAkDQBCwAAAICkCVgAAAAAJE3AAgAAACBpAhYAAAAASROwAAAAAEiagAUAAABA0gQsAAAAAJImYAEAAACQNAELAAAAgKQJWAAAAAAkTcACAAAAIGkCFgAAAABJE7AAAAAASJqABQAAAEDSBCwAAAAAkiZgAQAAAJA0AQsAAACApAlYAAAAACRNwAIAAAAgaQIWAAAAAEkTsAAAAABImoAFAAAAQNIELAAAAACSJmABAAAAkDQBCwAAAICkCVgAAAAAJE3AAgAAACBpAhYAAAAASROwAAAAAEiagAUAAABA0gQsAAAAAJImYAEAAACQNAELAAAAgKQJWAAAAAAkTcACAAAAIGkCFgAAAABJE7AAAAAASJqABQAAAEDSBCwAAAAAkiZgAQAAAJA0AQsAAACApAlYAAAAACRNwAIAAAAgaQIWAAAAAEkTsAAAAABImoAFAAAAQNIELAAAAACSJmABAAAAkDQBCwAAAICkCVgAAAAAJE3AAgAAACBpAhYAAAAASROwAAAAAEiagAUAAABA0gQsAAAAAJImYAEAAACQNAELAAAAgKQJWAAAAAAkTcACAAAAIGkCFgAAAABJE7AAAAAASJqABQAAAEDSBCwAAAAAkiZgAQAAAJA0AQsAAACApAlYAAAAACRNwAIAAAAgaQIWAAAAAEkTsAAAAABImoAFAAAAQNIELAAAAACSJmABAAAAkDQBCwAAAICkCVgAAAAAJE3AAgAAACBpAhYAAAAASROwAAAAAEiagAUAAABA0gQsAAAAAJImYAEAAACQNAELAAAAgKQJWAAAAAAkTcACAAAAIGkCFgAAAABJE7AAAAAASJqABQAAAEDSBCwAAAAAkiZgAQAAAJA0AQsAAACApAlYAAAAACRNwAIAAAAgaQIWAAAAAEkTsAAAAABImoAFAAAAQNIELAAAAACSJmABAAAAkDQBCwAAAICkCVgAAAAAJE3AAgAAACBpAhYAAAAASROwAAAAAEiagAUAAABA0gQsAAAAAJImYAEAAACQNAELAAAAgKQJWAAAAAAkTcACAAAAIGkCFgAAAABJE7AAAAAASJqABQAAAEDSBCwAAAAAkiZgAQAAAJA0AQsAAACApAlYAAAAACRNwAIAAAAgaQIWAAAAAEkTsAAAAABImoAFAAAAQNIELAAAAACSJmABAAAAkDQBCwAAAICkCVgAAAAAJE3AAgAAACBpAhYAAAAASROwAAAAAEiagAUAAABA0gQsAAAAAJImYAEAAACQNAELAAAAgKQJWAAAAAAkTcACAAAAIGkCFgAAAABJE7AAAAAASJqABQAAAEDSBCwAAAAAkiZgAQAAAJA0AQsAAACApAlYAAAAACRNwAIAAAAgaQIWAAAAAEkTsAAAAABImoAFAAAAQNIELAAAAACSJmABAAAAkDQBCwAAAICkCVgAAAAAJE3AAgAAACBpAhYAAAAASSsxAQxNRZmIP338ZEMAkLTT//P+aO7oMQSk9H1kUSaGVRZHXWVJ1FaWRF1VSQyr3PNXZVlx1FQUR2lxJqrLi6OitChKS4qitqIkSksyUVVWHJVlRVFanImIiJqKkshknv7r11SURFHmwP63dPVko6M7+7S3dXRno7tnz9taO3uj98l/3dzRE7lcRG82F62dvdHZnY2unmw0d/RGT+9f3tbZk42Wjp7o6slFS0dPtHT0RnNHb7R09ERzR29kszkfBDAECVgAAABDXEVpUYyuK4sRNaUxelhZjKwti5G1pTGytiwaakqjvqZ0T6yqLImaiuJk/neXlRRFWcnTbwwaVtm/v2d7V/apsNXS0RNN7T3R2NoTTW090djWHY1tPbGrpfvJf37yba090St8waASsAAAABJWlIkYNawsxtdXxIQR5TGhvjzG1VfEuPqyGFVbFqOGlUV1ebGhDlBlWVFUlpXFqGEH/t/kchE7W7pjR0tXbN3dFTtbemJrU2fsaOl+8p+7Y3NjZ2xr7naFF/QTAQsAAGCQlRZnYlJDRRwxuiqmjKyI8SPKY/zwPcFq7PDyp27ZY3BkMhENtaXRUFsaM8dV7/fn9WZzsXV3V2xu7IyNuzpjc2NXbGrsjM2NnbGpsTM27OyMrp6sQeEQCFgAAAADpKaiOCY1VMTEERUxbXRlTBtTFRNHVMT0MZV/cysdQ09xUSbGDS+PccPL47ip+/45u9t7YuWW9li5tS3W7+yMDTs7Yv3Ojli1tf1vzgMD/kLAAgAA6GNFmYiJDRUxa3x1zB5XHbPGV8eRY6ti1LAy4xS4YZUlMX9qbcyfWvu0t2ezudiwqzOWb2mLVVvbY8WWtli5pT1WbWt31RaEgAUAAHBYSoszMWNsVcx6MlT9OVY5l4qDUVS05zbSSQ0V8YKj/vL2bDYX63d2xoqtbbFsU1s8sbE1lmxsjU2NnUajoAhYAAAAB2FMXVnMm1Ibx07e89es8dXOqKLfFBVlYvLIipg8siJecNSIp97e1NYTT2zaE7P+HLXWbGsPZ8iTrwQsAACA/SguysTMcVUxf8qwmDOhOo47YlhMqC83DIOurqokTpxeFydOr3vqbW1dvbF0Y1s8vqElHl7THA+s2h07W7qNRV4QsAAAAJ5UVlIUx0yqiROeDANHTax2uDpDRlVZ8VPna1146riIiNiwsyMeWdsSi9Y1x4OrmmP55lZXaTEkCVgAAEDBKirKxKxxVXHSjOExf0ptHD9tmLOryCsTRlTEhBEVcc78kRER0drZG4+ua4l7lzfFwtW747H1LdHdq2iRPgELAAAoKJMaKuJ5s+rjpBl1seCIYVFTIVhROKrLi+OkGXVx0ow9tx62dvbGwtXN8aeVTfHHZU2xdHNr5PQsEiRgAQAAea0oEzFrfHWcNrs+TpszIuZMqDYKPKm6vDhOnTU8Tp01PN53TsSu1u7408rdce/yprj7iV2xpanLSCRBwAIAAPJOVVlxnDxzeJw2pz6eP6s+hld76QMHor66NF50TEO86JiGiIhYvrkt/rCsMX6/pDEeXL07eh2gxSDxWRwAAMgLtRUl8cK5I+LFxzTE8dOGOXwd+sCMsVUxY2xVvPH542N3e0/c/URj/G7JrrjnicZo7ugxEANGwAIAAIasitKiOG1OfZw9b2ScMnO4aAX9aFhlSZwzf2ScM39k9PTm4qHVu+O3i3fFrx7bGZsbOw1EvxKwAACAIaWoKBMnTBsWLztuVLzg6BGeGgiDoKQ4EydMr4sTptfF5edOjRVb2uIXi3bEbQu3x7odHQai7z/mTAAAAAwFcyfVxCuOHx1nHdMQdVVeykBKpo+piuljquLtZ06Kx9a3xJ2LdsQvFu2ITa7Moo/4rA8AACSrurw4XjJvZFxw0piYPd7TAyF1mcye2Dx3Uk3840unxOINrXHLg9viZw9vi8ZWZ2Zx6AQsAAAgOXMmVMerTxwTZ88fGVVlbhGEofxnec6E6njfOZPjj8ua4taHtsVvHt8Z3b2eZsjBEbAAAIAk1FQUx0uPGxWvPnFMHDm2yiCQR8pK9jxw4bQ59bGrtTtuvG9rfOHnaw3DAROwAACAQTW+vjwuOGlMvPqkMVFb4SUK5Lv66tI4Z/5IAYuD4qsDAAAwKGaPr44LTx0X58wfGcVFGYMAsF8CFgAAMGCKMhGnzqqPC08dFyfNqDMIAAdEwAIAAPpdaXEmXvGc0fH3zxsfk0dWGASAgyJgAQAA/feCozgTLzl2ZLzjrIkxYYRwBcAhfj0xAQAA0OcvNJ4MV28/c2JMahCuADjMrysmAAAA+kpRJuLMuQ3x7hdPdqsgAH1GwAIAAA5bJhNxzryR8bYzJ8UU4QqAPiZgAQAAh2XupJp4/8umxrwptcYAoF8IWAAAwCEZU1cW737x5HjZcaMik7EHAP1HwAIAAA5KZVlRXPT88fHmMyZEWUmRQQDodwIWAABwQIoyEefMHxWXnTMlGmpLDQLAgBGwAACAZzV7fHV85NXTY/b4amMAMOAELAAAYL/KS4vi4tPGx1tfMDFKih10BcDgELAAAIB9es60YfGvr5oeU0ZWGAOAQSVgAQAAT1NXVRLvfcnkOP/EMcYAIAkCFgAA8JTzjh8V//jSqVFX5aUCAOnwVQkAAIjh1SXxkfOnxxlHjTAGAMkRsAAAoMCdNKMu/vM1M2L0sDJjAJAkAQsAAApUWUlRvOOsiXHRaROiyAMGAUiYgAUAAAVo+piq+NjrZsTMcdXGACB5AhYAABSQTCbiwlPHxXtfMjnKSooMAsCQIGABAECBqCorjv94zfQ4a26DMQAYUgQsAAAoAJMaKuLTb5wVM8ZUGQOAIUfAAgCAPHfqrOHxsdcdGcMqffsPwNDkKxgAAOSpTCbiTadNiPe8ZLKnDAIwpAlYAACQh6rKiuM/XzM9znTeFQB5QMACAIA8M6auLK5585yY7rwrAPKEgAUAAHlk2ujKuObNc2Ls8HJjAJA3BCwAAMgTx0yujasumh3Dq32bD0B+8ZUNAADywBlHjYj//rsjo7y0yBgA5B0BCwAAhrjzjh8d/3b+tCj2qEEA8pSABQAAQ9g7zpoUbz9zoiEAyGsCFgAADFHvecnkeMsZEwwBQN5zgzwAAAxB736xeAVA4RCwAABgiHnniybFW18gXgFQOAQsAAAYQi45a1K87YXOvAKgsAhYAAAwRLzptPFxiQPbAShADnEHAIAh4C1nTIj3vGSyIQAoSK7AAgCAxL3yOaPFKwAKmoAFAAAJO3XW8PjXV00zBAAFTcACAIBEzR5fHZ+4cGYUF2WMAUBBE7AAACBBo4eVxWcvmh1VZcXGAKDgCVgAAJCY6vLi+Pyb58SYujJjAEAIWAAAkJSS4kx8+o2z4sixVcYAgCcJWAAAkJAPv2p6nDi9zhAA8FcELAAASMQFJ42J844fZQgA2IuABQAACZg1rjre/7KphgCAfRCwAABgkNVVlcSn3jgrykt9ew4A++IrJAAADOY35JmIK197ZEyoLzcGAOzv66UJAABg8LztzElx6qzhhgCAZyBgAQDAIDll5vB42wsnGgIAnoWABQAAg6C+ujT+8zUzoihjCwB4NgIWAAAMgn955RHRUFNqCAA4AAIWAAAMsJcvGBVnzm0wBAAcIAELAAAG0OhhZfH+c6caAgAOgoAFAAADJJOJ+Mirp8ewyhJjAMBBELAAAGCAvPa5Y+OUmcMNAQAHScACAIABMGFERbz37MmGAIBDIGABAMAA+Mj506KqrNgQAHAIBCwAAOhnZ88bGSdMrzMEABwiAQsAAPpRVXlxXPbSKYYAgMMgYAEAQD96+5kTY/SwMkMAwGEQsAAAoJ9MG10ZF54yzhAAcJgELAAA6CcfPO+IKCnOGAIADpOABQAA/cDB7QDQdwQsAADoYxWlRQ5uB4A+JGABAEAfe8Pzxjm4HQD6kIAFAAB9aHh1SbzptAmGAIA+JGABAEAf+ocXTIyaimJDAEAfErAAAKCPjKkriwtOGmMIAOhjAhYAAPSRi0+fEGUlvsUGgL7mqysAAPSBhtrSeOVzRhsCAPqBgAUAAH3g4tMmRHmpb68BoD+UmAAAAA5PXVVJnH+is6/If9lsLhrbeqKprSca27qf+vGulj//eM/fO7uz0ZvNRWtnb0REdPfkor07GxERHV290d2b+5tfu7KsKEqK/xKBh1UWR1lJUVSVF0dNeXHUVpREVXlRVJcXR1V5cQyrLIn66tKory6JEbVlMaK6NCrLRGTIVwIWAAAcpgtOGuOFM3ljR3N3rN/ZERt2dsT6nZ1P+/u25q7I5frn993d/vR/3nAIv0ZFaVGMqCmNhtqyqK8uifH15TF2eHmMqyuPscPLYuzw8hhZWxaZjPczDDUCFgAAHIbS4ky87uSxhmDIaWrriSUbW2PxhpZYvLE1Vm1pj/U7O6LjySulhqKO7mxs3NUZG3d1PuOf2THDy2Pc8PKY1FARU0dVxpSRe/4+vr48iovULUiRgAVDVC4irrxppSHoN2cePSJOnjncEHlse3NXfPkX6w1BP7+Y7M37/49nzxsZI2vLvLNJWmNrz1OhavGG1liyoSU2PEPkyWfdvblYv6Mj1u/oiPtXND3t35UWZ2LCiIo4YlRlTB5ZEdPGVMWscVUxbXRVlBQLWzCYBCwYonK5iBvv22II+s3EEeUCVp5rbu/1eQT6wOtPHWcEktPa2RsPrNwd9y5vivtWNMWKLW1GOQDdvblYva09Vm97+v2MpcWZmD6mKmaOq45Z46ti1rjqmDmuOmoqio0GA0TAAgCAQ3T0xJqYPb7aEAy67t5cLFrbHPetaIp7lzfFo+taojebM0wf7rtkY2ss2dga8cCet2UyERNGVMSxk2ri2Mm1ceyU2jhybJVbEKGfCFgAAHCIXn2SJw8yeLp6svH7Jxrjjoe3x++f2BXtXVmjDKBcLp66FfG2hdsjYs+TFI+aUBPzptTGsZNr45jJNVFfXWos6AMCFgAAHIKaiuJ4ybEjDcGAymZz8cjalrjloW1xx8Pbo7Wz1ygJae/KxgOrdscDq3Y/9bYJIyripBl1cdKMujhxel3UVXkZDofCnxwAADgEL5k3MirLigxBv8vlIh5YtTt+tnBb/OqxndHU1mOUIWTDzo648b6OuPG+LVGUiZg1vjpOnF4XJ0yvi+OmDvN5BA6QgAUAAIfg3ONGGYF+tbu9J255cFv88N4tf3OoOENTNhexeMOeJ0F+83cbo6Q4E8dOro3nzRoez59dH9PHVBkJ9kPAAgCAgzSpoSKOnVxrCPrFuh0d8e27NsbND26Lzm7nWuWznt5cPLhqdzy4andcffvaGF9fHs+bXR+nza6P50wbFmUlrs6CPxOwAADgIL30uFGR8aAx+tjiDa3xjd9siF89tiM8QLAwbdzVGT/4w+b4wR82R2VZUZw0Y3g8b/bweMFRIxwGT8ETsAAA4CC9dL7D2+k7y7e0xZfuXBe/eXxn5IQrntTelY3fPL4zfvP4zvj4j1fFCdOGxYuObYgzj25wEDwFyUc9AAAchJnjqmNSQ4UhOGxbd3fF1bevjdsXbnPFFc8om83Fvcub4t7lTfE/P1kVJ06vixcf2xBnHDUihlV6WU9h8JEOAAAH4cy5I4zAYenqyca379oUX//N+mjvcsYVB6enNxf3LG2Me5Y2RmnxynjukcPj7Hkj44VHj4jyUmdmkb8ELAAAOAhnzW0wAofsodW7479uXOmpgvSJ7t5c3LVkV9y1ZFfUVBTH6XNGxLkLRsWJ0+uc00feEbAAAOAATR1VGUeMrjQEB213e0989rY18dMHtjrnin7R0tEbtz60LW59aFtMG10ZLz9+dJx73KhoqHX4O/lBwAIAgAP0/Nn1RuCgPbBqd3z4+8tiS1OXMRgQK7e2x1U/WxPX3LE2Tpk5PF51wug4bXZ9FBW5LIuhS8ACAIAD9LxZw43AAevN5uLLv1gX3/jtxsg6pZ1B+hj88y2G4+vL44KTxsSrThjjKYYMST5qAQDgAFSVF8f8qcMMwQFpauuJD31vady7vMkYJGHjrs64+va18eVfrI/T59THG543Lo6dXGsYhgwBCwAADsBzZ9RFabHbb3h2Sza2xj99+4nY3NhpDJLT1ZONOxftiDsX7Yh5U2rjdSePjTPnNvj8RvIELAAAOAAnzRhuBJ7Vvcub4vLvPBGtnb3GIHkPr2mOh9c0R0PN6rjgpDHxhueNj5qKYsOQpCITAADAs3vONLcP8sxueXBbvPe6xeIVQ86Olu649pfr4+WffDC+/It10djaYxSSI2ABAMCzGFFTGlNHVRqC/brp/q3xHz9cHj29Dmtn6Gpq64mv/HJ9nP0/D8SVN610GyxJcQshAAA8i+dMGxYZx8OwHz+6d0t8/CcrI6ddkSe6erJx431b4qcPbI2Xzh8Zbz5jYkwZWWEYBpUrsAAA4Fks8PRB9uP2h7eLV+Stnt5c/PSBbXHBZxfGf924IrY0dRmFQSNgAQDAszh6Uo0R+Bt/Wrk7/uOHK8Qr8l5vNhc33b81zvvkg3HlTStjR0u3URhwAhYAADyDkuJMHDm2yhA8zept7fFP314SXT1ZY1AwuntzceN9W+IVn3oorv3FOg8sYEAJWAAA8AxmjKmKshLfNvMXbV29cfl3noiWDi/eKdA/A529Tz218Lu/3xTdHl7AAPCVGAAAnsFRE9w+yNP9549WxMqt7Yag4DW29sSnb10dr/3cwrhnaaNB6FcCFgAAPIOjJlYbgafc/OC2uPORHYaAv7Jme0e85xuL451fezxWbxN36R8CFgAAPIOjJroCiz227u6KT9+y2hCwH/cub4rXXvVwfPLm1c7Hos8JWAAAsB9lJUUxfYwD3Nnj4z9eGbvbewwBz6CnNxffu2dTXPDZhfFzVyvShwQsAADYjyPHVkVpccYQxB+WNsbvFu8yBBygLU1d8aHvLY13f2NxbG7sNAiHTcACAID9mDXe+VdEdPfm4r9/usoQcAj+sLQxXvO5h+NH926JnIcVchgELAAA2I+poyqNQNz8wNZYv6PDEHCIWjt742M/Xhlv/cqjsWa7P0scGgELAAD2Y+KIciMUuJ7eXHzjNxsMAX1g4erm+LurH47rfrshslmXY3FwSkwAAAD7NrGhwggF7vaHt8eGXc7vgb7S2Z2Nq29fGzc/uM0YHBRXYAEAwD5kMhETRwhYhe4Hf9xsBOgHq7a2G4GDImABAMA+jKwti4pS3y4XsiUbW+PRdS2GAEiAr8gAALAPk9w+WPBue8gtTgCpELAAAGAf3D5Y2HK5iF8+utMQAIkQsAAAYB9cgVXYlmxsjU2NDm8HSIWABQAA+yBgFbb7VjQZASAhAhYAAOzD2OFlRihgD6zcbQSAhAhYAACwD8OrSo1QoHK5iIVrBCyAlAhYAACwDyNqBKxCtbmpM1o6eg0BkBABCwAA9lJSnInq8mJDFKjlm9uMAJAYAQsAAPZSV1USmYwdCtXa7R1GAEiMgAUAAHsZUe32wUK2panTCACJEbAAAGAvwwWsgratudsIAIkRsAAAYC/Dq0qMUMAaWwUsgNQIWAAAsJd6TyAsaJ3dWSMAJEbAAgCAvdS7AqugdfYIWACpEbAAAGAv1RUCViHr1a8AkiNgAQDAXsqKM0Yo5Pd/ifc/QGoELAAA2EuJgFHQyku8TAJIjc/MAACwl9Ji3yYXsooy73+A1PjMDAAAe3ELYWFr8BRKgOQIWAAAsJcyt5AVtFHDyowAkBhfmQEAYC8lrsAqaAIWQHoELAAA2IsrsArblJGVRgBIjK/MAACwl1JXYBW0GWOrjACQGAELAAD24gqswtZQUxojHOQOkBRfmQEAYC/FRa7AKnRzJ9UYASAhAhYAAOylN5szQoF7zrQ6IwAkRMACAIC99AhYBe+E6cOMAJAQAQsAAPbS0ytgFbojx1bHmLoyQwAkQsACAIC9uIWQokzEWcc0GAIglc/LJgAAgKcTsIiIeLGABZAMAQsAAPbiFkIiIuZOqo0jRlcaAiABAhYAAOylsztrBCKTiXjdyWMNAZAAAQsAAPbS3NljBCIi4twFo6KmotgQAINMwAIAgL20dvQagYiIqCorjtefMs4QAINMwAIAgL20dQpY/MUbnz8+6qpKDAEwiAQsAADYS7MrsPgrNRXF8abTxhsCYBAJWAAAsJdWV2Cxlzc8b7wnEgIMIgELAAD20tzuEHeerrQ4Ex96xRGRydgCYDAIWAAAsJedLd1G4G+cMK0uXr5gtCEABoGABQAAe9kuYLEfHzhvakweWWEIgAEmYAEAwF627+4yAvtUVVYcH3vdkVFS7F5CgIEkYAEAwF46urMOcme/jp5YE+9+8WRDAAwgAQsAAPZhR7PbCNm/i54/Pl50bIMhAAaIgAUAAPuwvdlthOxfJhPx76+eHjPGVBkDYAAIWAAAsA+bmwQsnllVWXFc85Y5MaauzBgA/UzAAgCAfVi/o8MIPKvRw8ri8xfPiZqKYmMA9CMBCwAA9mH9TgGLAzNjbFV84sKZUVbi5RVAf/EZFgAA9sEVWByMk48cHv/z+iOjpDhjDIB+IGABAMA+rHMFFgfpjKNGxJWvPTKKikQsgL4mYAEAwD7sbOmO9q6sITgoLz62IT7997PcTgjQx3xWBQCAfcjlItZsbzcEB+30OfXx6b+fFeWlXm4B9BWfUQEAYD+Wb24zAofk1FnD4wtvnhPDKkuMAdAHBCwAANgPAYvDseCIYfH1d8yNccPLjQFwmAQsAADYj2VbBCwOz7TRlfHNd82NOROqjQFwGAQsAADYD1dg0RdG1pbFN94xN151wmhjABwiAQsAAPZj2+6u2NXabQgOW1lJUfzb+dPjo6+Z4XB3gEPgMycAADyDZa7Cog+du2BUfPVtR8eYujJjABwEAQsAAJ7BorUtRqBPzZ1UE99777w4+cjhxgA4QAIWAAA8g0fWNhuBPje8uiQ+f/HseMsZE6IoYw+AZyNgAQDAM3hkbXPkcnagH16MFWXiPS+ZHF9/x9yYPLLCIADP9DnTBAAAsH9NbT2xdkeHIeg3x06ujf+7dF68/pRxkXE1FsA+CVgAAPAsFrmNkH5WUVoUV7x8alzz5jkOeAfYBwELAACexcLVAhYD4+Qjh8f/XTovzp430hgAf0XAAgCAZ3HviiYjMGDqqkri4393ZPy/N8yMUcNcjQUQIWABAMCz2rCzIzbsdA4WA+usuQ3x4/cfFxefPiGKPKoQKHACFgAAHIA/LnMVFgOvsqwoLj17cnz3PcfEMZNrDQIULAELAAAOwL3LBSwGz6xx1XHdO+bGR18zI+qqSgwCFBwBCwAADsB9K5oim80ZgkGTyUScu2BU/Pj9x8X5J46JjLsKgQIiYAEAwAHY3d4Tj65vMQSDrq6qJD78qmnx1bcdHUdPrDEIUBAELAAAOEC/fmynEUjGgiOGxbfedUx84sKZMaG+3CBAXhOwAADgAP1KwCIxmUzEi45piBvff1xcfu7UqKkoNgqQlwQsAAA4QOt2dMSKLW2GIDmlxZm48NRxcfMVC+Li0ydEabEDsoD8ImABAMBBcBshKaurKolLz54c33/fvDh9Tr1BgLwhYAEAwEFwGyFDwdRRlfHZi2bH/116bLzomAaDAEOegAUAAAdhycbWWL2t3RAMCTPHVccnLpwZ171zbjx/tiuygKFLwAIAgIN0+8PbjcCQcuzk2rjqTbPj6++YGydMrzMIMOQIWAAAcJBueXBb5HJ2YOiZP6U2rv2Ho+Lrl8yN50wbZhBgyBCwAADgIG3c1RkPr2k2BEPW/Km18ZW3HR2fv3hOzJ9aaxAgeSUmAACAg3fLQ9u88GfIO3XW8Dh11vBYuLo5vvHbDfH7J3a5uhBIkiuwAADgENz5yI7o7M4agrwwf+qeM7K++549Ty0sytgESIuABQAAh6C5oyfueGSHIcgrs8fveWrhTy4/Ll5/yrgoK/GSEUiDz0YAAHCI/u+eTUYgL00YURFXvHxq3PqBBXHx6ROiotRLR2Bw+SwEAACHaMnG1nh0XYshyFsNtaVx6dmT47YPHh+Xnj05Rg0rMwowKAQsAAA4DD/442YjkPeGV5fExadPiJuvOC4++poZMW10pVGAASVgAQDAYfj5IztiZ0u3ISgIZSVFce6CUfGDy+bH5y6aHSfNqDMKMCAELAAAOAxdPdm48b4thqCwXkhmIk6bUx9feutR8a13HRNnzW2IIo8uBPrz844JAADg8Hzvns3R0Z01BAVp7qSa+H9vmBk//qf58dqTx0ZVWbFRgD4nYAEAwGHa1dodP75/qyEoaBMbKuJD5x0Rd/zL8XH5uVNjfH25UYA+I2ABAEAf+ObvNkR3b84QFLzq8uK48NRx8dMrFjgnC+gzAhYAAPSBLU1dcfvD2w0Bf36x+VfnZH3v0mPj/BPHRHmpl6DAIX5OMQEAAPSN6367IbJZV2HB3maNq44Pv2pa3PKBBXHJWZOiobbUKMBBEbAAAKCPrNraHrcudBUW7E9DTWlccubEuPUDC+Kjr5kRcyfVGAU4IAIWAAD0oS/fuS66ejyREJ5JWUlRnLtgVHzrXcfEd9+z5/bCCrcXAs/AZwgAAOhDmxo748b7PJEQDtScCXtuL/zz0wsneHohsA8CFgAA9LGv/mp9tHb2GgIOQm1FSVx46rj4yRUL4ktvPSpedExDFBVlDANEhIAFAAB9bldrd3zv7k2GgEN5kZqJOGlGXXziwplx0z/Nj79/3rgYVlliGCj0zw0mAACAvnfdbzfGtt1dhoDDMKmhIv7pZVPj9n8+Pj58/rSYMabKKFCgBCwAAOgHbV29cdXP1hgC+kBFaVGcf8KY+MFl8+Lrl8x1eyEUINdhAgBAP/nZw9vj/BPHxIIjhhkD+sj8qbUxf2ptbNjZET+6b2vceN+W2N3eYxjIc67AAgCAfpLLRXzqltWRzeaMAX1swoiKuPTsyXHrBxfEh181LY4YXWkUyGMCFgAA9KMlG1vjxvu3GgL6SXV5cZx/4pi44bL58aW3HhXPn10fGXcXQt5xCyEAAPSzq29fE6fNqY/Rw8qMAf3kz08vPGlGXazZ3hE/+MPm+PGftkR7V9Y4kA9/xk0AAAD9q6WjNz7+45WGgAEyZWRFXPHyqXHHPz8nLj93aowbXm4UGOIELAAAGAC/W7wr7ly0wxAwgGoqiuPCU8fFT684Lj72uiNjxtgqo8AQJWABAMAA+e+frIxdrd2GgAFWXJSJc+aPjB+8b158/ZK5ceL0OqPAECNgAQDAAGls7YnP3LrGEDCI5k+tjS//w1Hx9UvmOvAdhhABCwAABtCtD22LOx9xKyEMtvlTa+OqN82O/7t0XrzsuFFRXKRkQcoELAAAGGAf+/HK2NzYaQhIwJFjq+K/Xjsjfnz5cfH6U8ZFeamXyZAifzIBAGCA7W7viQ//YHlkszljQCIm1JfHFS+fGrd+YEFccubEqK0oMQokRMACAIBB8OCq3fHt328yBCRmRE1pXHLWpLjtQwvi8nOnxsjaMqNAAgQsAAAYJF/8+dp4fH2LISBB1eXFceGp4+KnVxwXl710SgyvdkUWDCYBCwAABkl3by6u+O7SaGztMQYkqqK0KC56/vi49QPHx6VnT45hlUIWDAYBCwAABtGmxs74l+8vdR4WJK6yrCguPn1C3PrBBXHp2ZOjpqLYKDCABCwAABhkf1zWFF/51XpDwBBQXV4cF58+IW6+Ys9h71XlQhYMBAELAAAS8NVfrY9fPbbTEDBE1FWVxCVnTYqbrzguLj59QpSXenkN/cmfMAAASEAuF/GfP1wRa7d3GAOGkPrq0rj07Mnx4/cfF68+aUyUFGeMAv1AwAIAgEQ0d/TEe65b7FB3GILG1JXFv75yWvzk8uPi/BPHRHGRkAV9ScACAICErN/RER+4/ono7nWoOwxF44aXx4dfNS1uuGxevPDoEQaBPiJgAQBAYv60cnd85IblkdOwYMiaOqoyPvX3s+Jb7zom5k2pNQgcJgELAAASdMfD2+Prv9lgCBji5k6qia9fMjc+ceHMGF9fbhA4RAIWAAAk6ot3ro3bFm43BAxxmUzEi45piB/94/x414smRVVZsVHgIAlYAACQqFwu4iM3LI9fPbbTGJAHykuL4h9eODFu+cCCeP0p46LIQe9wwAQsAABIWDabi3/9/rJ4YNVuY0CeGF5dEle8fGrc8L558fzZ9QaBAyBgAQBA4jq7s3HZN5fE4g2txoA8csToyrjqTbPjS289KmaMrTIIPAMBCwAAhoDWzt5473WLY832DmNAnjlpRl18773HxodecUQMry4xCOyDgAUAAEPEzpbu+IevPBqrtrYbA/JMcVEmXvvcsfGTy49zPhbsg4AFAABDyI7m7nj7/z4mYkGeqq3Ycz7Wd959TBwzudYg8CQBCwAAhhgRC/Lf7PHV8Y13zI2PvmaG2wohBCwAABiSdjR3x7u+/nis2+FMLMjbF+yZiHMXjIofXjY/zl0wyiAU9p8HEwAAwNC0pakr3vaVx2L1NldiQT4bUVMaH33NjPjCW+bEuOHlBqEgCVgAADCEbd3dFW/+8qOxaG2zMSDPnXzk8PjRP82Pi0+f4JB3Co6ABQAAQ1xTW0+882uL44/LmowBea6itCguPXtyfO3tR8cRoysNQsEQsAAAIA+0dfXGZd9aEr95fKcxoADMm1Ib33vvsa7GomAIWAAAkCe6erJxxXeXxs0PbjMGFICykr9cjTVhRIVByGsCFgAA5JHebC7+44fL49pfrItczh5QCOZNqY0bLpsXrz9lnDHIWwIWAADkmVwu4tpfro//+OHy6O5VsaAQVJQWxRUvnxrXvHlOjKwtMwh5R8ACAIA8dfOD2+I9X18cu9t7jAEF4pSZw+N7lx4bz59dbwzyioAFAAB57P6VTfHGLyyKtds7jAEFoqGmND530ey4/NypUVrsgHfyg4AFAAB5bt2OjnjLtY/Gg6t2GwMKRCYTceGp4+Jrl8yN8fXlBmHIE7AAAKAA7Gzpjkv+9/G47rcbjAEFZO6kmvj+++bFi45pMAZDmoAFAAAFojebi6tvXxsf/v6y6OzOGgQKRHV5cXziwpnx4VdNc0shQ5aABQAABea2hdvjzV9+NDY1dhoDCsj5J46J6955TIwd7pZChh4BCwAACtCSja1x0RcWxZ9WOhcLCsmcCdXxrXfNjXlTao3BkCJgAQBAgdrR0h3v+Nrjce0v1kU2mzMIFIiRtWXxv28/Oi4+fYIxGDIELAAAKGDZbC6u/eX6eOfXFsf25i6DQIEoLsrEpWdPjo++ZkaUlUgDpM9HKQAAEPevbIo3XLMoHljllkIoJOcuGBXX/sNRUV9dagySJmABAAAREbFtd1dc8r+Px1d/td4thVBA5k2pjW+9a25MHVVpDJIlYAEAAE/JZnPxpTvXxZuvfSzW7egwCBSICSMq4rp3zo0TptUZgyQJWAAAwN9YtLY5Xv/5R+LG+7YYAwrEsMqSuOYtc+LcBaOMQXIELAAAYJ/aOnvjyptWxuXfeSKa2noMAgWgtDgT/3nBjHjHWZMik7EH6RCwAACAZ/Srx3bGaz73cNz9RKMxoABkMhFvP3Ni/Osrp0VRkYpFGgQsAADgWW1v7or3Xrc4Pnj9UldjQYE4/8Qx8ak3zIyyEumAweejEAAAOGB3LtoRF3x2Yfzy0R3GgAJwxlEj4vNvnh1V5cXGYFAJWAAAwEHZ0dIdV3x3aXzw+qWxq7XbIJDnTphWF9f+w1ExvLrEGAwaAQsAADgke67Gejh+tnC7MSDPHT2xJr7ytqOjoabUGAwKAQsAADhku1q741+/vyze9pXHYtXWdoNAHpsxpiq++vajY9SwMmMw4AQsAADgsD2wane87uqH4+rb10ZXT9YgkKemjqqMa//hKBGLASdgAQAAfaKnNxfX/XZDXPC5h+MPSxsNAnlKxGIwCFgAAECfWr+jI979jcXxz/+3LLY0dRkE8tCfI9bIWhGLgSFgAQAA/eKOh7fH+Z95KL76q/XR2e22Qsg3U0dVxpf/4aioq/J0QvqfgAUAAPSb9q5sfOnOdfHKTz8Utzy4LXI5m0A+mTa6Mq5585yoKi82Bv1KwAIAAPrdlqau+MgNy+PtX30sntjUahDII0dPrInPvnFWlJVIDPQfH10AAMCAeWDV7njDNYviv25cEdt2Ox8L8sUJ0+viv147I4qKMsagXwhYAADAgMpmc3HT/VvjFZ96KK6+fW00d/QYBfLAi45piH9/9fTIaFj0AwELAAAYFB3d2bjutxvivE8+FNf9dkN09TjoHYa6ly8YFW85Y4Ih6HMCFgAAMKia2nri6tvXxqs/+3Dc8fB2B73DEPfOF02OFx49whD0KQELAABIwoadHfHP/7csXnvVw3Hnoh1CFgxRRZmIj73uyDh6Yo0x6LuPKxMAAAApWbGlLT54/dL4u6v3hCxg6CkvLYrPvHFWjB5WZgz6hIAFAAAkadnmPSHrTV96NH63eJdBYIgZNawsPnvR7KgolR44fD6KAACApC1a2xyXfWtJvO0rj8X9K5sMAkPInAnV8aFXHGEIDpuABQAADAkPrNodl3z18bjw8484IwuGkPOOHx3nHT/KEBwWAQsAABhSlmxsjQ9evzRed/XDccuD2yKbVbIgdf/yymkxa1y1IThkAhYAADAkLd/cFh+5YXm88jML48b7tkSvkAXJKispik9cODOqy4uNwSERsAAAgCFt/Y6OuPKmlXHO/zwY1/5iXTR39BgFEjR5ZEX82/nTDcEhEbAAAIC8sL25K6795fo49xMPxdW3r41tu7uMAol58bENcd7xow3BQROwAACAvNLc0RPX/XZDvOz/PRgfvH5pPLa+xSiQkA+cNzUmNlQYgoMiYAEAAHmppzcXdy7aERd9cVG8++uL4+4nGsMxWTD4qsqK49/OnxZFGVtw4EpMAAAA5LNcLuIPyxrjD8saY2JDRZx/wuh41Qljoq7KyyEYLCdMq4u/O2VcXH/3JmNwQFyBBQAAFIz1Ozri6tvXxss+8WBcedPKWL6lzSgwSC49e3JMH1NlCA6IgAUAABSctq7euPG+LfG6qx6Od3398fjd4l1uL4QBVlZSFP/+6ulR5F5CDoBrZgEAgIKVy0X8cVlT/HFZU4weVhavOmF0vPbksVFfXWocGABzJ9XEBSeOiR/8cbMxeEauwAIAAIiIrbu74tpfro9z/mfP0wvvXd5kFBgA7z17cowaVmYInpGABQAA8Fe6erJx56Id8c6vPR4Xfv6RuPG+LdHRnTUM9JPq8uJ43zlTDMEzErAAAAD2Y8nG1rjyppXx4o//Ka68aWWs2tpuFOgHL50/Mk6cXmcI9kvAAgAAeBYtHXsOfX/N5xbGO7/2eNy5aEdknfoOfepfXjktykpkCvbNIe4AAAAHKJuLuHd5U9y7vCkmjKiIC04aE698zuioq/LSCg7X5JEV8fpTxsY3f7fRGPwNaRMAAOAQbNjZEVf9bE285L8fiA9evzQWrmk2Chymt7xggiDMPglYAAAAh+HPh76/5cuPxhuuceg7HI7aipJ46wsmGoK/IWABAAD0kcUb/nLo+ydvXh0bdnYYBQ7S604eGxMbKgzB0whYAAAAfayloze+d8+meMWnHor3fXNJ3P1EY+Sc+Q4HpLQ4E+88a5IheBoBCwAAoJ9kcxF3LdkV771ucbz6swvjh/e6vRAOxNnzRsacCdWG4CkCFgAAwABYva09Pv7jv9xeuLmx0yiwH5lMxCVnugqLvxCwAAAABtCfby8871MPxQevXxqPrPX0QtiX0+bUuwqLpwhYAAAAg6CnNxd3LtoRF39pz9MLb3lwW/RmHZQFf+3NZ0wwAhEhYAEAAAy6xRta4yM3LI9XfuqhuO63G2J3e49RICLOPLohZoypMgQCFgAAQCo27OqMq29fGy/9xINx5U0rY/W2dqNQ0DKZiItPH28IBCwAAIDUtHX2xo33bYkLPvdwXP6dJ+Kh1buNQsE6e97ImNhQYYgCJ2ABAAAkKpvNxa8e2xlvvfaxuPDzj8SN922Jrp6sYSgoRUWZ+LuTxxqi0D8OTAAAAJC+JRtb48qbVsbLPvFgXPuLddHY6pwsCscrnjM6qsuLDVHABCwAAIAhZEdLd1z7y/Xx0k88EB/78cpYu73DKOS96vLiOHfBKEMUMAELAABgCOrozsaP7t0S53/moXjfN5fEY+tbjEJee/0p46IoY4dCJWABAAAMYdlcxF1LdsUbv7Ao3vLlR+N3i3cZhbw0eWRFnHTkcEMUKAELAAAgTyxc0xyXfWtJvOXaR+P3T+yKXM4m5BeHuRcuAQsAACDPLFzdHJdetyRed/XDccuD26I3q2SRH06dOTxG1pYZogAJWAAAAHlq+ea2+MgNy+P8zyyMnz6wVchiyCsqysQ580caohDf9yYAAADIb+t2dMR//HBFvPJTD8WN922JrJDFEPay4wSsQiRgAQAAFIgNuzrjyptWxuuufiTuXLTDGVkMSTPHVceRY6sMUWAELAAAgAKzYktbfPD6pfGmLy3y1EKGpJctGGWEAiNgAQAAFKhH17XseWrhlx+NB1btNghDxjnzRkZRUcYQBUTAAgAAKHAL1zTH277yWLzvm0ti5dZ2g5C8UcPK4rgptYYoIAIWAAAAERFx15Jd8bqrHo4rb1oZO1u6DULSTj9qhBEKiIAFAADAU3qzubjxvi1x/mcWxnW/3RBdPVmjkKQz5tQboYAIWAAAAPyN3e09cfXta+N1Vz0cdy7aYRCSM7GhIqaNrjREgRCwAAAA2K812zvig9cvjXd+7fFYvrnNICTlDLcRFgwBCwAAgGd17/KmuPCaR+KTN6+O1s5eg5CE091GWDAELAAAAA5IT28uvnfPpnj1ZxbGrx/faRAG3dGTamNETakhCoCABQAAwEHZursr3v/tJ+J931wSW5q6DMKgKcpEHH/EMEMUwvvaBAAAAByKu5bsitd8bmFcf/emyObsweAQsAqDgAUAAMAha+nojU/dsjreeu2jsWKLQ94ZeAumCViFQMACAADgsD28pjku/Pwjce0v1kV3r8uxGDjTR1dFfbVzsPKdgAUAAECf6O7NxbW/XB9v+PwjsXRTq0EYEJlMxAK3EeY9AQsAAIA+tXxLW1z0xUfjut9ucDYWA8I5WPlPwAIAAKDPdfVk4+rb18a7v/547GjuNgj9av7UWiPkOQELAACAfnPv8qZ47VUPxx+WNRqDfjNjTFWUlUgc+cx7FwAAgH61q7U73vONxXH17Wsj655C+kFJcSZmjK0yRB4TsAAAAOh3uVzEdb/dEJd+c0k0d/QYhD43e3y1EfKYgAUAAMCAuWdpY/z9NYti5dZ2Y9Cn5ghYeU3AAgAAYECt29ERF39pUdy1ZJcx6DNzJghY+UzAAgAAYMC1dPTGP377ifjBHzYbgz5x5LjqKC3OGCJPCVgAAAAMimw2F//z01VxzR1rI+dsdw5TaXEmpoyqNESeErAAAAAYVF//zYb4yA3Lo6dXxeLwTG6oMEKeErAAAAAYdLc+tC3e/50noqsnawwOmSuw8peABQAAQBLuWrIr/unbT0Rnt4jFoXEFVv4SsAAAAEjGPUsb47JvLRGxOCRTRroCK18JWAAAACTl3uVN8U/fdjshB2/SSFdg5SsBCwAAgOT8YVlj/Mv/LYts1sHuHLiGmtKoqSg2RB4SsAAAAEjSrx7bGR//ySpDcFAmOQcrLwlYAAAAJOvG+7bEN36zwRAcsDF15UbIQwIWAAAASbvm52vjZwu3G4IDMmpYqRHykIAFAABA0nK5iI/euCIeW99iDJ7VqNoyI+QhAQsAAIDkdXZn4/LvPBGNrT3G4BmNHCZg5SMBCwAAgCFhS1NXfOh7Sz2ZkGfkCqz8JGABAAAwZNy3oin+99cOdWf/RtcJWPlIwAIAAGBI+eqv1jsPi/0aWesQ93wkYAEAADCk9GZz8ZEblkdXT9YY/I3hVaVRlLFDvhGwAAAAGHJWbW2Pa3+53hD8jUwmoqq82BB5RsACAABgSPr2XRtjzfYOQ/A3aipKjJBnBCwAAACGpJ7eXFz1szWG4G/UVLgCK98IWAAAAAxZv3l8Z/xxWZMheBoBK/8IWAAAAAxpX7xzrRF4mlq3EOYdAQsAAIAh7dF1LbFwTbMheIorsPKPgAUAAMCQ983fbjACTxGw8o+ABQAAwJB315JdsW6HJxKyR1mJ3JFvvEcBAAAY8rK5iFsf2mYIIiKipChjhDwjYAEAAJAXbn5gW+RydiCipFjAyjcCFgAAAHlhU2NnPLR6tyGIkmK5I994jwIAAJA3frd4lxFwC2EeErAAAADIG/csazQCbiHMQwIWAAAAeWPFlrbYtrvLEAWuVMDKOwIWAAAAeSOXi7h/RZMhCpwrsPKPgAUAAEBeWbyx1QgFrjfrcZT5RsACAAAgrzwhYBW87l4BK98IWAAAAOSVJRtbI6dfFLTuHh8A+UbAAgAAIK+0dPTGzpZuQxSwnt6sEfKMgAUAAEDe2dLUaYQC5hbC/CNgAQAAkHe2NHUZoYAJWPlHwAIAACDvCFiFrdsthHlHwAIAACDvtHT0GKGAdTnEPe8IWAAAAOSdzh5X4BQyh7jnHwELAACAvNPeJWAUMmdg5R8BCwAA9uO5R9ZFVVmxIWAI6ugWsAqZWwjzj4AFAAD78dwjh8d33nNMHDG60hgwxJQUZ4xQwJrbnYGWbwQsAAB4BlNHVca33nVMvOCoEcaAIaSixMvdQtbUJmDlG3+iAQDgWVSXF8cn/35WvPUFEyLjog4YEspLvdwtZI1t3UbIM/5EAwDAgXzjnIl494snx+cumh01Fc7FgtSNqCk1QgFrdAVW/n0dNgEAABy458+uj2+9y7lYkLqGWgGrUHV0Z6PTIf55R8ACAICDNHVUZVz3zrnx/Nn1xoBEjR5WZoQC5fyr/CRgAQDAIaitKInPXTQ7Lj93apR62hkkZ+ooV0kWql2tzr/KRwIWAAAcokwm4sJTx8U33jE3JjZUGAQS0VBbGsMqSwxRoBpbXYGVjwQsAAA4TEdNrInr33NsvOjYBmNAAmaOqzZCAdvdLmDlIwELAAD6QE1FcXzi9TPjo6+ZEZVlvs2GwTRvcq0RCphbCPOTr6wAANCHzl0wKr71rmNixpgqY8AgOVbAKmgCVn4SsAAAoI9NH1MV33nPMfH6U8YZAwZYeWlRzJ8qYBWyDTs7jZCHBCwAAOgHZSVFccXLp8ZnL5odI2vLDAID5Lkz6qKi1EvdQrZhZ4cR8pA/1QAA0I9On1MfN1w2L1563ChjwAA446gRRihw612BlZcELAAA6Gd1VSVx5WtnxNUXz47Rw1yNBf2lrKQoXjhXwCpknd3Z2NHSZYg8JGABAMAAed6s+rjhH+fF+SeOMQb0gxcePSJqK0oMUcDW7+yIXM4O+UjAAgCAAVRbURIfftW0+MwbZ0VDbalBoA+Jw2zc5fbBfCVgAQDAIDjjqBHxw8vmx0vnjzQG9IHZ46vjOdOGGaLArXeAe94SsAAAYJDUVZXEla87Mr74lqNiysgKg8BheOPzxxuB2OAA97wlYAEAwCB77pF1ccNl8+Pyc6dGVVmxQeAgTR1VGS8+tsEQuAIrjwlYAACQgJLiTFx46rj4wWXz4vQ59QaBg/Del0yO4qKMIYj1OwSsfCVgAQBAQsbXl8dnL5odn7todkyoLzcIPIsFRwyLM44aYQiiqycba7YLWPlKwAIAgASdNqc+fviP8+OSMydGWYlv22FfSosz8S+vnBYZF18RESu3tkdvNmeIPOUrIQAAJKq8tCguOWtS3HDZvDhrboMX6bCXi04bH9NGVxqCiIhYvrnNCHlMwAIAgMRNaqiI//eGmfGtdx0Txx8xzCAQEbPHV8fbz5xkCJ6yTMDKawIWAAAMEUdPrImvvv3o+MwbZ8URrjqhgFWWFcV/v35mlBa7LJG/WLa51Qh5rMQEAAAwtJxx1Ig4bc6IuO2hbXH17Wtje3OXUSgYmUzER86fHlNGVhiDp+RyEY+tE7DymSuwAABgKH4jn4k4d8Go+OkVx8WlZ0+Omopio1AQ3vbCifGSeSMNwdOs2d4ezR09hsjnr3smAACAoauitCguPn1C/OTy4+Li0ydEVbmQRf46e97IuMS5V+zD4xtcfZXvBCwAAMgD9dWlcenZk+PWDyyIS86cGMMqnRZCfjn5yOHxn6+Z4Wmc7NOj65qNkOcELAAAyCN1VSVxyVmT4uYPHBfvOGtS1FUJWQx9J06vi8+8cZZD29mvRWtbjJDnBCwAAMhDtRUl8fYzJ8atH1wQl587NRpqS43CkPT82fVx1ZtmR3mpl6/sW1tXbyzZ6BbCfOczAAAA5LGqsuK48NRx8dPLF8Q/vnRKjKkrMwpDxrkLRsVn3jhLvOIZLVzdHL3ZnCHynOuJAQCgAFSWFcUbnz8+3vC88fH7Jbvie/dsinuXNxmGJGUyEW9/4cR4+5mTnHnFs3pg1W4jFAABCwAACkhRJuK0OfVx2pz6eHx9S1x/z+a485Ht0d3r6gXSUFVeHP9xwfQ4a26DMTggDwpYhfH1ywQAAFCYjppYE1e+dkbc9qHj49KzJ8foYW4vZHBNG10Z33znXPGKA9ba2RuPrXeAeyFwBRYAABS4hprSuPj0CXHhqePi9oe3xw1/3OIFIQMqk4l49Ylj4v0vm+q8Kw7KvcuboscVpAVBwAIAACIioqykKM47fnScd/zoWLW1PW5+cFvc/MDW2NHSbRz6zcjasvi386fF82fXG4ODds/SRiMUCAELAAD4G0eMroxLz54c73rRpLhrya74yQNb4+4nGj3piz5TlIk4/8QxcenZU6KmotggHJI/CFgFQ8ACAAD2/4KhOBMvOHpEvODoEbG9uStufWh7/ORPW2P1tnbjcMiOmVwbHzrviJgzodoYHLIVW9piU2OnIQrl65EJAACAAzGytizedNr4eNNp4+ORtc3x80d2xC8f3RFbmrqMwwGZUF8e73zx5Dhn3sjIZOzB4fnN47uMUEAELAAA4KAdO7k2jp1cG//0sqnxyNrm+MUiMYv9a6gpjbe+YGK8+qQxUVqsXNE3fvXYDiMUEAELAAA4ZEWZiPlTamP+lNq4/NypsWJLW/xi0Y64deH2WL+jw0AFbtzw8njD88bF+SeOiQpPF6QPbWrsjCUbWw1RQAQsAACgz0wfUxXTx1TF28+cFIvWNcevH9sZv3+iMVZsaTNOAZk9vjouPHVcnD1vZJS44op+8OvHdkbOMyUKioAFAAD0uUzmL7cZvu+cKbGpsTPufqIxfv/Errh/RVO0d2WNlGdKizPxwrkN8Xcnj415U2oNQr+64xG3DxYaAQsAAOh344aXxwUnjYkLThoTvdlcLFrbEr9bsivuXd4Yize4DWgomza6Ms5dMCrOO350jKgpNQj9bv2Ojnh0XbMhCoyABQAADKjiokzMn1ob86fWRsTkWL+jI+5b2RQPrmqOB1Y2OQh+CJg8siJedExDvOTYkTFjbJVBGFC3Ldzu9sECJGABAACDamJDRUxsqIjzTxgTEREbd3XGg6t2x4OrdsdDq3fHmu0Ogx9sRZmIWeOr49RZ9XHm3BExa1y1URg0tz+83QgFSMACAACSMr6+PMbXj4pzF4yKiIjtzV3x4KrmeGj17nh8Q2ss3dQand3O0OpvI2vL4uQj6+LkmcPjpBl1UV/t9kAG36K1zbF6W7shCpCABQAAJG1kbVm8+NiGePGxDRER0ZvNxaqt7fH4htZYsrElFm9ojSc2tkaHqHVYqsqKY96U2jjpyLo4+cjhcaRbA0nQj+7baoQCJWABAABDSnFRJmaMrYoZY6vivOP3XKWVzeZi1bb2WLyhNZZtbotVW9tjzfb22LCrM7JZh+Xsa8MjRlXGURNr4tjJNXHM5NqYProyiooyxiFZLR298fNH3D5YqAQsAABgyCsqysT0MVUxfczTrxrq7s3F2u3tsWZ7R6zZtidqrdzaHmu3d8Tu9p6C2GVcXVlMHlUZR4yqjJnjqmLmuOqYNroyykqKfOAwpNy2cJsrLQuYgAUAAOSt0uJ9h62IPVdzbGnqjM2NXbGtuSu2NHbG5qau2Lp7z4+3NHVFa2dv0v//ykqKYlhlSYwdXhZj68r3/H14eYyrL4/JDRUxqaFCqCIv5HIRP7x3iyEKmIAFAAAUpJqK4qip2Hfc+rO2rt5obO2J3e090dzRE83tvdHcvuef97ztL//c07vnVsXWzt7ozf71j+PJH/dENhtRW1EckclEJvPkj2PPLX3V5Xt+XFKciaqy4igtzkRdVWkMqyqJ4VUlUffkX/XVpU/9uKqs2DuSgnDfiqZYvrnNEAVMwAIAANiPqrLiqCorjvH15caAQfSd3280QoFzLSkAAACQrDXbO+IPSxsNUeAELAAAACBZ375rY3iYKAIWAAAAkKQtTV1xy4PbDIGABQAAAKTpW7/bGF09WUMgYAEAAADp2dHSHTfdv8UQRISABQAAACTom7/dEB3drr5iDwELAAAASMrW3V1xw72uvuIvBCwAAAAgKV/8+drodPUVf0XAAgAAAJKxelt73PrQdkPwNAIWAAAAkIzP3LomerM5Q/A0AhYAAACQhF8/vjN+/8QuQ/A3BCwAAABg0HV2Z+Mzt6w2BPskYAEAAACD7mu/2RAbdnUagn0SsAAAAIBBtW5HR3zrdxsNwX4JWAAAAMCg+uTNq6OrJ2sI9kvAAgAAAAbNLx/d4eB2npWABQAAAAyKtq7e+PStawzBsxKwAAAAgEHxmVvXxOZGB7fz7AQsAAAAYMD9cVlT3HT/FkNwQAQsAAAAYEA1d/TEf/5oeeRytuDACFgAAADAgPrYTStjS1OXIThgAhYAAAAwYH712M74+SM7DMFBEbAAAACAAbG9uSv+68YVhuCgCVgAAABAv8vlIj76o5XR1NZjDA6agAUAAAD0u2/8dkP8/oldhuCQCFgAAABAv7p/ZVN88c51huCQCVgAAABAv9nS1BUfun5ZZLM5Y3DIBCwAAACgX/T05uKfv7c0drV2G4PDImABAAAA/eKTt6yKhWuaDcFhE7AAAACAPnfbwu1xwx+3GII+IWABAAAAfWrxhta48sYVhqDPCFgAAABAn9mwqzMu/ebi6OjOGoM+I2ABAAAAfaKprSfe+43FsaPZoe30LQELAAAAOGxdPdn4x28vidXb2o1BnxOwAAAAgMOSzUX86/eXx8LVnjhI/xCwAAAAgMPymVtXxy8f3WEI+o2ABQAAAByyb9+1Ma6/e5Mh6FcCFgAAAHBIbrxvS3zuZ2sMQb8TsAAAAICDduN9W+JjP14ZuZwt6H8CFgAAAHBQxCsGWokJAAAAgAP1o3u3xMd/Il4xsFyBBQAAABwQ8YrB4gosAAAA4Fldf/em+PStq8UrBoWABQAAAOxXLhfxlV+ui2t/ud4YDBoBCwAAANin3mwuPv7jlXHT/VuNwaASsAAAAIC/0dbVGx+8fmnc/USjMRh0AhYAAADwNNubu+LS65bEko2txiAJAhYAAADwlJVb2+M931gcmxs7jUEyBCwAAAAgIiL+uKwpPnj90mju6DEGSRGwAAAAoMDlchHf/N2GuObn6yKbzRmE5AhYAAAAUMBaO3vj329YHr96bKcxSJaABQAAAAVq6abWuPy7S2P9jg5jkDQBCwAAAArQbQ9tiytvWhkd3VljkDwBCwAAAApIZ3c2PnXr6vjRvVuMwZAhYAEAAECBWLa5LT78/WWxbHObMRhSBCwAAADIc73ZXHz7ro3xpTvXRXevpwwy9AhYAAAAkMfW7+iIj9ywPBauaTYGQ5aABQAAAHkol4u46f4t8elbV0d7l4PaGdoELAAAAMgzG3Z2xEdvXBn3r2gyBnlBwAIAAIA80dObix/8cXN88efroq2r1yDkDQELAAAA8sD9K5vif36yKlZtbTcGeUfAAgAAgCFs2+6uuPr2tXHrQ9uMQd4SsAAAAGAI6s3m4vt/2BxfunNdtHa6XZD8JmABAADAEPO7xbvi6tvXxEq3C1IgBCwAANiPb9+1MTIR8eqTxkRVWbFBgEG3aG1zXHX72nhw1W5jUFAELAAA2I8dzd3x2dvWxNd/syH+7uSx8fpTx8WwSt9CAwNvzfaO+OLP18YvHt0RuZw9KDy++gIAwLNoauuJa3+5Pr79+03xiuNHx5vPGB8ja8sMA/S7xtae+NZdG+P6uzdFV0/WIBQsAQsAAA5QW2dvfO+eTfHjP22J808cE284dVyMHV5uGKDPNbb2xHfv3hjfu3tztHU5oB0ELAAAOEjtXdn47u83xffu3hSnzqqPC08dFyfNqDMMcNh2tnTHDX/cHN+9e1O0dAhX8GcCFgAAHKJsLuKuJbviriW7Yvb46rjgpDHxsuNGRXlpkXGAg7KpsTO+c9em/9/encbIedcHHP/NuTOzO3vvOvbau+vEduJcdkJJmhClcWlOCBFHaV9UVcsbQ2kDqFRClSpFglaqaGmREFSqKqh6AEIlESJtk9YEU2MSEkhMQuLEcXzF1+5613vvzrHTFzYhh3Ecx8dj+/ORVo935plnRr9ZyZqvnuc/8e3HD8Z81aWC8HoCFgAAnAJb903H5+5/Kb78P3vife/ojd+54aJY1GadLOD49o7OxVc37ovv/GQoanWrs8OvImABAMApNDpVja9t3Bv/tmlf3Ly6M+75tZ64cWV7pNMpwwFe8ZMdE/GNzQfikZ8figXdCt6UgAUAAKdBtd6IDc8cig3PHIrucj7ee21PvP+dvbGsq2A4cIGq1Bbi4Z8din/dtD9e2D9tIPAWCFgAAHCajUxW4msb98bXNu6N1X3N8cHrFsWda3uimLdWFlwI9o7OxX/8eCjuf/xgjM/UDAROgoAFAABn0HN7j6yV9ff/tSt+68quuO3q7rjuklaXGMJ5ZqER8diLh+ObPzoQm7aOuUwQ3iYBC4BjembPVHz7xwcN4jw2PFk1BDiLpubq8cATQ/HAE0PR1ZKLd1/VFXdc3R1XD5RDy4Jz166RuXjwyeH47k+H48DheQOBUyR1zWc268AAAJAQi9ry8ZtXdMWtV3XFmoFypMQsSLypuXp8/9nRePDJ4fjx9vFo+JQNp5yABQAACdXXWYhbLu+Im1d3xLWDrZFxahYkRn2hEZtfOBzffXI4Nj47FpXagqHAaSRgAQDAOaC1mI0bV7XHLZd3xg2r2qJcsBoInGnVeiOe2D4eG34+Gt9/djRGp1yOD2eKgAUAAOeYbCYV1w62xs2rO+LmyzpiaVfBUOA0ma8uxOZth+N7z4zGD54bi8k53yIIZ4OABQAA57i+jqa4fmV7XL+iLa67pC3aSs7Ogrdjer4em7aOxfd+Phqbnh+L2YrLA+FsE7AAAOA8kk5FXLqkOa5fcSRoXTNYjnw2bTDwJrYfnIn/2zoWj704Hk/unLSmFSSMgAUAAOexplw6rhksx9qB1rhmeTmuXFqOYl7QguGJSvxo23g8uu1wPPbieIxNW88KkkzAAgCAC0gmnYrVfc1xdX85rl3eGmv6y9FVzhkM573D07XYsnsyfvLSeDy6bTxePDhjKHAOEbAAAOAC199diLUD5bhqWTlW9zXHysXNkcukDIZz2q6RudiyazKe2jkRT+2ajF0js9Hw6RfOWQIWAADwGrlMKlZcVIrLl7bE5X0tsbqvOVYsKkVW1CKh5qoL8fy+6Xh6z1Q8uWMituyejNEplwTC+UTAAgAA3lQ+m45Vi0txeV9LrFpciksWHflpKWQMhzNqer4ez++bjq37puO5vUe2O4ZnY2HBR1s4n/l+XQAA4E1VagvxzJ6peGbP1GtuX9zeFJcsKsWKi0qxYlExLl5Uiot7i775kFNiaKIS2w/OxAv7Z2LrvunYuncqdh+acykgXIAELAAA4KTtPzwf+w/Px6bnx165LZNOxbKuQlzcW4z+7mIMdBdioLsYAz2F6Gi2YDxvdGiyGtuHZmL7wZnYfnA2Xjq6nZyrGQ4QEQIWAABwitUXGrFzeDZ2Ds++4b5yIRsDPYXo7y7GYPeR7bKuQizpaIq2ko8n57O56kLsOTT3mp+dw7Ox/eBMjM8IVcDx+R8CAAA4Yybnase8FDEiopTPxJKOpljc0fTabfuRrbO3ku/QZDUOjM/HvtH52H1oLl4e/WWsGp6oGBBw0gQsAAAgEWYq9Xjx4Ey8eHDmmPcXculY1JaPzpZ8LGrLR1c5F72t+egqH/29JRe9bfko5S0sfzocnq7F8GQlDhyejwOHKzE0cWR74PB8HJyoxNB4JSq1BYMCTgsBCwAAOCfMVRdi18hc7BqZO+5+xXw6usv5aG/ORXspG22l7NFtLjpastFRykXbL25vzkW5kLngFp1faERMztZiaq4W4zO1GJ2uxth0LUanqnFoshJj07UYm67GyGQ1xqaP/NTqVk4Hzh4BCwAAOK/MVn651tKJymVSUWrKREshG+VCJkpNmWhu+uW2tZiN5qZMZNIRzU3ZyKQjSk2ZyKRTUcpnIptJRTGfjlwmHYVcOvLZ1CvHTqdT0dx07LPCWgrZSKeOfMvjXPWNZy9NzdWj8aqv3KvWGzFbWYj56kLM1xZiplKPWr0R0/P1WFhoxMRsLeoLEdPz9Zip1GNqthaTc/WYnKvF1Fz9aLSqx/R83R8KcE4RsAAAgAtetd6I8ZmaxcQBEiptBAAAAAAkmYAFAAAAQKIJWAAAAAAkmoAFAAAAQKIJWAAAAAAkmoAFAAAAQKIJWAAAAAAkmoAFAAAAQKIJWAAAAAAkmoAFAAAAQKIJWAAAAAAkmoAFAAAAQKIJWAAAAAAkmoAFAAAAQKIJWAAAAAAkmoAFAAAAQKIJWAAAAAAkmoAFAAAAQKIJWAAAAAAkmoAFAAAAQKIJWAAAAAAkmoAFAAAAQKIJWAAAAAAkmoAFAAAAQKIJWAAAAAAkmoAFAAAAQKIJWAAAAAAkmoAFAAAAQKIJWAAAAAAkmoAFAAAAQKIJWAAAAAAkmoAFAAAAQKIJWAAAAAAkmoAFAAAAQKIJWAAAAAAkmoAFAAAAQKIJWAAAAAAkmoAFAAAAQKIJWAAAAAAkmoAFAAAAQKIJWAAAAAAkmoAFAAAAQKIJWAAAAAAkmoAFAAAAQKIJWAAAAAAkmoAFAAAAQKIJWAAAAAAkmoAFAAAAQKIJWAAAAAAkmoAFAAAAQKIJWAAAAAAkmoAFAAAAQKIJWAAAAAAkmoAFAAAAQKIJWAAAAAAkmoAFAAAAQKIJWAAAAAAkmoAFAAAAQKIJWAAAAAAkWjqXSZkCAAAAAImUz6YjXWzKNIwCAAAAgCQq5NML6UI2XTcKAAAAAJKolEsvpAu5dM0oAAAAAEiiQj5TTReb0hWjAAAAACCJCvl0Jd1eyo0YBQAAAABJ1FHKDqfbS7mXjAIAAACAJGor5ranm4vpLUYBAAAAQBK1FDJPpVty2c1GAQAAAEASFQvZH6bzzaWHi/m0aQAAAACQKMV8ptFcz21If3xd79QlFzVbyB0AAACARFl1UWlk/d1LZtIREX0d+ceNBAAAAIAkWdLZ9GhERDoioruc/6aRAAAAAJAkneXc1yOOBqz+mZmvt5dyC8YCAAAAQBJ0tuQWpkqD34o4GrA+/OErKmsGyk8bDQAAAABJcFV/y1P3rUvVIo4GrIiIpR35vzUaAAAAAJJgaVfhb37x79Sr77jn8z+d3X1ormBEAAAAAJwty7oK89/5s2tfaVTpV9+5emnLBiMCAAAA4Gy6clnLw6/+/TUBa6C3uL5czDaMCQAAAICzobWUbfS059e/+rbXBKyPvXvZ3utWtP3QqAAAAAA4G65b0b7xU3cM7n/1benX77Sip/SRYi7jLCwAAAAAzqhSPtPo78p/5PW3vyFgffS2ZdtuuLT9MSMDAAAA4Ey6cVX7pj+5fXDH629PH2vnVX3lu3tb8zVjAwAAAOBM6GnN1y7uafvQse47ZsBav27JyE2r279odAAAAACcCb+xuuPzH7v9oqFj3Zc63gP/4MtPD23ZPdljhAAAAACcLlf2l0f+5Y+u+pUNKn28B1+zvPUDLYWsBd0BAAAAOC1aS9nGOwdb7j7ePscNWJ+4c2DTnWu7PptKGSYAAAAAp1YqFXHr1V1/fe9dyx897n4ncrBP/vPWpzY+N7rGWAEAAAA4VW65vPOJv/v9y975ZvulT+RgK/s7b1q5uHnKWAEAAAA4FS5dXJq4rKP1N05k3xMKWB9f1zt184qudyztLFSMFwAAAIC3Y0lnU/XGlR03rL97ycyJ7J8+0QP/8XuWvvDuq7pv6mnN14wZAAAAgJPRXc7Vb1vTdcu9dw08e6KPSb+VJ/jknf2P37a267dbS76ZEAAAAIC3prWUbdy5tvuDn7h9cPNbedxJfb/gF/5z193//dTQ/cMT1YzRAwAAAPBmulryC3eu7fzdP33vxd96q49NneyTfvGhnTf+75bRR14enct7CwAAAAD4VZZ2FeZvvaLjlnvvWv7oyTw+9Xae/EsPvrzqB9sOPbHtwHTZWwEAAADA661a3Dy5bnXnOz5627JtJ3uM1Nt9EV99ZEfh6Zcrj3z/2UO/3rAyFgAAAAARkUpF3HxZ55aV/Z03fXxd79TbOtapelF/+cBLn3v4ZyN/PjFTS3mLAAAAAC5czYVM4/Y1XV/4i/ev+PSpON4pjU1ffGjnjU9un3xgy+7JHm8VAAAAwIVnzUB56NqBlntOdr2rYzktZ0v91f0vffYHW0c/c3C8kvW2AQAAAJz/usu5+rsu7fin+z60Yv2pPvZpu9zvKw8d6N0+fPj+zS+M3zBbqbusEAAAAOA8VMxnGu9a1b5pRV/5A+vXLRk5Hc9x2sPSVzbs6ds1NPOPP9o2fof1sQAAAADOD6V8pnH9yvbHBruKv3fvXf3bT+dznbGg9JUNe/p2D8/+w7MvT9+6e2S2ydsMAAAAcO7p7y7OX7G0+eGe9vz6T90xuP9MPOdZOSPqCw/uuOfl0cpntuyauG50qpr21gMAAAAkV2sp27hyacvW5d2lL336fYNfPtPPf1Yv6bvvkUa2dWbne8Znah/aNzZ/y3P7pvum56yXBQAAAHA2FfPpuKS3NNrX1fRYT7nw75PN/d+4b12qdrZeT6Ji0Vcf2VEYm4nbZ6uNd03O1tZMzFQvHp2q9s7XGrnZ6kJ2tlLPzs7XU9V6w18SAAAAwEnIZVJRbMo0ivlMrZhL15qyqWpnS26orZjb3lLK/qyYS/2woxQP/eG65XNJec3/DxLaga9FZKmBAAAAJXRFWHRkYXRlOmNyZWF0ZQAyMDIzLTA2LTE4VDIzOjI0OjQ0KzAwOjAwIasPnAAAACV0RVh0ZGF0ZTptb2RpZnkAMjAyMy0wNi0xOFQyMzoyNDo0NCswMDowMFD2tyAAAAAASUVORK5CYII=;" parent="1" vertex="1">
          <mxGeometry x="511.78" y="-784" width="200" height="200" as="geometry" />
        </mxCell>
        <mxCell id="QDwMkbps9LbB6PQ0rVGC-7" value="" style="shape=image;verticalLabelPosition=bottom;labelBackgroundColor=default;verticalAlign=top;aspect=fixed;imageAspect=0;image=data:image/jpeg,/9j/4AAQSkZJRgABAQAAAQABAAD/2wCEAAkGBw8QDRAPDRARDw8OEBMSDQ8OEBIQEQ0QFRIXFhkRGBUYHiggGB4lGxUYIjEhJykrOi4uGSszODMsNykuMS0BCgoKDg0OGxAQGjAdHSYwLy4rLy4tMSstKystKysrLTArKy0tMC0tLS01Ny0uLS8rLS0rLS0tLS0rLSs3Ky0tLf/AABEIAMgA+wMBEQACEQEDEQH/xAAcAAEBAAIDAQEAAAAAAAAAAAAAAQcIAwUGBAL/xABLEAACAgEBAwYHCQwKAwAAAAAAAQIDBBEFBiEHEjFBUWETIlRxgZGzFjVydKGisbLRFBcjJDNCUmJzgpLSFTJDU2ODlKPBwjST8P/EABsBAQACAwEBAAAAAAAAAAAAAAABBQMEBgIH/8QAPBEBAAECAgQJCwQCAgMAAAAAAAECAwQRBSExURIyQWFxgZGx0QYTFBU0UlNyocHwIiMz4UKSgvEWQ2L/2gAMAwEAAhEDEQA/AM4gAAADzm9299Gz4qLXhcia1rpi9OH6c3+bH6err0ssBo25i5zjVTG2ftG+WxYw9V3mjexPtjfDaGVJ8++VcH0VY7dUEuzg9Zels6zD6Mw1iNVGc751z4di0t4a3RsjPpdFObb1k22+lttt+lm/ERGqGZ+QAQEgQIAJQgACBAACAAAAgQAAhAPuwdsZVDTx8i6rToULJc30x6H6UYLuGs3Yyroier77XiqimrbDIm6XKbzpRp2nzY87RRyormx1/wASPRH4S4dqS4nPY/QWUTXh/wDXw8J1tO7heWjsZMT7DmWkoAAAAAAAHXbwbVhh4luTPiq4+LHo5829Ix9LaNjCYerEXqbUcv0jlZLVublcUw1+z8yy+6y+6XPstlzpy7+xdiS0SXUkfQrVqm1RFFEZRGxe00xTEUxshwHtKAAgJAgQAShAAAIQAACAABAgAAQIAAQjAy1ySbxytrlgXS1lRHnYzfS6ddHD91tadz7jk9PYKKKov0Rqnb07+vv6WhirWU8OOVkY51pgAAAAAAMccsuY1Ti0LossnZL/AC4qKX+4/UdJ5O2omuu5uiI7f+lhgKddVTFp1SyQgAgJAgQAEISAAIQAACAABAgAAAhAAQgADutys107Uw7F13xrl8G38G/ra+g0tI2ouYW5TzZ9mtivRwqJhsMfPlSAAAAAAAxbyzr8LhfAu+ms6nyc4tzpj7rLAbKur7sbnSLAABASIQAQhIAAIEAAIAAECAAACEABABAIB92wVrnYi7cqj2sTBiv4K/lnul4ucWehsmfOFOAAAAAAAxby0P8ACYXwL/prOp8nOLc6vussBsq6vuxudIsAICRCACEJAABAgABAAAAQIAAQgAAEIBAAQ+/d9/j2J8ao9rEwYr+C58tXdLzc4s9DZI+cKcAAAAAABinlmn+M4keyqx+ucV/1Or8nY/buTzx3Ss8Bxaupjs6JvBIECACUIByUUysnGuuLlOySjCK6ZSk9El6TzXXFFM1VTlEImYiM5dx7jtp+RXfN+00vWeE+JDD6Ra95PcdtPyK75v2j1nhPiQekWvePcftPyK75v2j1nhPiQj0i17x7jtp+RXfN+0j1phPiQekW/eT3HbT8iu+b9pPrPCfEg9It+8kt0NprpwrvQk/oYjSeEn/2Qeft+863M2dkUrXIoupXbbVOteuSNm3iLVziVRV0TEvcV01bJzfKmZXpSUIAABCAAIEAH1bKs5uVjy/RvqfqsizFfjO1VHNPc818WehsufNlOAAAAAAAw3yuXc7acY/3eNWtOxudkvoaOy0BTlhZnfVPdC2wUft9fg8SXjbCBABKEAAdluv75YXxuj2sTTx3s1z5Z7mK9xKuiWxR89UgBAGpImoSmoH5fHg+h9K7SR5beDcPByk3GtY1z6LaIqKb7ZQ/qy+R95Z4XS2IsTlM8KndP2nbHdzM9vEV0c8MR7x7AyMC/wAFkR4S1dVsdfB3RXWn1NdafFebRvrcHjLeKo4VHXHLH5vWFu5FcZw6o3GQCEAAQIAAH5k+Gq6VxXcyRs/RapwjNdE4qS8zWp8yqp4NUxuUsuQ8gAAAAAGBN/cpW7Wy5J6qNirXd4OEYNfxRZ32i7fm8Jbjmz7ZzXWGpytUw6A32dAAQhIAAh2W6/vlg/G6PaxNPH+zXPlnuljvcSrobEnz1SBIx5fyr40Jzg8a9uEpRbUq9G4vTt7i8p0FdqpieHGvpbcYSqYzzfj77WN5LkfxV/aevUF734+qfQ6t8J99rF8lyP4q/tHqC978fU9Eq3w+nE5VMCbSsryKf1pQjOK/gk38hjr0FiKYzpmJ68u+HmcLXGzW9fszamPlV+FxbYXQ6G4PXmvTXSS6YvuehV3bFyzVwblOUsFVM0zlMZPqMTy6zeLYtWbizx7UvG41z01dNiXizX/3FNrrNrCYmvDXYuU9fPG57t1zRVnDX3Jx51WzqtXNsqnKFi7JRej+g763cpuUxVTsnXC2iYmM4cRkSAQAEAEABDYbcfL8NsrDnrrpRCEn+tWvBv5Ys+f6St+bxdynnme3Wqr0ZVzDvDRYwAAAAcGdlRppsunwhVCU5eaMW39BktW5uVxRTtmcu1NNM1TEQ1vuulZOVk+M7JSnP4Um2/lZ9IppiimKY2Rq7F/EREZQ4yUgQhIAAIEOy3Y98sL43R7WJp4/2a58s9zFe4lXQ2J1PnylNQlrRnL8Pd+2s+uz6NZj9unojuXVHFhw6GbJ6NBkhOaRkOw2Btq7ByI30N8OFleukb4dcJf8PqfE1MXhKMRbmivqndO9juW4rjKWwmJkwtqrtresLYRnB9sZJNP1M4OuiaKppq2xqVMxlOUuTU8jCnKniqva05R4eHprtfwuNb9mdnoS5NWFiJ5JmPv91jhpzoeSLhsIACAABAgAzDyNbR5+Fdjt+Nj286K7K7VqvnKZyHlDZ4N+m5H+UfWP6yaGKpyqz3sglA1QAAAAeF5WtsKrDjixf4TKl4yXSqYNOT9L5q71qXugcN5y9N2dlPfP5n2NzBW+FXwt3ew8dgtQIQkAAECADst2PfLC+N0e1iaeP9mufLPcxXuJV0NiGz58pkQGted+Xu/bWfXZ9Hsfx09Edy6o4sOEzPQACH5keZRLPu5Wq2Vhc7p+5q/Vpw+TQ4LSGXpVzLfKqu8eel3RqMbDXK1cpbVUV0141cZdzcpz+iSOv0FTMYbPfVP2hYYXidbxpdtlAgAAQIAAHp+TjbSxNp1ub0qyF4C3XoXOa5kvRJJa9SbKzS+F8/hpy20646tv0YL9HCo6GezhFaAAAHybV2lVi0TvyJKFcFq31yfVFLrb6kZrFiu/XFuiM5l6oomueDDAW8W2bM3KsyLeHO4Vw11VVa15sPl1fa2zvsJhacNai3T1zvnln85F3atxbp4MOsNlkCUIAABCAAOy3Y98sL43R7WJp4/2a58s90sV7iVdDYY+fqYT4ga2Z35e79tZ9dn0ax/HT0R3Lqjiw4TM9AQjIHbbsbvXZ+Qqq01Umvui7TxaYdfHrk+pf8amljsbRhrfCnbyRvnw3sV27FEZ8rPlNUYQjCC5sIRUYRXRGMVol6kcJVVNUzM7ZVUzm4s/Nropsvulza6ouU5diXZ2t9CXW2e7duq5XFFMZzKYiZnKGve1tozysq7Js4Sum5adPMj0Rh6IpL0HfYazFm1Tbjkj87VrRTwaYh8hsPQAAgAIAIEDRIzdybb3LMoWPfL8bojo9XxyK10WLtfVL19ZxWl9HTh7nnKI/RP0nd4divv2uDOcbHtSla4B4HaXKliQTWNVbfLqc0qq/W9ZfIX9nyfvVT+5VFMds+H1btGBrnjTkxxvDvFk51nPyZ+LH8nVDxa6vMut971Z0eEwVnC08G3Gvlnllv2rNNuMqXUm2yhKEAAAhAAAIdlux75YXxuj2sTTx/s1z5Z7mO9xJ6Gwp8/UxqSMc38lVcrJz+7JrnzlLTwEeHOben9bvOgo09VTTEebjVz/ANNyMXMRlk4/vT1+Wz/9Ef5j3/5DX8OO3+k+mTuWPJRV15tjXdTBf9mRPlDXyW47f6PTJ3OxwOTPZ9b1td2R+rZNQh6oJP5TXu6cxNcZU5U9Ea/rmx1Yqudmp67Exaqa1XRXCquP9WFcVGK79EVNdyu5Vwq5znnYJmZnOXy7Y2zjYkOflXQqX5qb1nPujBcZehGSxh7l6rg26c/zllNNE1TlEMP76b5WbQkq606sWD1jW341sl0Tnpw80ervOs0do2nDRwqtde/dzR4t+zZijXO15gtmcJACAAgABCAAOSi+dc42VSlCcHrCcG4yi+1NEVU010zTVGcSiYidUsj7A5V5wiobQpdunDw9HNU5d8q3ote9NeY5zFeT9NU8KxVlzTs7dvb2tSvDe7L0seU7ZbSbstXc6J6r1cCtnQWM3R2wxej3GGDtV0gAIQkAAECAAEAHY7se+WF8bo9rE08d7Nc+We5ivcSehsKcAp0CQkQCATUkQDoNqbm7OyW5W40Yzl02Ut1T17dY8H6Uzds6QxFri1at064ZKbtdOyWP95uTm/HUrcOTyao8ZVtaX1rt0XCz0aPuL/BaZt3J4N2ODO/knw/Nbbt4mJ1VaniUy9bIBAAQAAhAAAIQAACGZtpclmJNN41ttEupTatr9T0l8pyFnygvUz+5TFUdk+H0a1GOrjjRmxxvDu7k4NnMyYeLL8nbDxq7fM+p9z0Z0eExtnFU52518scsN+3epuRnS6g3GQAAQIAAQAAOx3Y98sL43R7WJp472e58s9zFd4k9DYTU4FUIukga+523c5X2pZmUkrbEksm5JJTfDTnHd2sHYmin9unZHJG7oWlNunKNUOH+nc7y3L/1V38xk9CsfDp/1jwevN07o7E/p3O8ty/9Vd/MPQrHw6f9Y8Eebo3R2OejenaVb1jm5D/aWytXqnqeKtH4arbbjqjLuRNmieR6HY/Kdl1tLMhDJh+dKKVVq7+HivzaLzlfiNB2qoztTwZ7Y8WGvDU/46mT9j7Woy6I340+fXLg+qUJLphJdTXZ/wAHN37FdmvgVxlP5sadVM0zlL7dTE8sW8qG7Man9348ebCctMqEVwjOT4WpdWr4PvafWzp9DY+av2K51xxejd1cnN0N3D3c/wBM9THx0LbQIAAECAAEIByY9E7JxrqjKc5vSEIJylJ9iSIqrpopmqqcohEzEa5ZI2ByUTnFT2hc6tePgKOa5x7pWPVa9yT85zmK8oKaZ4NinPnnZ2be3sateJ92HpY8mOy0knXa+93z1fqK2dO4zfHZDF6RW9mU7A+TauzasqidGRFTrsWjXWn1ST6mupmaxfrsVxconKYeqK5onOGAd49jWYWXZj28ebxrnporanrzZ/Jo+xpnfYTFU4m1FynrjdPLH5yLq1ci5TwodYbTIgQAAgAAAOx3Y98sL43R7WJp472e58s9zFd4k9DYI4FUKukDW/O/L3ftrPrs+iWP46eiO5cUcWHCZnoCEAjREwPX8lu1JU7RVGr8FlxlGUepWQi5xn59FKP7xS6Zw8V2OHy0906p8WriaM6c9zMZybRfHtfBjkY12PLourlDzNrhL0PR+gy2Ls2rlNyOSc00zwZiWu8ejj09a7GfQYWqkgBAgABABGyRm7k23RWHQsi+K+6746vVccet9Fa7H1y7+HUcVpfSM4i55uif0R9Z3+Har793hTlGx7YpWAAAAPCcrexlbhRyor8JiS8ZrpdM2lJeh819yTL3QOJ83em1Oyrvj8y7G5g7nBr4O9h47FZoAABAAAgQ7Ldj3ywvjdHtYmnjvZ7nyz3Md3iT0NgdTglQLpA1xzvy937az67Podj+OnojuW9HFhwmZ6QABAh324VbltfES6pyk+5Rqm39BXaVmIwtf5yww3+JLOWpxKuWPSvOJGuOTJO2xrodk2vNzmfQ7WqiM90LWnZDjMiUCAAEAEA9Ryb7FWXtOtTWtWOvD269D5rXMj6ZNPTrUWVml8V5jDTltq1R17fow36+DR0s+HCK4AAAAHBnYsbqbKZ8YWwlCXmlFp/Se7VybdcV07YnPsTTM0znDW2+mVc5Vz4TrlKE12Si2n8qPpNNUVUxVGydfavomJjOHGegCAABAgA7Hdj3ywvjdHtYmnjvZ7nyz3Md3iT0NgTglQLpA1yzv/Iu/bWfXZ9Dsfx09Edy3o4sOAzPQBAhNfW+hdr7CJnIZW5Nd1rMZSy8qLhdbDm1VyWkqq2025LqlLRcOpLvaXKaXx9N6YtW5zpjbO+ebmj6tG/dir9MbHuikaz4Nv7QWNh5GQ/7KqThrw1sa0hH0yaXpM+GszevU298/Tl+j1RTwqohr5BaI7+Fo/RKEAAAhAAGYuRnZ3Mwrshrxsi7mxfbXUtF85zOQ8ob3Cv024/xj6z/AFk0cTVnVkyEUDWAAAAAAwFv9iqra2XFLRSsVi7/AAkIzb/ikzvtFXOHhLc82XZOS5w9WdqHnywZQABAgAAdjux75YXxuj2sTTx3s9z5Z7mK7xJ6GwGpwapTUDwl/JjiznObyL05ylJpKvROT1/R7y7o05dppiODGrp8WzGJqiMsnH963F8pyPVX/Ke/X173I+vi9elVboPvXYvlOR6qv5R6+ve5H18T0qrdDkq5MMJPx7smfdzq4p+qGp5q07fnZTTHb4onFV8z0GyN2MHEfOx6IqxdFs9bLF5pSb5vo0K+/jsRfjKurVu2R9PuxVXKqtsu3NRjAMUcp280b5rCx5c6qmXOvnF8LLVwUF2qPHzvzHUaHwM2489XGudnNH993S3LFvL9UvCl/DZAAAIQAAA2H3GxPA7Jw4aaa0QnJfrWLwj+WTPn+krnnMXcq55js1Ky7Odcu9NFjAAAAAAwzyvVc3akJf3mLW/O1OyP0JHZaAqzwsxuqnuhaYOf2+t4gvG0AQAEAAIdjux75YXxuj2sTUx3s9z5Z7mO7xJ6GftTglSBKEiagQABUgOq2tvFhYqf3RkVwkv7NPn2v9yOr+Q2bOEvXuJTM8/J2vdNFVWyGNt6eUK7JjKnDjLHplwlNteGtj2cOEF3Jt9/UdDgtD0Wpiu7+qd3JHj+am1bsRGurW8VFaF5ENhSQABCAAAEktVoul8Eu1kwNocepQhGC6IRUV5ktD5lVVwqpneqHIeQAAAAADE/LRD8ZxJdtVi9U4v/ALHWeTs/t3I547pWOCnVUx0dE3QCBAACEA/dN0q5xsrk4zrkpQkumMovVNek8V0RXTNNWuJRMZxlLtXvftPyy75v2Gj6twvw4YfMW9ye6/afll3zfsHqzC/Dg8xRuPdftPyy75v2D1bhfhweZo3Huv2n5Zd837B6twvw4PM0bk91+0/LLvm/YPVuG+HCPM0bke920/LLvQ4r6ET6tw3w4PM0bnxZO18u1NXZWRYn0xnfZKL9Dehmowlmji0RHVD1FumNkPiUDY4L0/Wh6ySgQAAgAgAAEPp2TDnZWPH9K+peuyKMd+crVU809zzXP6ZbNnzVVgAAAAAAMV8tS/CYXwL/AKajqfJzi3P+P3WGC2VdX3Y2OlbyBAACEAAAhAAECAABAAQAQIAAAIQAACEA+/d5fj+J8ao9rEwYr+C58tXdLxXxZbLHzhWAAAAAAAMV8tT/AAuEv1L/AKazqvJziXOmPusMFsq6mNTpG6AAIEAAIQABAAQAQAEAAIQAACEAAAhAAH3bAemdiPsyqPaxMGK/gr+We6Xiviy2XPnCsAAAAAAAY25aMNunEvXRXZOuX+ZFST/236zpPJ27EV1298RPZ/23cFVrmGKjqlgAAhAAQgACAAgAAQIAAECAAEIAABCAABI7vcnCd+1cOtdV8bJfBqfhH9XT0mlpG7FvC3KubLt1Md2cqJbFHz1WgAAAAAAOu3h2TDMxLcafBWx8WXTzJp6xn6GkbGExFWHvU3aeT6xyvduuaKoqhrztDCsx7rKL48y2qXNnHv7V2prRp9aZ9CtXaLtEV0TnE7FxTVFUZw4DIlAAQAQCAAgAAQIAAECAAEIAAAAhABIhAy9yQ7tyqrln3R0nfHm40X0qnXV2fvNLTuXecnp7GxXVGHonVG3p3dXf0NLEXM54MMkHOtYAAAAAAAA83vhufRtGClJ+CyILSu+K14foTX50fo6uvWy0fpK5hJyjXTO2PvG6Wazfqt9DEe2dzdoYsmp487ILotx07YNdvBax9KR1mH0nhr8fpryndOqfDsWFF+3Vy5dLoZwaekk4tdKkmmvQzfiYnXDLmhIgACBAAAgAIAIEAAIAIAABCACR92BsbLyGlj411uvQ4Vy5vpl0L0swXcTZtRnXXEdf22vE10xtlkfdDkw5so37U5snFpxxYPnR1/xJdEvgrh2trgc7j9O5xNGH1f8A14eM62tcxHJSyel2HMtVQAAAB//Z;" parent="1" vertex="1">
          <mxGeometry x="508.23" y="-500" width="203.55" height="162.19" as="geometry" />
        </mxCell>
        <mxCell id="QDwMkbps9LbB6PQ0rVGC-8" value="" style="shape=image;verticalLabelPosition=bottom;labelBackgroundColor=default;verticalAlign=top;aspect=fixed;imageAspect=0;image=data:image/png,iVBORw0KGgoAAAANSUhEUgAAASwAAAEsCAYAAAB5fY51AAAgAElEQVR4Xu2dCXRV1b3/vychQBIgAW5kEBlkEq1InRCsDM4k8sQWW22tbV2tQ9t/Bey/Rd97/4Xt89VnNaHVPm1fX9V/bZ/av4rFBJwqilZAUEFEphAIme9NcjPcIbnD+a99AxUFcu+5+5x99t7nd9ZyLddiT+f7+51P9j53n/01QBcpQAqQAoooYCgyThomKUAKkAIgYFESkAKkgDIKELCUCRUNlBQgBQhYlAOkACmgjAIELGVCRQMlBUgBAhblAClACiijAAFLmVDRQEkBUoCAJS4HFojr6rieggA+zLD/GQBGZVjW6WLNAD7JsJMvAijKsKzTxQ4BqHG6Ey+2T8ASF3VTXFfH9fQ2gEsy7P/PAG7MsKzTxdhYvpFhJ+weL86wrNPF7gdwt9OdeLF9Apa4qBOwrGtNwLKumdY1CFjiwkvAsq41Acu6ZlrXIGCJCy8By7rWBCzrmmldg4AlLrwELOtaE7Csa6Z1DQKWuPASsKxrTcCyrpnWNQhY4sJLwLKuNQHLumZa1yBgiQsvAcu61gQs65ppXYOAJS68BCzrWhOwrGumdQ0ClrjwErCsa03Asq6Z1jUIWOLCmymwtgKotHlY7FORxzNs8z4A92RYtr9iTwI4yNnODgDPZ9jGHwHclGHZ/or9GkA7ZzsbAbzO2QZVP4ECBCxxaZEpsB4F8H1xwzquJ5YTbGZzA+cY6o98KsNgKeIaBGA9AN5vNj8+8hkTL7RE3LPn+iBgiQu5KsBiiqgMrbUAruAMK0GLU0CnqhOwnFL2+HZVAtZRaD0B4GZOiUTPtPKOLKntgBabrQU475+q26gAActGMdM0pRqw7IbWPAAHBMltF7T2APgSQUtQ1DLohoCVgUg2FVERWHZCi51tNZegZVM2ebQZApa4wKsKLNWh9QKAMs4w00yLU0C7qhOw7FIyfTsqA+sotH4L4Hvpb7XfEqJnWgMArLEJWvMBsPHT5ZICBCxxwqsOrKNK/c4maLGHn81cRFx2QYu9g2PLWoKWiKidoA8CljjhdQEWU8wOaLFf39gLbYKWuBxUvicClrgQ6gQslaH1LIDrOMNOMy1OAbOtTsDKVjnr9XQDFlPgYQA/tC7FZ2qInmnlAviLTdBiWzXYPjO6BClAwBIkNAAdgWUntNgmTbbDXMRlF7TYZ0fMqYegJSJqRz7BENSV57vRFVh2QYt9u8esyAhann9UTi4AzbDEJYfOwFIZWk/Z8KE3zbQEPUcELEFCa7wkPFbBXwL4Maekomdadn3ozaDFtmqIOp2CU2Y1qxOwxMVN9xnWUSXtgtalAD4UFB67oCX6Q29B8sjTDQFLXCy8AiymqB3Q6jwyYyFoictR6XsiYIkLUabAcmJEbx95oZ1J2+zwvhszKSigDB2RLEBklbogYImLFgHLutYELOuaaV2DgCUuvAQs61oTsKxrpnUNApa48BKwrGtNwLKumdY1CFjiwkvAsq41Acu6ZlrXIGCJCy8By7rWBCzrmmldg4AlLrwELOtaE7Csa6Z1DQKWuPASsKxrTcCyrpnWNQhY4sJLwLKuNQHLumZa1yBgiQsvAcu61gQs65ppXYOAJS68G8R1dVxP2wHcmWH//wLg8gzLOl3sVQD3ZdgJO0zw7AzLOl2MnQDxe6c78WL7BCwvRp3umRRQVAEClqKBo2GTAl5UgIDlxajTPZMCiipAwFI0cDRsUsCLChCwvBh1umdSQFEFCFiKBo6GTQp4UQEClhejTvdMCiiqAAFL0cDRsEkBLypAwPJi1OmeSQFFFSBgKRo4GjYp4EUFCFhejDrdMymgqAIELEUDR8MmBbyoAAHLi1GneyYFFFVAOWCNWFF1UU7SGKyo3jRsUkAaBZI5ZrStvHSTNAPKYCDKAatkReWHgHFOBvdGRUgBUqBfBczt/vKyWSqJpCCwqtYDuEolkWmspICkCrzsLy+9WtKxnXBYygHLt6LqaQP4mkoi01hJARkVMIFnAuWlN8g4tpONSTlgjVxetTrHyPj0TJViQWMlBYQqkDTxq9aK0mVCO+XsTEFgrVuZY5i/4Lxvqk4KeF6BpGnc3Vqx6H6VhFAPWCsqv50D43GVRKaxkgIyKpCE+Z3W8rInZBybNkvCEcsrr841jHUqiUxjJQVkVCBhmovaKsrYj1jKXMrNsNg+rFzgXWUUpoGSApIqkADm0D4sh4NTvGzdxLwcs8bhbqh5UkB7BWJJY1Jw9aKDKt2ocjMsrHpjcElnJKKSyDRWUkBGBfzD8vOxamFUxrFp8w6L3YhvRVXQAIpUEprGSgrIpIAJdATKS4tlGlMmY1FvhsWAtbxqt2FgeiY3SGVIAVLgeAVME3sCFaVnqKaNosCq3GQYxmzVxKbxkgKyKGCa5uZARdlFsown03GoCqw1hmFcm+lNUjlSgBT4rAKmab4YqChbopouagJrReVjBozbVBObxksKyKKACfO3gfKy22UZT6bjUBJYJSuq2OcEP830JqkcKUAKfG6GBfPeQHnZKtV0URJYvhVVywygQjWxabykgCwKmKZ5R6Ci7DFZxpPpONQE1vJ1NxiG+T+Z3iSVE6/AsHEjxHfqgR7jkRjCrV3cd2qaxo2BikVPczckuAE1gbVs3QIjx3xDsFbUnQUFxs+eZqE0Fc1Uge6WDrTVNGda/KTlzKSxMLB60QbuhgQ3oCSwRt718hk5ZuITwVpRdxYUIGBZEMtC0Y76NnTUBSzUOHHRpJE7o/Whq3ZzNyS4ASWBVfK/K0cjYTQK1oq6s6AAAcuCWBaKth30o7u53UKNExeNJfOHB1cvDHI3JLgBJYGFVW8M8HVEwoaBPMF6UXcZKkDAylAoi8X8+xoRaeN8h2Wix19RqqTzlJrAAlCyvLIJhjHKYrypuCAFCFjOCN38yWH0dHJ++2+azf6KstHOjNDZVtUFFtl9OZsZnK0TsDgFPEn1hh0HEY/0cjaunr3X0RtWGFhk98WZtY5WJ2A5I2/dtmok4wnexpWz91IeWGT3xZuzztYnYNmvr2maOLxlH3fDKtp7KQ8ssvvizltHGyBg2S9vIhZH/fsHuBtW0d5LA2CR3Rd35jrYAAHLfnF7Qj1o3nmIu2EV7b3UBxbZfXEnrpMNELDsVzfSEYJ/dz13wyraeykPLLL74s5bRxsgYNkvb3egE23VTdwNq2jvpT6wyO6LO3GdbICAZb+6nY3tCNb6uRtW0d5LeWCR3Rd33jraAAHLfnnbawPoamzjblhFey/lgUV2X9x562gDBCz75W2tbkIo0MndsIr2XuoDK/V5TlUUBgZxR5AasF0BApbtkqJldz2iHSGuhlW199ICWL4VlQcNGBO4IkiVHVGAgGW/rI0fHUIs3MPVsKr2XnoAa7k8dl/fmzMayxecxpVMOlX2+Xw63Q7XvTyyoxVP7OY/yaX+gwNI9Ma5xqKqvZcuwJLG7uvLM334t7JJXMmkU2UC1qfR/Nl7LfhrDeeRMABqt+wFTL4sUdXeSw9gSWT3tWBKMf7z+ql82aRRbQLWp8FctrERbzeGuaKbTCRQt7Waqw1WWVV7Ly2AJZPd18yxhXj6W2dyJ5QuDRCwPo3kza/VYVcb37unWDSGxu013OlhKmrvpQWwZLL7Glc8CK/cMZM7oXRpgID1aSSveekQmsJ8756iXRG07DrMnR6q2nvpASyJ7L4G5BjY8dPzuRNKlwYIWJ9GcvZfqpHgfPcUbu9GYG8Dd3qoau+lB7Aks/t6765zUTgwlzupdGiAgNUXxVDcxPzn+Y+E6WoJor2mhTs1VLX30gJYstl9vXzHTJxWTPtYWXIRsPoesbruGJZU1XKDpqO+FR11rdztqGrvpQWwZLP7+p+bZ+CcU4dwJ5UODRCw+qK4ozWKW17nPxKmraYF3S38e7lUtffSAliy2X39ZulULJxarANvuO+BgNUn4Yb6EH78Dv+RMIF9DQi3dfPFRWF7Lz2AJZnd189LJ+Er59AOb1oSfsqV56s78e/b+I+EadpVh94uvr1cUNjeSx9gSWT3tWz+ONw6dwzfX0FNatMMqy+Qv9/Vjsd28h8J07D9IOJR79p7aQQseey+bjp/FO65YrwmyOG7DQJWn34PvB/As/s7+MQEcHhrNcyEd+29tAGWTHZfpWeOwIPXTuZOTh0aIGD1RXHlu8147TDfuyey9/r0iVDWSPXoLchk93XRxGH4w43TdeAN9z0QsPokvO2NBmzz81nLsxMa2EkNvJfK9l7azLBGLpfH7mtaSQHWfPcs3rzSoj4Bqy+MS9fV4mBXjCumvaEomnby7+VS2d5LH2BJZPc1sjAPG380iys5dalMwOqL5GVratDRm+QKayQYgn8P/14ule29tAGWbHZfH688H4ah/Eqb6wFjlQlYAHv3dMFf+JdyZO+l0TusEZLZfbEZFptpef0iYAGBaAJX//UgdyqQvZdGwJLN7uvF734BU0vyuZNU9QYIWMDeYC++/gr/kTBk76URsGSz+3r869Mxe8Iw1XnDPX4CFrCpOYIfvsl/JEzrgSaE/N6299LmHRa7EZnsvtg+LLYfy+sXAQuoOtSF/7OZ/0gYsvfSaYbFXvBKZPfFdrqzHe9evwhYwFN7gli9nf9ImMadhxAL8R2xrLq9l1YzLJ9Edl/sW0L2TaHXLwIW8PCOVjxpg71X3QcHkPS4vZduwJLG7mvprBL8bNFEr/OKtjUAWLWlBS8dJHsvOx8GLTYM+SSy+7p0ajEeWUp2XzTDAu7c2Ih3uO29kqjbup/7mVfd3kurGZZMdl9jiwbhupkjuRNM9QbGTJXLBZuZhNwyY7hQWW2x94r0onEH/14u1e29tAKWTHZfQp8IiTsbP3uaVKMryc/FusVil+qLXzqERm57ryhadvF/R6i6vZdewJLI7kuqp9TFwcgGrOnFA/GnK8XO+myx92rrBjsemfdS3d5LL2BJZvfFm1w61JcNWHNGF+DheeJOgw3HTcyzw96ruQPtB5u5U0J1ey+tgCWb3Rd3dmnQgGzAKpswFPfOPkWYsnWhOJZUHuLuj+y9PiuhFr8Symb3xZ2lGjQgG7Buml6MZeeI+zHko9YovmOHvdfBFnQ3k72XVjMs2ey+NOAN9y3IBqw7zxmJb04XZ8Fml72Xf18DImTv9Y981GKGxe6mZHllEwyDvonhRo09DcgGrFUXnoJrJg615+YyaOWFA524b6sd9l6H0dvFd8SyDvZees2wGLAksvvKIJ+1LyIbsH49bwzmji4Qpvt/72rHo3bYe+04iHiE7L00BJY8dl/CngqJO5INWE9dOQ5nFA8SptgvPwjgmX022Httq4YZJ3sv7YAlk92XsKdC4o5kA1bV4ok4JT9XmGJ3v9uMV8ney3a9tXmHJZPdl+1RUrBB2YC1aenpYJ/niLpu39CArS18754SsTjq3+c/E14Hey/tZlgy2X2Jeihk7kcmYA3Ny8Eb100SKtf162tR08ln79UT6kHzTv69XDrYe+kHLInsvoQ+GZJ2JhOwJgzNw3OLxgtV6vI1NQjy2nt1hODfTfZexwZO3BzZ4XSRze7L4duVvnmZgDXLNxi/v/RUYZrZZu/l70TbgSbucSdMc1FbRdl67oYkaEAfYElm9yVBbF0dgkzAumxcIf5j7mhhepC9l3NSawMs2ey+nAuZGi3LBKylU4Zh5bklwoTb19GLG1+2wd7rcABdDW3c444ljUnB1Yv4D9XiHgl/A9oASza7L/7QqN2CTMC69awRuPUscYf3bW6O4Ad22HtVNyMU4N/L5R+Wn49VC6NqZ1Tf6PUBlmR2XzokB889yASsleeVYOlkcV6R6w5141838x8J07ynHj3BEE8YYAIdgfJScR9Rco02fWWtgCWT3Vd66fUuIROwHpg7GpeOKxQm+J/2BlHxoQ32Xh/VIhbmmxjpYu91NHh6AUsiuy9hT4ekHckELPYLIfulUNT1yI5WPGGDvVf9BweQIHuvz4RNN2BJY/cl6uGQtR+ZgPV86XiMH5InTKp7t7RgLdl7OaK3XsCSyO7LkWgp1KhMwNpw3SQMycsRpt6yjY14m9feK55A3bZq7jHrYu+l5ZJQJrsv7kxTvAFZgJVrAJuvnyxUTVvsvaIxNG6v4R63LvZeWgKL7L6489u2BmQB1qj8AahcPMG2+8qkoWteOoQmbnuvCFp28e/l0sXeS09gkd1XJs+TkDKyAOuM4YPw1BXjhNzz0U7ssPcKtXWjley9joubXu+wyO5L6IPZX2eyAIudMspOGxV1heIm5tth79USRHtNC/ewdbH30nKGRXZf6fP7yW+cgQvGO3+2uc/nSz8YDUvUh+K4luy9HIusVjMssvtKnycErPQa8ZTY2dqDb79ex9NEqm4b2XudUEOtgEV2X+mfk4e/MgWXTXP+uzqvzrDeaghjxduN6QORpoR/fyMirV187Zjo8VeUitsxyzfajGrrBSyy+0ob9B9ccip+8KWxacvxFvAqsNYc6MS/kb0Xb/qctL5+wCK7r36ThYDl2LOUavgPn7TjPz/iPxKmgey9PLAkTPkTkt1Xf4/kdTN9uK/M+fPNvTrDevCDAJ62wd6L7XJPkr3Xcams3QyL7L76n0GwXwjZi3enL68C6553m/EK2Xs5ll7aAYvsvghYjj0tGTRM9l4ZiMRRRENgrVuZY5i/4NBE66qnFg3Cq9+f6fg9enWG9bX1h1HdyWctT/ZeJ09P7YDlW155u2EYjzr+RCrcwa67L3B89F4F1uUv1iDYk+TSN0L2Xt75lXDkXVVLcky8wJUxmlcmYDkTYLL3ckbXY1vVboY1guy+0mbNc7echRmjCtKW4yngxRlWW08CV77Ib07T2diOYK2fR/5U3QQwp628dBN3QxI1oB2wyO4rfXaJ+DzHi8Da39GLG8jeK30CcpTQDlhk95U+GwhY6TXKpsSW5gi+T/Ze2UiXcR39gEV2X2mDf/fl4/HNC0alLcdTwIszrPW13fiXTfz2Xi176hEle68Tpp+WwCK7r/5RI+LzHC8C6897O1D+YYCH86m6jWTv5Z1fCdmd+sjuq9+HhoDFzZQTNvDIR2144pN27sbJ3uvkEuo5w1peSXZf/Tw2Ij7P8eIM6+fvteDFGs4jYQDUbtkLZtnMc5mm+WKgomwJTxsy1tUTWGT31W+uEbCceRTJ3ssZXY9tVUtgkd1X/4lDwHLmwfrWa3X4uK2Hq/EY2Xv1q5+WwCK7r/TPjNO73b24JFz80iE0kr1X+uTjKKEnsMjuK21KELDSSmS5ANl7WZbMcgU9gUV2X2kTYfOKczF0UG7actkW8NoMKxw3MY/svbJNl4zraQkssvtKH3+nd7t7DVh1oTiWkL1X+sTjLKElsMjuK31WELDSa2SlxI7WKG55vd5KlROWbTvYjO7mDu52Ysn84cHVC4PcDUnWgJbAIruv9FnmtN2X12ZYG+pD+PE7TemFT1MisK8B4bZuvnY0tPc6KoiewCK7r7QJz7Y2XDhhWNpy2RYYM3VctlVtqXfpuCGYUjTQlrYyaeSFA524zwZ7r+ZP6tDTGc6ky5OXMc1mf0XZaL5G5KytL7DI7svVjBs/e5qr/f/qkjG4eIyzZ34de4OPf9KO35C9l+Mx1xhYZPflePb004HbwHrqinE4Y/ggYRKQvZcYqbUFFtl9iUmgk/XiNrAqF0/AqPwBwkT4503NeLmW790TO2L58JZ93GM2gWcC5aU3cDckYQPaAovsvtzNNreBtWnp6RiQIy69yd5LTL6Ji6iY+/lHLyOXk92XYMk/052bwBqal4M3rnPe3frYG/7q+sM4QPZejqectsAiuy/Hc6ffDtwE1oSheXhu0XihApC9lxi5tQUW2X2JSSAZ32F9sWQw/mvhqcIEsM3eK9CJtmr+vVwJ01zUVlG2XpgAAjvSFlhk9yUwi07QlZszrMvHFeL+ueK2IbVGE7jqr2TvJSLjtAUW2X2JSJ+T9+EmsK6fUoSfnusTJsC+jl7caIe9V20AXY1t3OOOJY1JwdWL+AnKPRL7G9AWWGT3ZX+yWGnRTWDd/oUR+O6Zw60Ml6vspuYIfmiLvVcTQoFOrrGwyv5h+flYtTDK3ZCEDegLLLL7cjXd3ATW3eeV4CuTnfvs6PPCrjvUjX/dbIO91+56RDtCXHEzgY5AeWkxVyMSV9YaWGT35V7muQmsBy8ejQWnFgq7+af2BLF6eyt3f40fHUIszHfEsmliT6Ci9AzuwUjagN7AIrsv19LOTWD94bJTMXPkYGH3/usdrfi/u/lPcql7/wCSsTjXuE3T3ByoKLuIqxGJK+sOLLL7cin53ATWmtLxGDckT9idr9rSgpcOkr2XCMH1BhbZfYnIoRP24Saw3vry6SgYIC61f/RWI/7exHckTCKeQP22au54mTB/Gygvu527IUkbEBdVFwQguy8XRD/SpVvAyjWAzddPFnrjN71ah93tfO+eYpFeNO7g34lgwrw3UF62SqgAAjvTGlhk9yUwkz7XlVvAGlMwAGuvmSD0xkvXHkRLJMHVZ7QrjJZddVxtsMqmad4RqCh7jLshSRvQG1gS2X2xkwN2/PR8oWmw9PGPsYtzqZLtgN0C1ozhg/DHK8Sedkr2XtlmifV6egNLMruv91aci0IHrbU+H/7bntmLjQf4DQ2spxXgFrDYKaPstFFRVyhuYj7Ze4mSG1oDSza7r/W3n43xw8X93H7PSzVY81FAWDId25FbwLpm4lCsuvAUYfdc1x3Dkqpa7v466lvRUce/lytp5M5ofeiq3dwDkrQBrYElm93Xn2+egVmnDhGWCg/+7TD+sJn/6/9sBuwWsL51RjH+18yR2Qw5qzp22Xu1H/Kjq6k9qzEcW0lXe6+j96g1sGSz+3pk6VRcOlXcVxMMVgxablxuAWvZOSNx03RxGttm77W/CeFWzu8INbb38gawJLP7unfRRFw/q0QYP9hykC0L3bjcAtbPZp+C0glDhd3y89Wd+Pdtfu7+yN4rMwn1nmEB8C2v2m0YmJ6ZHM6WunP+ONw2V9wL4beqg7j9WX5Tg2xUcQtYj8wfi4tG5Wcz5Kzq/H5XOx7byX8kjB3fEQLmdn952aysbkSRSl4A1gbDwHwZ4vGN80/BP18hbo8Q29LAtja4cbkFrD9feRqmFYszUP3lBwE8s4//l9i6bdVIxvn2cgF42V9eerUb8RbVp/7AWlH1tAF8TZSg/fWzaMYIPLRE3C7sps5eXPqb7a7culvAWv9PE+EbnCvsnu9+txmvHpbD3gsmnvRXlH5b2M270JH2wJLJ7uvCCUPxxNfFnfwRSyRxzgPbXEgr9/ZhvXf96TAMcWl92xsN2OaPcGkcj8XR8P4BrjaOVP4Pf3npSjsakrUNcZF1SQGZ7L6m+PLx1+99QagSF5a/j+4e7qWG5TG7McMqGpiD15eItfe6fn0tajpjlvU5tkJvuBdNH/F/R5g0jbtbKxbdzzUYyStrDyyZ7L5GFOTh7TvFvhO9+rEdqOX8MDebHHYDWBOH5uH/ibb3WlODYG8yG4n+USfSEYZ/N/93hEmY32ktL3uCazCSV9YeWLLZfX288nyhS5ab/vgJ3q/je8eSTQ67AaxzSwbjdwrae4VaO9G6n3+Dr872XkdzUHtgyWb39daPZsFXKO5wuTuf349X9/DvoLYKLTeAdflpQ3D/nFFWh5p1+UA0gavJ3itr/bKpqD2wZLP7WvPdszCtpCCbWGVV5971h/DMBy1Z1eWp5AawvjqlCD9R0N4reNiPzgb+Pyo623t5ZoYlm93Xf984HXMminN0efitejz6TgMPe7Kq6wawVLX3ChxoQtjP+VmO5vZe3gGWZHZfv7z2dJSdKe7j3D9ta8Z9r/CfJmCVWm4A657zSvBlFe299tQjGiR7r0xyTPslIRNBJruvuy8fj29eIO49y7s1HfjBc9WIxsRubRANrMG5BlZfMgbnnyLus5w/7Qmiwg57r521iIX4fE91t/fy1AzLJ5Hd1/fmjMHyBWJPxGSw2nSoC2/sC+L1fUG0hfj2DWXyl1AEsE7JH4B5pxZi3piCFKgGsgPdBV6P7GjFEzbYe9V/eACJHrL3yiR0YiOcyYgcKONbXimN3ddXzvHh56ViNzceK6lpAjubQil4bdjfgd3NfEuRk4XLCWCxZD1r5OAUoL40tgDTigc5kC2ZN3nvlhasJXuvzAWzoaQ3gCWR3dfCqcX4zdKpNoTOniZaunvxyu42bDzQhY3V/GagR0dlF7DyB+RgzugCXDKmABePLcAIgUdMp1N42cZGvN3IZ++VTCRQt5XsvdJp7akloUx2XzPHFuLpb52ZaXyElgv3JvDuwc7UzOuN/XxLRx5gjSoYkLKaZ5A675R85OXI+Xf15tfqsKuN094r2ovG7fyf5ehu7+UpYMlk9zWueBBeuWOmUBBl0xlbOn7cFMKb+zuwYX8w9f9WLivAYjw6my31xrKZVCFOLxJ3PIyVe/p82WteOoSmMN+7p2hXBC27+E+F1d3ey1vAksjuq2BgLrbedS7Pc+JKXX93DOxAQDb7+vvBTkR6+//VMR2wCvNyMPeYpV7RQHFHwtgloB32XuH2bgT28u+TM03jxkDFoqftujdZ25Fzrm2zWj7J7L62/+Q85OXm2HyX4prrjSexpbYTb1Z34m9729HY2Xtc5ycC1tjCvL6l3tgCfNE3GMyrUdWL7L3ciZy6GWNBL9nsvtiSkC0Ndbn2+yOpZSP778P6EJKmmfIlZDya5ctPAWre2EJMGCruG0qntT3cHcN1ZO/ltMzHte8JYMlm9/X0zTMwU6Ddl8is6ozGU1smTps8DnPGFGBonrozyf502xGI4pa/1XNL23awGd3N/Ecs627v5al3WLLZfbFtDWx7g86Xz+fT+fZgm73XvgaE2ziP//GAvZe3gCWZ3RfbOMo2kOp86Q6s56o78Qsb7L2adh1GbxffEcswzWZ/RdlonfPJc8CSye5r2Ypy+AAAAAu4SURBVPxTcevcsVrnl+7Assveq2HHQcQjx/9oYS059Lf38iKwpLH7Yh8/s4+gdb50B9YD7wfw7H7+d09k72XtKfDES3cmiU8iuy92vAw7ZkbnS3dgrXy3Ga+RvZfwFPYMsGSy+2IH+LGD/HS+dAfWrW/U430/35Ewid446j8gey8rz4GHgLVuZY5h/sKKOE6VZUcks6OSdb50B9bSdbU42MV3TE9PqAfNOw9xp4EX7L08+A6r8nbDMB7lzg4bGmAmFMyMQudLd2BdtqYGHdz2XiH4d/Pv5fKCvZfngOV1uy/RcNQZWKZp4oK/8C/luv2daDtA9l5WctMzS0LZ7L7+6WwfrphWjLkThyFfwQ9/0yWZjsCKJkxsagrjb3UhVB3qSidB2n/vbGxHsNaftly6AglgTlt56aZ05XT4d88ASza7r6PJMzA3B7MnDE3tfF8wpRijh6lxtEq65NcFWC3hON5qCOGtxjDea44gljTT3XrG/95+OICuhraMy5+soBfsvTy3JJTN7utkyTdjVEEKXuy/M0cVwlD0T4qqwGI4+qStBxsbwylQ7WnnO6CvPxq1VjcjFODfy+Uflp+PVQv5frLkxqaYBhR9HLITp2R5VRQGlDkmwTdkIC6dWoSFU4pTs7DBeeqcGaUSsHoSJrY0h1OQYt8ItkXFOAw176lHD9l7WXqYPQUsmey+LEUJSMGKve9aMLUI8ycXoWSI3EtH2YEViMbxdgObRYWxuTkMBi3RV+NHtYiF+SZGXrH38t6SkO12l8jui+fhYMvEs8cMwYIpfbOv6aMKeJpzpK6MwNob7Ol7H9UQTi37xCPqs1KzTaNs8yjPZZrm5kBF2UU8bahU11szLInsvuxMklFDB+KyacOxYMowXDhhGNiLfLcvGYDVmzSxtSWCjQ1hvFkfQkuEDw52a1q7ZS94qWma5ouBirIldo9N1va8BSyJ7L6cSgh2ZvyXTi/CgslFmD+lCMML3Dnl0y1gtfckUks99j7q3aYwIvGkU1JztZuMJ8A+fOa9TJi/DZSX3c7bjir1PQUsmey+RCRIjmFg1rghKXgtmFqMKT5xNu4igXWgo/cfWw92tkZh484Dx8IUi8bQuL2Gu32v2Ht58x3WiqplBlDBnSWKNjC2aBAun9a3ZeK804Y6agLhJLDYXqhtbKl3ZOtBY0iupV4m6UH2XpmodHwZT82wfBLZfWUXLvtqDRmUi/mT++B1yeQiDLXZUdluYLVGE3inMZSC1KamiLRLvUwjFGrrRus+svfKVC9PzrBGLK+8Otcw1lkVyQvl50xivzgOS0HstOGDuW+ZF1jsFzy2aXNjQx+kZPhVj1uUYxroagmivaaFu0kzaSwMrF60gbshRRrw1AyrZFnlLOQYHygSG9eGefrI/NQL+3mTi3DuuKHIy7WeJtkAi32rt6Wp74X5mw3iNnC6IXRHfSs66lq5u04auTNaH7pqN3dDijRgPRMVubETDVM2uy8VpGRLx4sn9W1WZUvHkYWZ/eqYKbDY+6e3jyz17P5WT2Z9yd4ru+h4Cliy2X1lFzL3ah3dsMpmXmwG1t+3jicDFvsFj/2Sx2ZRbLm3v4PXgME9PXh6DpC9V1byeQtYktl9ZRUxiSqxbx3ZzIv9x459Ljzmxf2xwOqOJVN7ohik2B6pzl4x3+pJJNVxQ2naVYferjDfED1k7+XJl+7spmWy++LLVrlqs/dc548fltrzxWZgJWNGpfZGvcOOZWnh9N2T61ZtGQ3Ze2Uno+dmWL7lVdLYfWUXMjVqjZ89TY2BujTKw1urYSa4Z5ov+8tLr3bpFlzp1nvAksjuy5WIC+qUgHVyodkRy4e37OOPhIkn/RWl3+ZvSJ0WPAcsmey+1EkT6yMlYJ1cs3hvHA1k72U9qQB4EFjy2H1lFTFFKhGwTh6o3lAUTTtruSPpJXsvD790l8fuiztjJW6AgHXy4ESCIfj3kL1XNunrvRnWXVVLcky8kI1YVCdzBQhYn9WKHScT7QghHAwj2h5Ckv+FOxKmuaitomx95lFRv6TngCWb3Zf6KXTiOyBgAfGeGCLtDFIh9HaGwV6223l5yd7Ls0tCWe2+7ExkGdryIrAYj3rD0RSkIsFuxELOOe6wGHvJ3suzwFLF7ksG6PCMwSvAMpNJRDrCiAZDCLd3Ixnj3luVsexesvfyLrBSn+eoZfeVcQZLVFBnYDHjCDaDigTDKVghKf4YZhPoCJSXFksUciFD8dw7LKaqynZfQrLChk50A1Ys3JOaQbFf+Hq7+ay5bJAXXrP38vQMSxe7LzsS36k2VAcWW+pFOyMpQLF3UonemFNSZdWu1+y9vA6sNYZhXJtVplCljBRQEViJWByR1CwqjCj7VS8hfqmXkbgA+8XRU/Ze3gaWB+y+Mk18p8qpAiy26zzcHkq9NGe/8PH6BDql5+fb9Zq9l6eB5TW7L1EP0bH9yAqsT3/VC6denPM6L7uhLevTa/ZengaWz+N2XyIeMpmAFe9lGzj7th5EOt35Vc9uzU3TvCNQUfaY3e3K3p43fyUkuy/H89JNYB3dwMk+gQkL2MDpuJgn6MA0jRsDFYuedqNvN/v0JLBG3lk528gxXjEMDHNTfJ37Fg2sZCKJaAfbF8V+1RO7gVN0HE0TnWbSvLL1V2WbRfftdn+eBFZK9Fu35o0sDMyHkVicAywGjEluB0On/kUAK/WtHtvA2R5GT2cEpinvr3r8sTVrksBamLlrW0O+N/G78+XaZ8F/gxm14F1gfU6e4T9+6QsDksZimMZi0zBnGzByMlKQCp1QASeAxT4eZr/qpfZGBUOOf6vnZmhNmEnDNDbDMNfGc8y17Q9es9PN8cjSNwHrBJEYetda3+BkDpt1LQZwBQwMkSVgqozDLmCxY1hSSz32GQw7liUeV0UC6+M00Q3gVcBcG81Jru16aHHAeiN61yBgpYvvqmcHjuwYNo+WjumE+uy/8wAr3tN75FiWsCPHsli7E6dLH7PUK+p8C6u+6k2jxgxlJmBlKNTRYrR0zEwwK8BKLfW6o6lzo6Lt3YhF9H1maamXWf6crBQBi0M/WjqeXLx0wGK/6h19F2XXCZwcoXS2Ki31bNOXgGWXlKueHVgSHHKZmcN+ccQ1BnCaXU2r2M6JgMVmTuxXPfZOin1YzI4c0PUygcMAXjKSWOsv7n6dlnr2RJqAZY+Ox7Xi9aUjAxZb6vV0RfoOtwuGEKelnkPZ5p1mCVgCYu3FpWOhb1jfBk6JTzzgDj0t9bgltNoAAcuqYrzlaenIq6Cr9Wmp56r83jNSdVfu43v3+tJRtnh8fjz0q55cEaIZlkTx8OLSUSL5Px0KLfWkDAsbFAFL1tDQ0lFoZGipJ1TurDsjYGUtndiKJSuqvmiaqS0T7L/zDIP+2PBEwDRTZ4tuA7DWMLDWX176AU97VFeMAgQsMTrb2kvhna+NKsjpKaVvHS3KesxSL5wcVBX61eXNFlug4i4rQMByOQDc3dPSsV8JaanHnWFSNUDAkioc/IPx+tKRlnr8OSRzCwQsmaPDOTa2dMzPiV0LI7nYMHEZDCOfs0k5q5tmxDTwOsyctZFk3ou01JMzTHaMioBlh4oqtLH87/klZnCBLt86fmapZxRvQMXciAphoDHyKUDA4tNP2dqqLR1pqadsqtk6cAKWrXKq2Zi0S0da6qmZUA6OmoDloLhKNu3y0pGWekpmjbBBE7CESa1mR04vHWmpp2ZeuDVqApZbyivYr21LR1rqKRh9OYZMwJIjDuqNYvnf831GxxVAklmjlRkGxvR3E6aJRhhmJZCzNmAWvUq/6qkXchlGTMCSIQrKj8E0Slasm3Xst45HbumYb/UWfQgY+p6JrHwM1bgBApYacVJqlL6fvDKWDTjwwJUNSg2cBiu9AgQs6UNEAyQFSIGjChCwKBdIAVJAGQUIWMqEigZKCpACBCzKAVKAFFBGAQKWMqGigZICpAABi3KAFCAFlFGAgKVMqGigpAApQMCiHCAFSAFlFPj/4PxyO51r4ZEAAAAASUVORK5CYII=;" parent="1" vertex="1">
          <mxGeometry x="508.2300000000001" y="-290" width="205" height="205" as="geometry" />
        </mxCell>
        <mxCell id="QDwMkbps9LbB6PQ0rVGC-15" value="" style="edgeStyle=orthogonalEdgeStyle;rounded=0;orthogonalLoop=1;jettySize=auto;html=1;entryX=0.5;entryY=0;entryDx=0;entryDy=0;" parent="1" source="QDwMkbps9LbB6PQ0rVGC-9" target="QDwMkbps9LbB6PQ0rVGC-5" edge="1">
          <mxGeometry relative="1" as="geometry" />
        </mxCell>
        <mxCell id="QDwMkbps9LbB6PQ0rVGC-9" value="&lt;font style=&quot;font-size: 48px;&quot;&gt;API&lt;/font&gt;" style="ellipse;whiteSpace=wrap;html=1;fillColor=#FFFFFF;" parent="1" vertex="1">
          <mxGeometry x="90" y="-1030" width="170" height="150" as="geometry" />
        </mxCell>
        <mxCell id="QDwMkbps9LbB6PQ0rVGC-19" style="edgeStyle=orthogonalEdgeStyle;rounded=0;orthogonalLoop=1;jettySize=auto;html=1;entryX=-0.005;entryY=0.472;entryDx=0;entryDy=0;entryPerimeter=0;" parent="1" source="QDwMkbps9LbB6PQ0rVGC-5" target="QDwMkbps9LbB6PQ0rVGC-4" edge="1">
          <mxGeometry relative="1" as="geometry" />
        </mxCell>
        <mxCell id="QDwMkbps9LbB6PQ0rVGC-20" value="&lt;span style=&quot;font-size: 24px;&quot;&gt;&lt;b&gt;css&lt;/b&gt;&lt;/span&gt;" style="text;html=1;align=center;verticalAlign=middle;whiteSpace=wrap;rounded=0;" parent="1" vertex="1">
          <mxGeometry x="580" y="-85" width="60" height="30" as="geometry" />
        </mxCell>
        <mxCell id="QDwMkbps9LbB6PQ0rVGC-21" value="&lt;font style=&quot;font-size: 24px;&quot;&gt;&lt;b&gt;Bootstrap&lt;/b&gt;&lt;/font&gt;&lt;div&gt;&lt;font style=&quot;font-size: 24px;&quot;&gt;&lt;b&gt;&lt;br&gt;&lt;/b&gt;&lt;/font&gt;&lt;/div&gt;" style="text;html=1;align=center;verticalAlign=middle;whiteSpace=wrap;rounded=0;" parent="1" vertex="1">
          <mxGeometry x="581.78" y="-320" width="60" height="30" as="geometry" />
        </mxCell>
        <mxCell id="QDwMkbps9LbB6PQ0rVGC-22" value="&lt;span style=&quot;font-size: 24px;&quot;&gt;&lt;b&gt;TypeScript&lt;/b&gt;&lt;/span&gt;" style="text;html=1;align=center;verticalAlign=middle;whiteSpace=wrap;rounded=0;" parent="1" vertex="1">
          <mxGeometry x="578.23" y="-580" width="60" height="30" as="geometry" />
        </mxCell>
        <mxCell id="QDwMkbps9LbB6PQ0rVGC-23" value="&lt;font style=&quot;font-size: 24px;&quot;&gt;&lt;b&gt;React&lt;/b&gt;&lt;/font&gt;" style="text;html=1;align=center;verticalAlign=middle;whiteSpace=wrap;rounded=0;" parent="1" vertex="1">
          <mxGeometry x="570" y="-840" width="60" height="30" as="geometry" />
        </mxCell>
        <mxCell id="QDwMkbps9LbB6PQ0rVGC-24" value="&lt;font style=&quot;font-size: 24px;&quot;&gt;&lt;b&gt;Redux&lt;/b&gt;&lt;/font&gt;" style="text;html=1;align=center;verticalAlign=middle;whiteSpace=wrap;rounded=0;" parent="1" vertex="1">
          <mxGeometry x="140" y="-490" width="60" height="30" as="geometry" />
        </mxCell>
      </root>
    </mxGraphModel>
  </diagram>
</mxfile>
